Castoro-Bold.ufo
<glyph name="exclam" format="2">
  <advance width="348"/>
  <unicode hex="0021"/>
  <outline>
    <contour>
      <point x="278" y="636" type="line"/>
      <point x="278" y="682"/>
      <point x="242" y="711"/>
      <point x="187" y="711" type="curve" smooth="yes"/>
      <point x="130" y="711"/>
      <point x="94" y="681"/>
      <point x="94" y="635" type="curve"/>
      <point x="164" y="217" type="line"/>
      <point x="175" y="216"/>
      <point x="200" y="216"/>
      <point x="211" y="217" type="curve"/>
    </contour>
    <contour>
      <point x="99" y="73" type="curve" smooth="yes"/>
      <point x="99" y="25"/>
      <point x="135" y="-12"/>
      <point x="184" y="-12" type="curve" smooth="yes"/>
      <point x="238" y="-12"/>
      <point x="273" y="28"/>
      <point x="273" y="73" type="curve" smooth="yes"/>
      <point x="273" y="122"/>
      <point x="236" y="160"/>
      <point x="186" y="160" type="curve" smooth="yes"/>
      <point x="137" y="160"/>
      <point x="99" y="123"/>
    </contour>
  </outline>
</glyph>
<glyph name="numbersign" format="2">
  <advance width="598"/>
  <unicode hex="0023"/>
  <outline>
    <contour>
      <point x="503" y="620" type="line"/>
      <point x="439" y="620" type="line"/>
      <point x="284" y="0" type="line"/>
      <point x="348" y="0" type="line"/>
    </contour>
    <contour>
      <point x="522" y="245" type="line"/>
      <point x="41" y="245" type="line"/>
      <point x="41" y="182" type="line"/>
      <point x="522" y="182" type="line"/>
    </contour>
    <contour>
      <point x="314" y="620" type="line"/>
      <point x="250" y="620" type="line"/>
      <point x="96" y="0" type="line"/>
      <point x="160" y="0" type="line"/>
    </contour>
    <contour>
      <point x="556" y="440" type="line"/>
      <point x="76" y="440" type="line"/>
      <point x="76" y="377" type="line"/>
      <point x="556" y="377" type="line"/>
    </contour>
  </outline>
</glyph>
<glyph name="dollar" format="2">
  <advance width="543"/>
  <unicode hex="0024"/>
  <outline>
    <contour>
      <point x="260" y="-7" type="curve" smooth="yes"/>
      <point x="368" y="-7"/>
      <point x="506" y="47"/>
      <point x="506" y="183" type="curve" smooth="yes"/>
      <point x="506" y="302"/>
      <point x="405" y="339"/>
      <point x="270" y="382" type="curve" smooth="yes"/>
      <point x="194" y="407"/>
      <point x="153" y="429"/>
      <point x="153" y="483" type="curve" smooth="yes"/>
      <point x="153" y="525"/>
      <point x="189" y="569"/>
      <point x="284" y="569" type="curve" smooth="yes"/>
      <point x="300" y="569"/>
      <point x="333" y="569"/>
      <point x="364" y="549" type="curve"/>
      <point x="351" y="572" type="line"/>
      <point x="346" y="503"/>
      <point x="382" y="457"/>
      <point x="428" y="457" type="curve" smooth="yes"/>
      <point x="457" y="457"/>
      <point x="480" y="476"/>
      <point x="480" y="510" type="curve" smooth="yes"/>
      <point x="480" y="591"/>
      <point x="354" y="616"/>
      <point x="281" y="616" type="curve" smooth="yes"/>
      <point x="176" y="616"/>
      <point x="49" y="560"/>
      <point x="49" y="429" type="curve" smooth="yes"/>
      <point x="49" y="301"/>
      <point x="160" y="264"/>
      <point x="266" y="231" type="curve" smooth="yes"/>
      <point x="348" y="205"/>
      <point x="393" y="177"/>
      <point x="393" y="127" type="curve" smooth="yes"/>
      <point x="393" y="65"/>
      <point x="331" y="39"/>
      <point x="265" y="39" type="curve" smooth="yes"/>
      <point x="220" y="39"/>
      <point x="189" y="48"/>
      <point x="154" y="65" type="curve"/>
      <point x="171" y="46" type="line"/>
      <point x="177" y="102"/>
      <point x="146" y="161"/>
      <point x="93" y="161" type="curve" smooth="yes"/>
      <point x="64" y="161"/>
      <point x="37" y="143"/>
      <point x="37" y="105" type="curve" smooth="yes"/>
      <point x="37" y="21"/>
      <point x="178" y="-7"/>
    </contour>
    <contour>
      <point x="247" y="-103" type="line"/>
      <point x="262" y="-105"/>
      <point x="285" y="-105"/>
      <point x="299" y="-103" type="curve"/>
      <point x="299" y="705" type="line"/>
      <point x="285" y="707"/>
      <point x="262" y="707"/>
      <point x="247" y="705" type="curve"/>
    </contour>
  </outline>
</glyph>
<glyph name="ampersand" format="2">
  <advance width="780"/>
  <unicode hex="0026"/>
  <outline>
    <contour>
      <point x="602" y="-11" type="curve" smooth="yes"/>
      <point x="667" y="-11"/>
      <point x="715" y="11"/>
      <point x="753" y="40" type="curve"/>
      <point x="752" y="52"/>
      <point x="747" y="65"/>
      <point x="740" y="75" type="curve"/>
      <point x="718" y="64"/>
      <point x="694" y="59"/>
      <point x="679" y="59" type="curve" smooth="yes"/>
      <point x="633" y="59"/>
      <point x="590" y="114"/>
      <point x="532" y="190" type="curve" smooth="yes"/>
      <point x="485" y="252"/>
      <point x="394" y="355"/>
      <point x="333" y="414" type="curve" smooth="yes"/>
      <point x="284" y="461"/>
      <point x="248" y="506"/>
      <point x="248" y="571" type="curve" smooth="yes"/>
      <point x="248" y="619"/>
      <point x="273" y="653"/>
      <point x="314" y="653" type="curve" smooth="yes"/>
      <point x="355" y="653"/>
      <point x="379" y="616"/>
      <point x="379" y="556" type="curve" smooth="yes"/>
      <point x="379" y="510"/>
      <point x="359" y="456"/>
      <point x="304" y="430" type="curve"/>
      <point x="333" y="400" type="line"/>
      <point x="431" y="435"/>
      <point x="489" y="488"/>
      <point x="489" y="563" type="curve" smooth="yes"/>
      <point x="489" y="651"/>
      <point x="409" y="698"/>
      <point x="324" y="698" type="curve" smooth="yes"/>
      <point x="229" y="698"/>
      <point x="120" y="638"/>
      <point x="120" y="515" type="curve" smooth="yes"/>
      <point x="120" y="470"/>
      <point x="141" y="416"/>
      <point x="188" y="369" type="curve" smooth="yes"/>
      <point x="251" y="307"/>
      <point x="335" y="215"/>
      <point x="417" y="104" type="curve" smooth="yes"/>
      <point x="480" y="20"/>
      <point x="526" y="-11"/>
    </contour>
    <contour>
      <point x="257" y="-19" type="curve" smooth="yes"/>
      <point x="342" y="-19"/>
      <point x="404" y="15"/>
      <point x="457" y="74" type="curve"/>
      <point x="430" y="108" type="line"/>
      <point x="393" y="75"/>
      <point x="358" y="61"/>
      <point x="315" y="61" type="curve" smooth="yes"/>
      <point x="240" y="61"/>
      <point x="177" y="121"/>
      <point x="177" y="208" type="curve" smooth="yes"/>
      <point x="177" y="271"/>
      <point x="199" y="312"/>
      <point x="232" y="341" type="curve"/>
      <point x="199" y="374" type="line"/>
      <point x="114" y="337"/>
      <point x="32" y="274"/>
      <point x="32" y="168" type="curve" smooth="yes"/>
      <point x="32" y="58"/>
      <point x="118" y="-19"/>
    </contour>
    <contour>
      <point x="538" y="164" type="line"/>
      <point x="561" y="198"/>
      <point x="584" y="235"/>
      <point x="601" y="263" type="curve" smooth="yes"/>
      <point x="627" y="306"/>
      <point x="646" y="343"/>
      <point x="661" y="358" type="curve" smooth="yes"/>
      <point x="679" y="375"/>
      <point x="703" y="379"/>
      <point x="737" y="382" type="curve"/>
      <point x="739" y="395"/>
      <point x="739" y="407"/>
      <point x="737" y="420" type="curve"/>
      <point x="706" y="420"/>
      <point x="676" y="418"/>
      <point x="629" y="418" type="curve" smooth="yes"/>
      <point x="573" y="418"/>
      <point x="530" y="420"/>
      <point x="496" y="420" type="curve"/>
      <point x="494" y="406"/>
      <point x="494" y="395"/>
      <point x="496" y="382" type="curve"/>
      <point x="542" y="379"/>
      <point x="577" y="376"/>
      <point x="577" y="343" type="curve" smooth="yes"/>
      <point x="577" y="313"/>
      <point x="553" y="270"/>
      <point x="507" y="201" type="curve"/>
    </contour>
  </outline>
</glyph>
<glyph name="quotesingle" format="2">
  <advance width="264"/>
  <unicode hex="0027"/>
  <outline>
    <contour>
      <point x="209" y="660" type="line"/>
      <point x="209" y="692"/>
      <point x="173" y="711"/>
      <point x="134" y="711" type="curve" smooth="yes"/>
      <point x="94" y="711"/>
      <point x="55" y="692"/>
      <point x="55" y="659" type="curve"/>
      <point x="111" y="402" type="line"/>
      <point x="155" y="402" type="line"/>
    </contour>
  </outline>
</glyph>
<glyph name="parenleft" format="2">
  <advance width="401"/>
  <unicode hex="0028"/>
  <outline>
    <contour>
      <point x="335" y="-158" type="line"/>
      <point x="231" y="-46"/>
      <point x="173" y="92"/>
      <point x="173" y="285" type="curve" smooth="yes"/>
      <point x="173" y="480"/>
      <point x="227" y="616"/>
      <point x="335" y="728" type="curve"/>
      <point x="308" y="755" type="line"/>
      <point x="141" y="633"/>
      <point x="53" y="483"/>
      <point x="53" y="287" type="curve" smooth="yes"/>
      <point x="53" y="95"/>
      <point x="143" y="-56"/>
      <point x="308" y="-184" type="curve"/>
    </contour>
  </outline>
</glyph>
<glyph name="parenright" format="2">
  <advance width="405"/>
  <unicode hex="0029"/>
  <outline>
    <contour>
      <point x="95" y="-184" type="line"/>
      <point x="260" y="-58"/>
      <point x="350" y="93"/>
      <point x="350" y="286" type="curve" smooth="yes"/>
      <point x="350" y="481"/>
      <point x="262" y="631"/>
      <point x="95" y="755" type="curve"/>
      <point x="69" y="729" type="line"/>
      <point x="176" y="617"/>
      <point x="230" y="480"/>
      <point x="230" y="285" type="curve" smooth="yes"/>
      <point x="230" y="92"/>
      <point x="172" y="-46"/>
      <point x="69" y="-158" type="curve"/>
    </contour>
  </outline>
</glyph>
<glyph name="asterisk" format="2">
  <advance width="464"/>
  <unicode hex="002A"/>
  <outline>
    <contour>
      <point x="113" y="342" type="curve" smooth="yes"/>
      <point x="136" y="342"/>
      <point x="160" y="352"/>
      <point x="171" y="366" type="curve" smooth="yes"/>
      <point x="186" y="385"/>
      <point x="179" y="430"/>
      <point x="231" y="502" type="curve"/>
      <point x="216" y="513" type="line"/>
      <point x="154" y="458"/>
      <point x="99" y="461"/>
      <point x="79" y="438" type="curve"/>
      <point x="70" y="429"/>
      <point x="64" y="410"/>
      <point x="64" y="394" type="curve" smooth="yes"/>
      <point x="64" y="364"/>
      <point x="80" y="342"/>
    </contour>
    <contour>
      <point x="229" y="517" type="line"/>
      <point x="170" y="553"/>
      <point x="157" y="591"/>
      <point x="140" y="612" type="curve"/>
      <point x="127" y="626"/>
      <point x="113" y="632"/>
      <point x="95" y="632" type="curve" smooth="yes"/>
      <point x="69" y="632"/>
      <point x="33" y="617"/>
      <point x="33" y="583" type="curve" smooth="yes"/>
      <point x="33" y="555"/>
      <point x="57" y="528"/>
      <point x="75" y="519" type="curve"/>
      <point x="98" y="510"/>
      <point x="163" y="527"/>
      <point x="225" y="499" type="curve"/>
    </contour>
    <contour>
      <point x="311" y="315" type="curve" smooth="yes"/>
      <point x="341" y="315"/>
      <point x="354" y="347"/>
      <point x="354" y="375" type="curve" smooth="yes"/>
      <point x="354" y="388"/>
      <point x="352" y="401"/>
      <point x="346" y="410" type="curve" smooth="yes"/>
      <point x="333" y="431"/>
      <point x="292" y="439"/>
      <point x="238" y="511" type="curve"/>
      <point x="223" y="501" type="line"/>
      <point x="254" y="426"/>
      <point x="232" y="374"/>
      <point x="248" y="349" type="curve"/>
      <point x="257" y="331"/>
      <point x="285" y="315"/>
    </contour>
    <contour>
      <point x="377" y="471" type="curve" smooth="yes"/>
      <point x="404" y="471"/>
      <point x="437" y="507"/>
      <point x="437" y="536" type="curve" smooth="yes"/>
      <point x="437" y="571"/>
      <point x="386" y="590"/>
      <point x="361" y="587" type="curve"/>
      <point x="332" y="581"/>
      <point x="310" y="539"/>
      <point x="224" y="517" type="curve"/>
      <point x="228" y="500" type="line"/>
      <point x="303" y="506"/>
      <point x="349" y="471"/>
    </contour>
    <contour>
      <point x="237" y="514" type="line"/>
      <point x="254" y="582"/>
      <point x="306" y="620"/>
      <point x="306" y="650" type="curve" smooth="yes"/>
      <point x="306" y="677"/>
      <point x="281" y="715"/>
      <point x="252" y="715" type="curve" smooth="yes"/>
      <point x="217" y="715"/>
      <point x="188" y="671"/>
      <point x="188" y="650" type="curve" smooth="yes"/>
      <point x="188" y="625"/>
      <point x="220" y="587"/>
      <point x="219" y="515" type="curve"/>
    </contour>
  </outline>
</glyph>
<glyph name="plus" format="2">
  <advance width="565"/>
  <unicode hex="002B"/>
  <outline>
    <contour>
      <point x="521" y="207" type="line"/>
      <point x="522" y="223"/>
      <point x="522" y="252"/>
      <point x="521" y="270" type="curve"/>
      <point x="44" y="270" type="line"/>
      <point x="42" y="252"/>
      <point x="42" y="223"/>
      <point x="44" y="207" type="curve"/>
    </contour>
    <contour>
      <point x="251" y="-1" type="line"/>
      <point x="267" y="-2"/>
      <point x="297" y="-2"/>
      <point x="314" y="-1" type="curve"/>
      <point x="314" y="476" type="line"/>
      <point x="297" y="478"/>
      <point x="267" y="478"/>
      <point x="251" y="476" type="curve"/>
    </contour>
  </outline>
</glyph>
<glyph name="comma" format="2">
  <advance width="289"/>
  <unicode hex="002C"/>
  <outline>
    <contour>
      <point x="82" y="-189" type="line"/>
      <point x="190" y="-138"/>
      <point x="246" y="-49"/>
      <point x="246" y="43" type="curve" smooth="yes"/>
      <point x="246" y="117"/>
      <point x="202" y="168"/>
      <point x="145" y="168" type="curve" smooth="yes"/>
      <point x="92" y="168"/>
      <point x="53" y="133"/>
      <point x="53" y="85" type="curve" smooth="yes"/>
      <point x="53" y="37"/>
      <point x="88" y="7"/>
      <point x="125" y="7" type="curve" smooth="yes"/>
      <point x="146" y="7"/>
      <point x="168" y="16"/>
      <point x="185" y="39" type="curve"/>
      <point x="154" y="61" type="line"/>
      <point x="170" y="34"/>
      <point x="175" y="15"/>
      <point x="175" y="-4" type="curve" smooth="yes"/>
      <point x="175" y="-63"/>
      <point x="130" y="-116"/>
      <point x="59" y="-151" type="curve"/>
    </contour>
  </outline>
</glyph>
<glyph name="hyphen" format="2">
  <advance width="346"/>
  <unicode hex="002D"/>
  <outline>
    <contour>
      <point x="305" y="207" type="line"/>
      <point x="306" y="233"/>
      <point x="306" y="272"/>
      <point x="305" y="297" type="curve"/>
      <point x="41" y="297" type="line"/>
      <point x="40" y="271"/>
      <point x="40" y="233"/>
      <point x="41" y="207" type="curve"/>
    </contour>
  </outline>
</glyph>
<glyph name="period" format="2">
  <advance width="315"/>
  <unicode hex="002E"/>
  <outline>
    <contour>
      <point x="70" y="75" type="curve" smooth="yes"/>
      <point x="70" y="25"/>
      <point x="108" y="-12"/>
      <point x="158" y="-12" type="curve" smooth="yes"/>
      <point x="208" y="-12"/>
      <point x="245" y="27"/>
      <point x="245" y="77" type="curve" smooth="yes"/>
      <point x="245" y="125"/>
      <point x="209" y="161"/>
      <point x="159" y="161" type="curve" smooth="yes"/>
      <point x="108" y="161"/>
      <point x="70" y="124"/>
    </contour>
  </outline>
</glyph>
<glyph name="slash" format="2">
  <advance width="386"/>
  <unicode hex="002F"/>
  <outline>
    <contour>
      <point x="300" y="748" type="line"/>
      <point x="-27" y="-177" type="line"/>
      <point x="45" y="-177" type="line"/>
      <point x="373" y="748" type="line"/>
    </contour>
  </outline>
</glyph>
<glyph name="zero" format="2">
  <advance width="580"/>
  <unicode hex="0030"/>
  <outline>
    <contour>
      <point x="287" y="584" type="curve" smooth="yes"/>
      <point x="375" y="584"/>
      <point x="398" y="449"/>
      <point x="398" y="299" type="curve" smooth="yes"/>
      <point x="398" y="147"/>
      <point x="375" y="33"/>
      <point x="295" y="33" type="curve" smooth="yes"/>
      <point x="209" y="33"/>
      <point x="185" y="171"/>
      <point x="185" y="321" type="curve" smooth="yes"/>
      <point x="185" y="469"/>
      <point x="208" y="584"/>
    </contour>
    <contour>
      <point x="546" y="314" type="curve" smooth="yes"/>
      <point x="546" y="481"/>
      <point x="473" y="630"/>
      <point x="296" y="630" type="curve" smooth="yes"/>
      <point x="118" y="630"/>
      <point x="36" y="475"/>
      <point x="36" y="303" type="curve" smooth="yes"/>
      <point x="36" y="123"/>
      <point x="125" y="-12"/>
      <point x="288" y="-12" type="curve" smooth="yes"/>
      <point x="455" y="-12"/>
      <point x="546" y="126"/>
    </contour>
  </outline>
</glyph>
<glyph name="one" format="2">
  <advance width="406"/>
  <unicode hex="0031"/>
  <outline>
    <contour>
      <point x="45" y="-1" type="curve"/>
      <point x="86" y="-1"/>
      <point x="122" y="2"/>
      <point x="220" y="2" type="curve" smooth="yes"/>
      <point x="320" y="2"/>
      <point x="353" y="-1"/>
      <point x="388" y="-1" type="curve"/>
      <point x="390" y="13"/>
      <point x="390" y="23"/>
      <point x="388" y="38" type="curve"/>
      <point x="291" y="46"/>
      <point x="287" y="47"/>
      <point x="287" y="132" type="curve" smooth="yes"/>
      <point x="287" y="485" type="line" smooth="yes"/>
      <point x="287" y="541"/>
      <point x="299" y="582"/>
      <point x="318" y="603" type="curve"/>
      <point x="314" y="613"/>
      <point x="305" y="625"/>
      <point x="298" y="632" type="curve"/>
      <point x="209" y="594"/>
      <point x="118" y="563"/>
      <point x="13" y="536" type="curve"/>
      <point x="13" y="523"/>
      <point x="16" y="508"/>
      <point x="20" y="497" type="curve"/>
      <point x="64" y="506"/>
      <point x="99" y="510"/>
      <point x="114" y="510" type="curve" smooth="yes"/>
      <point x="136" y="510"/>
      <point x="143" y="497"/>
      <point x="143" y="467" type="curve" smooth="yes"/>
      <point x="143" y="122" type="line" smooth="yes"/>
      <point x="143" y="50"/>
      <point x="140" y="47"/>
      <point x="45" y="38" type="curve"/>
      <point x="43" y="24"/>
      <point x="43" y="13"/>
    </contour>
  </outline>
</glyph>
<glyph name="two" format="2">
  <advance width="531"/>
  <unicode hex="0032"/>
  <outline>
    <contour>
      <point x="457" y="-1" type="curve"/>
      <point x="467" y="52"/>
      <point x="484" y="136"/>
      <point x="500" y="188" type="curve"/>
      <point x="489" y="193"/>
      <point x="473" y="195"/>
      <point x="462" y="194" type="curve"/>
      <point x="420" y="117"/>
      <point x="413" y="114"/>
      <point x="360" y="112" type="curve"/>
      <point x="358" y="112"/>
      <point x="281" y="109"/>
      <point x="155" y="109" type="curve"/>
      <point x="157" y="91" type="line"/>
      <point x="300" y="212"/>
      <point x="452" y="321"/>
      <point x="452" y="463" type="curve" smooth="yes"/>
      <point x="452" y="562"/>
      <point x="370" y="630"/>
      <point x="258" y="630" type="curve" smooth="yes"/>
      <point x="170" y="630"/>
      <point x="97" y="595"/>
      <point x="38" y="530" type="curve"/>
      <point x="43" y="520"/>
      <point x="53" y="509"/>
      <point x="61" y="501" type="curve"/>
      <point x="102" y="531"/>
      <point x="143" y="544"/>
      <point x="182" y="544" type="curve" smooth="yes"/>
      <point x="250" y="544"/>
      <point x="306" y="503"/>
      <point x="306" y="410" type="curve" smooth="yes"/>
      <point x="306" y="311"/>
      <point x="252" y="211"/>
      <point x="16" y="33" type="curve"/>
      <point x="16" y="22"/>
      <point x="18" y="10"/>
      <point x="23" y="0" type="curve"/>
      <point x="49" y="1"/>
      <point x="106" y="1"/>
      <point x="182" y="1" type="curve" smooth="yes"/>
      <point x="261" y="1"/>
      <point x="375" y="1"/>
    </contour>
  </outline>
</glyph>
<glyph name="three" format="2">
  <advance width="544"/>
  <unicode hex="0033"/>
  <outline>
    <contour>
      <point x="204" y="-139" type="curve" smooth="yes"/>
      <point x="355" y="-139"/>
      <point x="504" y="-56"/>
      <point x="504" y="97" type="curve" smooth="yes"/>
      <point x="504" y="201"/>
      <point x="435" y="272"/>
      <point x="285" y="291" type="curve"/>
      <point x="144" y="258" type="line"/>
      <point x="144" y="244"/>
      <point x="149" y="229"/>
      <point x="155" y="219" type="curve"/>
      <point x="175" y="224"/>
      <point x="196" y="227"/>
      <point x="215" y="227" type="curve" smooth="yes"/>
      <point x="310" y="227"/>
      <point x="356" y="157"/>
      <point x="356" y="73" type="curve" smooth="yes"/>
      <point x="356" y="-25"/>
      <point x="295" y="-95"/>
      <point x="210" y="-95" type="curve" smooth="yes"/>
      <point x="194" y="-95"/>
      <point x="176" y="-95"/>
      <point x="159" y="-90" type="curve"/>
      <point x="182" y="-117" type="line"/>
      <point x="165" y="-34"/>
      <point x="129" y="16"/>
      <point x="76" y="16" type="curve" smooth="yes"/>
      <point x="42" y="16"/>
      <point x="18" y="-9"/>
      <point x="18" y="-39" type="curve" smooth="yes"/>
      <point x="18" y="-93"/>
      <point x="86" y="-139"/>
    </contour>
    <contour>
      <point x="282" y="271" type="line"/>
      <point x="389" y="322"/>
      <point x="458" y="390"/>
      <point x="458" y="472" type="curve" smooth="yes"/>
      <point x="458" y="559"/>
      <point x="388" y="630"/>
      <point x="267" y="630" type="curve" smooth="yes"/>
      <point x="186" y="630"/>
      <point x="109" y="597"/>
      <point x="48" y="531" type="curve"/>
      <point x="52" y="521"/>
      <point x="62" y="510"/>
      <point x="71" y="501" type="curve"/>
      <point x="112" y="531"/>
      <point x="153" y="544"/>
      <point x="192" y="544" type="curve" smooth="yes"/>
      <point x="263" y="544"/>
      <point x="314" y="501"/>
      <point x="314" y="425" type="curve" smooth="yes"/>
      <point x="314" y="371"/>
      <point x="277" y="299"/>
      <point x="144" y="258" type="curve"/>
    </contour>
  </outline>
</glyph>
<glyph name="four" format="2">
  <advance width="621"/>
  <unicode hex="0034"/>
  <outline>
    <contour>
      <point x="485" y="-116" type="curve"/>
      <point x="485" y="529" type="line" smooth="yes"/>
      <point x="485" y="548"/>
      <point x="485" y="566"/>
      <point x="487" y="617" type="curve"/>
      <point x="451" y="623"/>
      <point x="406" y="627"/>
      <point x="366" y="626" type="curve"/>
      <point x="242" y="467"/>
      <point x="133" y="317"/>
      <point x="20" y="165" type="curve"/>
      <point x="20" y="141"/>
      <point x="21" y="120"/>
      <point x="24" y="95" type="curve"/>
      <point x="589" y="95" type="line"/>
      <point x="592" y="125"/>
      <point x="595" y="160"/>
      <point x="596" y="194" type="curve"/>
      <point x="80" y="194" type="line"/>
      <point x="84" y="171" type="line"/>
      <point x="174" y="293"/>
      <point x="260" y="411"/>
      <point x="362" y="545" type="curve"/>
      <point x="342" y="551" type="line"/>
      <point x="342" y="-116" type="line"/>
      <point x="386" y="-119"/>
      <point x="442" y="-119"/>
    </contour>
  </outline>
</glyph>
<glyph name="five" format="2">
  <advance width="575"/>
  <unicode hex="0035"/>
  <outline>
    <contour>
      <point x="215" y="-139" type="curve" smooth="yes"/>
      <point x="392" y="-139"/>
      <point x="529" y="-29"/>
      <point x="529" y="140" type="curve" smooth="yes"/>
      <point x="529" y="256"/>
      <point x="462" y="372"/>
      <point x="257" y="372" type="curve" smooth="yes"/>
      <point x="210" y="372"/>
      <point x="174" y="367"/>
      <point x="135" y="360" type="curve"/>
      <point x="146" y="344" type="line"/>
      <point x="171" y="514" type="line"/>
      <point x="158" y="500" type="line"/>
      <point x="482" y="500" type="line"/>
      <point x="490" y="530"/>
      <point x="499" y="582"/>
      <point x="501" y="621" type="curve"/>
      <point x="135" y="613" type="line"/>
      <point x="80" y="251" type="line"/>
      <point x="87" y="248" type="line"/>
      <point x="127" y="259"/>
      <point x="172" y="263"/>
      <point x="203" y="263" type="curve" smooth="yes"/>
      <point x="348" y="263"/>
      <point x="393" y="177"/>
      <point x="393" y="91" type="curve" smooth="yes"/>
      <point x="393" y="-10"/>
      <point x="331" y="-95"/>
      <point x="204" y="-95" type="curve" smooth="yes"/>
      <point x="194" y="-95"/>
      <point x="188" y="-94"/>
      <point x="169" y="-90" type="curve"/>
      <point x="186" y="-107" type="line"/>
      <point x="171" y="-27"/>
      <point x="134" y="17"/>
      <point x="83" y="17" type="curve" smooth="yes"/>
      <point x="51" y="17"/>
      <point x="27" y="-6"/>
      <point x="27" y="-37" type="curve" smooth="yes"/>
      <point x="27" y="-88"/>
      <point x="89" y="-139"/>
    </contour>
  </outline>
</glyph>
<glyph name="six" format="2">
  <advance width="589"/>
  <unicode hex="0036"/>
  <outline>
    <contour>
      <point x="304" y="-12" type="curve" smooth="yes"/>
      <point x="424" y="-12"/>
      <point x="558" y="70"/>
      <point x="558" y="236" type="curve" smooth="yes"/>
      <point x="558" y="392"/>
      <point x="445" y="460"/>
      <point x="329" y="460" type="curve" smooth="yes"/>
      <point x="279" y="460"/>
      <point x="228" y="447"/>
      <point x="184" y="421" type="curve"/>
      <point x="182" y="370" type="line"/>
      <point x="214" y="390"/>
      <point x="248" y="400"/>
      <point x="279" y="400" type="curve" smooth="yes"/>
      <point x="349" y="400"/>
      <point x="410" y="341"/>
      <point x="410" y="213" type="curve" smooth="yes"/>
      <point x="410" y="83"/>
      <point x="354" y="33"/>
      <point x="310" y="33" type="curve" smooth="yes"/>
      <point x="252" y="33"/>
      <point x="192" y="94"/>
      <point x="192" y="301" type="curve" smooth="yes"/>
      <point x="192" y="525"/>
      <point x="306" y="699"/>
      <point x="483" y="699" type="curve" smooth="yes"/>
      <point x="502" y="699"/>
      <point x="512" y="698"/>
      <point x="519" y="697" type="curve"/>
      <point x="522" y="710"/>
      <point x="523" y="729"/>
      <point x="523" y="742" type="curve"/>
      <point x="510" y="744"/>
      <point x="494" y="744"/>
      <point x="489" y="744" type="curve" smooth="yes"/>
      <point x="182" y="744"/>
      <point x="38" y="517"/>
      <point x="38" y="281" type="curve" smooth="yes"/>
      <point x="38" y="72"/>
      <point x="162" y="-12"/>
    </contour>
  </outline>
</glyph>
<glyph name="seven" format="2">
  <advance width="521"/>
  <unicode hex="0037"/>
  <outline>
    <contour>
      <point x="177" y="-117" type="curve" smooth="yes"/>
      <point x="208" y="-117"/>
      <point x="246" y="-117"/>
      <point x="261" y="-116" type="curve"/>
      <point x="309" y="84"/>
      <point x="407" y="371"/>
      <point x="503" y="589" type="curve"/>
      <point x="502" y="602"/>
      <point x="501" y="608"/>
      <point x="499" y="618" type="curve"/>
      <point x="475" y="615"/>
      <point x="398" y="615"/>
      <point x="342" y="615" type="curve" smooth="yes"/>
      <point x="220" y="615"/>
      <point x="132" y="616"/>
      <point x="46" y="620" type="curve"/>
      <point x="40" y="548"/>
      <point x="30" y="478"/>
      <point x="16" y="419" type="curve"/>
      <point x="27" y="414"/>
      <point x="43" y="413"/>
      <point x="55" y="414" type="curve"/>
      <point x="88" y="500"/>
      <point x="101" y="504"/>
      <point x="158" y="506" type="curve" smooth="yes"/>
      <point x="187" y="507"/>
      <point x="215" y="507"/>
      <point x="236" y="507" type="curve" smooth="yes"/>
      <point x="331" y="507"/>
      <point x="415" y="506"/>
      <point x="435" y="506" type="curve"/>
      <point x="433" y="536" type="line"/>
      <point x="312" y="312"/>
      <point x="198" y="111"/>
      <point x="99" y="-103" type="curve"/>
      <point x="104" y="-116" type="line"/>
      <point x="121" y="-117"/>
      <point x="140" y="-117"/>
    </contour>
  </outline>
</glyph>
<glyph name="eight" format="2">
  <advance width="567"/>
  <unicode hex="0038"/>
  <outline>
    <contour>
      <point x="272" y="-12" type="curve" smooth="yes"/>
      <point x="451" y="-12"/>
      <point x="538" y="91"/>
      <point x="538" y="201" type="curve" smooth="yes"/>
      <point x="538" y="316"/>
      <point x="438" y="372"/>
      <point x="353" y="419" type="curve" smooth="yes"/>
      <point x="270" y="466"/>
      <point x="190" y="506"/>
      <point x="190" y="593" type="curve" smooth="yes"/>
      <point x="190" y="653"/>
      <point x="228" y="701"/>
      <point x="287" y="701" type="curve" smooth="yes"/>
      <point x="345" y="701"/>
      <point x="381" y="649"/>
      <point x="381" y="571" type="curve" smooth="yes"/>
      <point x="381" y="516"/>
      <point x="359" y="466"/>
      <point x="323" y="428" type="curve"/>
      <point x="370" y="402" type="line"/>
      <point x="370" y="414" type="line"/>
      <point x="456" y="441"/>
      <point x="512" y="499"/>
      <point x="512" y="576" type="curve" smooth="yes"/>
      <point x="512" y="661"/>
      <point x="430" y="744"/>
      <point x="300" y="744" type="curve" smooth="yes"/>
      <point x="159" y="744"/>
      <point x="57" y="653"/>
      <point x="57" y="538" type="curve" smooth="yes"/>
      <point x="57" y="433"/>
      <point x="145" y="376"/>
      <point x="219" y="333" type="curve" smooth="yes"/>
      <point x="327" y="268"/>
      <point x="402" y="233"/>
      <point x="402" y="147" type="curve" smooth="yes"/>
      <point x="402" y="86"/>
      <point x="361" y="31"/>
      <point x="290" y="31" type="curve" smooth="yes"/>
      <point x="211" y="31"/>
      <point x="170" y="94"/>
      <point x="170" y="181" type="curve" smooth="yes"/>
      <point x="170" y="237"/>
      <point x="190" y="292"/>
      <point x="232" y="333" type="curve"/>
      <point x="188" y="360" type="line"/>
      <point x="188" y="348" type="line"/>
      <point x="88" y="314"/>
      <point x="29" y="249"/>
      <point x="29" y="166" type="curve" smooth="yes"/>
      <point x="29" y="68"/>
      <point x="121" y="-12"/>
    </contour>
  </outline>
</glyph>
<glyph name="nine" format="2">
  <advance width="590"/>
  <unicode hex="0039"/>
  <outline>
    <contour>
      <point x="104" y="-139" type="curve" smooth="yes"/>
      <point x="418" y="-139"/>
      <point x="553" y="99"/>
      <point x="553" y="332" type="curve" smooth="yes"/>
      <point x="553" y="538"/>
      <point x="430" y="630"/>
      <point x="290" y="630" type="curve" smooth="yes"/>
      <point x="115" y="630"/>
      <point x="31" y="512"/>
      <point x="31" y="386" type="curve" smooth="yes"/>
      <point x="31" y="271"/>
      <point x="103" y="159"/>
      <point x="267" y="159" type="curve" smooth="yes"/>
      <point x="314" y="159"/>
      <point x="364" y="168"/>
      <point x="419" y="206" type="curve"/>
      <point x="416" y="253" type="line"/>
      <point x="376" y="226"/>
      <point x="342" y="219"/>
      <point x="314" y="219" type="curve" smooth="yes"/>
      <point x="227" y="219"/>
      <point x="180" y="316"/>
      <point x="180" y="415" type="curve" smooth="yes"/>
      <point x="180" y="519"/>
      <point x="221" y="585"/>
      <point x="284" y="585" type="curve" smooth="yes"/>
      <point x="344" y="585"/>
      <point x="399" y="510"/>
      <point x="399" y="324" type="curve" smooth="yes"/>
      <point x="399" y="77"/>
      <point x="301" y="-95"/>
      <point x="91" y="-95" type="curve"/>
      <point x="90" y="-95"/>
      <point x="84" y="-95"/>
      <point x="72" y="-94" type="curve"/>
      <point x="68" y="-107"/>
      <point x="68" y="-125"/>
      <point x="69" y="-137" type="curve"/>
      <point x="82" y="-139"/>
      <point x="100" y="-139"/>
    </contour>
  </outline>
</glyph>
<glyph name="less" format="2">
  <advance width="567"/>
  <unicode hex="003C"/>
  <outline>
    <contour>
      <point x="53" y="260" type="line"/>
      <point x="50" y="247"/>
      <point x="50" y="230"/>
      <point x="53" y="217" type="curve"/>
      <point x="496" y="13" type="line"/>
      <point x="504" y="27"/>
      <point x="515" y="53"/>
      <point x="521" y="70" type="curve"/>
      <point x="120" y="249" type="line"/>
      <point x="120" y="228" type="line"/>
      <point x="521" y="407" type="line"/>
      <point x="516" y="423"/>
      <point x="505" y="449"/>
      <point x="496" y="464" type="curve"/>
    </contour>
  </outline>
</glyph>
<glyph name="equal" format="2">
  <advance width="581"/>
  <unicode hex="003D"/>
  <outline>
    <contour>
      <point x="52" y="360" type="line"/>
      <point x="50" y="342"/>
      <point x="50" y="313"/>
      <point x="52" y="297" type="curve"/>
      <point x="529" y="297" type="line"/>
      <point x="530" y="313"/>
      <point x="530" y="342"/>
      <point x="529" y="360" type="curve"/>
    </contour>
    <contour>
      <point x="52" y="180" type="line"/>
      <point x="50" y="162"/>
      <point x="50" y="133"/>
      <point x="52" y="117" type="curve"/>
      <point x="529" y="117" type="line"/>
      <point x="530" y="133"/>
      <point x="530" y="162"/>
      <point x="529" y="180" type="curve"/>
    </contour>
  </outline>
</glyph>
<glyph name="greater" format="2">
  <advance width="567"/>
  <unicode hex="003E"/>
  <outline>
    <contour>
      <point x="514" y="217" type="line"/>
      <point x="517" y="230"/>
      <point x="517" y="247"/>
      <point x="514" y="260" type="curve"/>
      <point x="70" y="464" type="line"/>
      <point x="62" y="449"/>
      <point x="51" y="423"/>
      <point x="46" y="407" type="curve"/>
      <point x="447" y="228" type="line"/>
      <point x="447" y="249" type="line"/>
      <point x="46" y="70" type="line"/>
      <point x="52" y="53"/>
      <point x="63" y="27"/>
      <point x="70" y="13" type="curve"/>
    </contour>
  </outline>
</glyph>
<glyph name="question" format="2">
  <advance width="427"/>
  <unicode hex="003F"/>
  <outline>
    <contour>
      <point x="141" y="215" type="line"/>
      <point x="153" y="214"/>
      <point x="174" y="214"/>
      <point x="185" y="215" type="curve"/>
      <point x="194" y="323" type="line"/>
      <point x="168" y="276" type="line"/>
      <point x="326" y="273"/>
      <point x="393" y="315"/>
      <point x="393" y="437" type="curve" smooth="yes"/>
      <point x="393" y="496"/>
      <point x="377" y="538"/>
      <point x="352" y="582" type="curve" smooth="yes"/>
      <point x="308" y="655"/>
      <point x="212" y="711"/>
      <point x="139" y="711" type="curve" smooth="yes"/>
      <point x="90" y="711"/>
      <point x="62" y="686"/>
      <point x="62" y="654" type="curve" smooth="yes"/>
      <point x="62" y="621"/>
      <point x="92" y="601"/>
      <point x="133" y="601" type="curve" smooth="yes"/>
      <point x="171" y="601"/>
      <point x="200" y="619"/>
      <point x="237" y="645" type="curve"/>
      <point x="201" y="633" type="line"/>
      <point x="277" y="605"/>
      <point x="333" y="543"/>
      <point x="333" y="488" type="curve" smooth="yes"/>
      <point x="333" y="438"/>
      <point x="302" y="414"/>
      <point x="150" y="414" type="curve"/>
      <point x="149" y="414"/>
      <point x="142" y="414"/>
      <point x="121" y="415" type="curve"/>
    </contour>
    <contour>
      <point x="165" y="-12" type="curve" smooth="yes"/>
      <point x="218" y="-12"/>
      <point x="253" y="28"/>
      <point x="253" y="73" type="curve" smooth="yes"/>
      <point x="253" y="122"/>
      <point x="215" y="160"/>
      <point x="166" y="160" type="curve" smooth="yes"/>
      <point x="116" y="160"/>
      <point x="79" y="123"/>
      <point x="79" y="73" type="curve" smooth="yes"/>
      <point x="79" y="25"/>
      <point x="115" y="-12"/>
    </contour>
  </outline>
</glyph>
<glyph name="at" format="2">
  <advance width="936"/>
  <unicode hex="0040"/>
  <outline>
    <contour>
      <point x="452" y="-193" type="curve" smooth="yes"/>
      <point x="563" y="-193"/>
      <point x="677" y="-158"/>
      <point x="758" y="-77" type="curve"/>
      <point x="753" y="-70"/>
      <point x="740" y="-56"/>
      <point x="732" y="-50" type="curve"/>
      <point x="655" y="-115"/>
      <point x="564" y="-144"/>
      <point x="468" y="-144" type="curve" smooth="yes"/>
      <point x="284" y="-144"/>
      <point x="142" y="-18"/>
      <point x="142" y="190" type="curve" smooth="yes"/>
      <point x="142" y="406"/>
      <point x="307" y="577"/>
      <point x="512" y="577" type="curve" smooth="yes"/>
      <point x="678" y="577"/>
      <point x="798" y="485"/>
      <point x="798" y="300" type="curve" smooth="yes"/>
      <point x="798" y="126"/>
      <point x="689" y="41"/>
      <point x="639" y="41" type="curve" smooth="yes"/>
      <point x="613" y="41"/>
      <point x="605" y="61"/>
      <point x="605" y="85" type="curve" smooth="yes"/>
      <point x="605" y="102"/>
      <point x="609" y="118"/>
      <point x="610" y="125" type="curve" smooth="yes"/>
      <point x="618" y="168"/>
      <point x="684" y="429"/>
      <point x="687" y="439" type="curve"/>
      <point x="681" y="445" type="line"/>
      <point x="583" y="425" type="line"/>
      <point x="559" y="367" type="line"/>
      <point x="521" y="215" type="line"/>
      <point x="508" y="125" type="line"/>
      <point x="503" y="100"/>
      <point x="502" y="93"/>
      <point x="502" y="79" type="curve" smooth="yes"/>
      <point x="502" y="24"/>
      <point x="536" y="-8"/>
      <point x="599" y="-8" type="curve" smooth="yes"/>
      <point x="710" y="-8"/>
      <point x="889" y="99"/>
      <point x="889" y="302" type="curve" smooth="yes"/>
      <point x="889" y="505"/>
      <point x="713" y="623"/>
      <point x="514" y="623" type="curve" smooth="yes"/>
      <point x="257" y="623"/>
      <point x="46" y="444"/>
      <point x="46" y="184" type="curve" smooth="yes"/>
      <point x="46" y="-47"/>
      <point x="211" y="-193"/>
    </contour>
    <contour>
      <point x="345" y="-8" type="curve" smooth="yes"/>
      <point x="420" y="-8"/>
      <point x="467" y="39"/>
      <point x="500" y="93" type="curve"/>
      <point x="518" y="87" type="line"/>
      <point x="521" y="215" type="line"/>
      <point x="501" y="134"/>
      <point x="443" y="63"/>
      <point x="402" y="63" type="curve" smooth="yes"/>
      <point x="371" y="63"/>
      <point x="357" y="87"/>
      <point x="357" y="136" type="curve" smooth="yes"/>
      <point x="357" y="210"/>
      <point x="404" y="397"/>
      <point x="494" y="397" type="curve" smooth="yes"/>
      <point x="519" y="397"/>
      <point x="553" y="375"/>
      <point x="578" y="347" type="curve"/>
      <point x="606" y="423" type="line"/>
      <point x="573" y="439"/>
      <point x="542" y="445"/>
      <point x="512" y="445" type="curve" smooth="yes"/>
      <point x="374" y="445"/>
      <point x="240" y="262"/>
      <point x="240" y="117" type="curve" smooth="yes"/>
      <point x="240" y="46"/>
      <point x="274" y="-8"/>
    </contour>
  </outline>
</glyph>
<glyph name="A" format="2">
  <advance width="696"/>
  <unicode hex="0041"/>
  <outline>
    <contour>
      <point x="-31" y="-1" type="curve"/>
      <point x="9" y="-1"/>
      <point x="41" y="1"/>
      <point x="86" y="1" type="curve" smooth="yes"/>
      <point x="131" y="1"/>
      <point x="175" y="-1"/>
      <point x="220" y="-1" type="curve"/>
      <point x="222" y="13"/>
      <point x="222" y="24"/>
      <point x="220" y="38" type="curve"/>
      <point x="157" y="44"/>
      <point x="132" y="47"/>
      <point x="132" y="76" type="curve" smooth="yes"/>
      <point x="132" y="89"/>
      <point x="137" y="104"/>
      <point x="147" y="130" type="curve" smooth="yes"/>
      <point x="303" y="547" type="line"/>
      <point x="289" y="547" type="line"/>
      <point x="450" y="113" type="line" smooth="yes"/>
      <point x="457" y="93"/>
      <point x="461" y="81"/>
      <point x="461" y="71" type="curve" smooth="yes"/>
      <point x="461" y="46"/>
      <point x="439" y="44"/>
      <point x="374" y="38" type="curve"/>
      <point x="372" y="24"/>
      <point x="372" y="13"/>
      <point x="374" y="-1" type="curve"/>
      <point x="425" y="-1"/>
      <point x="476" y="1"/>
      <point x="555" y="1" type="curve" smooth="yes"/>
      <point x="621" y="1"/>
      <point x="672" y="-1"/>
      <point x="719" y="-1" type="curve"/>
      <point x="720" y="13"/>
      <point x="720" y="25"/>
      <point x="719" y="38" type="curve"/>
      <point x="640" y="46"/>
      <point x="637" y="47"/>
      <point x="601" y="142" type="curve" smooth="yes"/>
      <point x="386" y="707" type="line"/>
      <point x="364" y="708"/>
      <point x="324" y="704"/>
      <point x="309" y="699" type="curve"/>
      <point x="90" y="145" type="line" smooth="yes"/>
      <point x="52" y="49"/>
      <point x="43" y="46"/>
      <point x="-31" y="38" type="curve"/>
      <point x="-33" y="25"/>
      <point x="-33" y="13"/>
    </contour>
    <contour>
      <point x="408" y="255" type="line"/>
      <point x="391" y="303" type="line"/>
      <point x="200" y="303" type="line"/>
      <point x="182" y="255" type="line"/>
    </contour>
  </outline>
</glyph>
<glyph name="B" format="2">
  <advance width="682"/>
  <unicode hex="0042"/>
  <outline>
    <contour>
      <point x="32" y="-1" type="curve"/>
      <point x="72" y="-1"/>
      <point x="141" y="1"/>
      <point x="200" y="1" type="curve" smooth="yes"/>
      <point x="262" y="1"/>
      <point x="307" y="-1"/>
      <point x="366" y="-1" type="curve" smooth="yes"/>
      <point x="416" y="-1"/>
      <point x="465" y="1"/>
      <point x="502" y="11" type="curve" smooth="yes"/>
      <point x="584" y="33"/>
      <point x="652" y="98"/>
      <point x="652" y="193" type="curve" smooth="yes"/>
      <point x="652" y="303"/>
      <point x="561" y="365"/>
      <point x="433" y="376" type="curve"/>
      <point x="433" y="377" type="line"/>
      <point x="559" y="404"/>
      <point x="602" y="465"/>
      <point x="602" y="540" type="curve" smooth="yes"/>
      <point x="602" y="622"/>
      <point x="545" y="701"/>
      <point x="354" y="701" type="curve" smooth="yes"/>
      <point x="326" y="701"/>
      <point x="261" y="699"/>
      <point x="201" y="699" type="curve" smooth="yes"/>
      <point x="143" y="699"/>
      <point x="70" y="701"/>
      <point x="31" y="701" type="curve"/>
      <point x="29" y="687"/>
      <point x="29" y="675"/>
      <point x="31" y="662" type="curve"/>
      <point x="119" y="654"/>
      <point x="124" y="653"/>
      <point x="124" y="569" type="curve" smooth="yes"/>
      <point x="124" y="118" type="line" smooth="yes"/>
      <point x="124" y="47"/>
      <point x="120" y="46"/>
      <point x="32" y="38" type="curve"/>
      <point x="30" y="24"/>
      <point x="30" y="13"/>
    </contour>
    <contour>
      <point x="352" y="46" type="curve" smooth="yes"/>
      <point x="331" y="46"/>
      <point x="300" y="48"/>
      <point x="276" y="57" type="curve"/>
      <point x="275" y="75"/>
      <point x="275" y="96"/>
      <point x="275" y="122" type="curve" smooth="yes"/>
      <point x="275" y="649" type="line"/>
      <point x="293" y="651"/>
      <point x="310" y="652"/>
      <point x="330" y="652" type="curve" smooth="yes"/>
      <point x="403" y="652"/>
      <point x="448" y="608"/>
      <point x="448" y="520" type="curve" smooth="yes"/>
      <point x="448" y="434"/>
      <point x="406" y="384"/>
      <point x="315" y="384" type="curve" smooth="yes"/>
      <point x="298" y="384"/>
      <point x="282" y="384"/>
      <point x="260" y="388" type="curve"/>
      <point x="260" y="329" type="line"/>
      <point x="284" y="333"/>
      <point x="315" y="334"/>
      <point x="338" y="334" type="curve" smooth="yes"/>
      <point x="436" y="334"/>
      <point x="488" y="285"/>
      <point x="488" y="192" type="curve" smooth="yes"/>
      <point x="488" y="96"/>
      <point x="439" y="46"/>
    </contour>
  </outline>
</glyph>
<glyph name="C" format="2">
  <advance width="714"/>
  <unicode hex="0043"/>
  <outline>
    <contour>
      <point x="412" y="-15" type="curve" smooth="yes"/>
      <point x="499" y="-15"/>
      <point x="570" y="7"/>
      <point x="644" y="28" type="curve"/>
      <point x="648" y="90"/>
      <point x="654" y="149"/>
      <point x="663" y="214" type="curve"/>
      <point x="649" y="216"/>
      <point x="635" y="216"/>
      <point x="621" y="215" type="curve"/>
      <point x="591" y="92"/>
      <point x="527" y="35"/>
      <point x="432" y="35" type="curve" smooth="yes"/>
      <point x="280" y="35"/>
      <point x="211" y="176"/>
      <point x="211" y="350" type="curve" smooth="yes"/>
      <point x="211" y="521"/>
      <point x="277" y="662"/>
      <point x="426" y="662" type="curve" smooth="yes"/>
      <point x="520" y="662"/>
      <point x="588" y="611"/>
      <point x="615" y="483" type="curve"/>
      <point x="628" y="482"/>
      <point x="641" y="483"/>
      <point x="656" y="485" type="curve"/>
      <point x="650" y="560"/>
      <point x="647" y="622"/>
      <point x="645" y="681" type="curve"/>
      <point x="639" y="680"/>
      <point x="631" y="679"/>
      <point x="624" y="679" type="curve" smooth="yes"/>
      <point x="603" y="679"/>
      <point x="584" y="685"/>
      <point x="558" y="691" type="curve" smooth="yes"/>
      <point x="499" y="704"/>
      <point x="469" y="711"/>
      <point x="414" y="711" type="curve" smooth="yes"/>
      <point x="183" y="711"/>
      <point x="44" y="557"/>
      <point x="44" y="342" type="curve" smooth="yes"/>
      <point x="44" y="132"/>
      <point x="173" y="-15"/>
    </contour>
  </outline>
</glyph>
<glyph name="D" format="2">
  <advance width="794"/>
  <unicode hex="0044"/>
  <outline>
    <contour>
      <point x="32" y="-1" type="curve"/>
      <point x="71" y="-1"/>
      <point x="143" y="1"/>
      <point x="199" y="1" type="curve" smooth="yes"/>
      <point x="256" y="1"/>
      <point x="326" y="-1"/>
      <point x="355" y="-1" type="curve" smooth="yes"/>
      <point x="598" y="-1"/>
      <point x="754" y="136"/>
      <point x="754" y="373" type="curve" smooth="yes"/>
      <point x="754" y="588"/>
      <point x="621" y="701"/>
      <point x="358" y="701" type="curve" smooth="yes"/>
      <point x="326" y="701"/>
      <point x="261" y="699"/>
      <point x="201" y="699" type="curve" smooth="yes"/>
      <point x="143" y="699"/>
      <point x="70" y="701"/>
      <point x="31" y="701" type="curve"/>
      <point x="29" y="687"/>
      <point x="29" y="675"/>
      <point x="31" y="662" type="curve"/>
      <point x="119" y="654"/>
      <point x="124" y="653"/>
      <point x="124" y="569" type="curve" smooth="yes"/>
      <point x="124" y="118" type="line" smooth="yes"/>
      <point x="124" y="47"/>
      <point x="120" y="46"/>
      <point x="32" y="38" type="curve"/>
      <point x="30" y="24"/>
      <point x="30" y="13"/>
    </contour>
    <contour>
      <point x="370" y="47" type="curve" smooth="yes"/>
      <point x="338" y="47"/>
      <point x="306" y="53"/>
      <point x="276" y="62" type="curve"/>
      <point x="275" y="80"/>
      <point x="275" y="102"/>
      <point x="275" y="128" type="curve" smooth="yes"/>
      <point x="275" y="648" type="line"/>
      <point x="291" y="650"/>
      <point x="323" y="653"/>
      <point x="349" y="653" type="curve" smooth="yes"/>
      <point x="513" y="653"/>
      <point x="588" y="530"/>
      <point x="588" y="349" type="curve" smooth="yes"/>
      <point x="588" y="180"/>
      <point x="518" y="47"/>
    </contour>
  </outline>
</glyph>
<glyph name="E" format="2">
  <advance width="658"/>
  <unicode hex="0045"/>
  <outline>
    <contour>
      <point x="30" y="-1" type="curve"/>
      <point x="74" y="-1"/>
      <point x="130" y="1"/>
      <point x="205" y="1" type="curve" smooth="yes"/>
      <point x="316" y="1"/>
      <point x="475" y="0"/>
      <point x="602" y="0" type="curve"/>
      <point x="608" y="44"/>
      <point x="616" y="100"/>
      <point x="631" y="183" type="curve"/>
      <point x="618" y="185"/>
      <point x="607" y="185"/>
      <point x="593" y="183" type="curve"/>
      <point x="569" y="135"/>
      <point x="546" y="104"/>
      <point x="526" y="85" type="curve" smooth="yes"/>
      <point x="499" y="61"/>
      <point x="460" y="49"/>
      <point x="401" y="49" type="curve" smooth="yes"/>
      <point x="275" y="49" type="line"/>
      <point x="273" y="58"/>
      <point x="273" y="86"/>
      <point x="273" y="131" type="curve" smooth="yes"/>
      <point x="273" y="651" type="line"/>
      <point x="387" y="651" type="line" smooth="yes"/>
      <point x="441" y="651"/>
      <point x="478" y="641"/>
      <point x="505" y="617" type="curve" smooth="yes"/>
      <point x="526" y="598"/>
      <point x="543" y="570"/>
      <point x="559" y="534" type="curve"/>
      <point x="572" y="533"/>
      <point x="583" y="533"/>
      <point x="597" y="534" type="curve"/>
      <point x="587" y="595"/>
      <point x="579" y="655"/>
      <point x="575" y="700" type="curve"/>
      <point x="478" y="700"/>
      <point x="334" y="699"/>
      <point x="212" y="699" type="curve" smooth="yes"/>
      <point x="132" y="699"/>
      <point x="77" y="701"/>
      <point x="29" y="701" type="curve"/>
      <point x="28" y="687"/>
      <point x="28" y="675"/>
      <point x="29" y="662" type="curve"/>
      <point x="118" y="654"/>
      <point x="122" y="653"/>
      <point x="122" y="569" type="curve" smooth="yes"/>
      <point x="122" y="118" type="line" smooth="yes"/>
      <point x="122" y="47"/>
      <point x="118" y="46"/>
      <point x="30" y="38" type="curve"/>
      <point x="28" y="24"/>
      <point x="28" y="13"/>
    </contour>
    <contour>
      <point x="438" y="229" type="curve"/>
      <point x="452" y="227"/>
      <point x="466" y="227"/>
      <point x="479" y="229" type="curve"/>
      <point x="477" y="297"/>
      <point x="477" y="340"/>
      <point x="477" y="361" type="curve" smooth="yes"/>
      <point x="477" y="380"/>
      <point x="477" y="411"/>
      <point x="479" y="491" type="curve"/>
      <point x="466" y="493"/>
      <point x="452" y="493"/>
      <point x="438" y="491" type="curve"/>
      <point x="424" y="397"/>
      <point x="404" y="388"/>
      <point x="316" y="388" type="curve" smooth="yes"/>
      <point x="253" y="388" type="line"/>
      <point x="253" y="337" type="line"/>
      <point x="325" y="337" type="line" smooth="yes"/>
      <point x="404" y="337"/>
      <point x="425" y="331"/>
    </contour>
  </outline>
</glyph>
<glyph name="F" format="2">
  <advance width="623"/>
  <unicode hex="0046"/>
  <outline>
    <contour>
      <point x="29" y="-1" type="curve"/>
      <point x="70" y="-1"/>
      <point x="139" y="1"/>
      <point x="197" y="1" type="curve" smooth="yes"/>
      <point x="255" y="1"/>
      <point x="325" y="-1"/>
      <point x="374" y="-1" type="curve"/>
      <point x="376" y="13"/>
      <point x="376" y="25"/>
      <point x="374" y="38" type="curve"/>
      <point x="322" y="42"/>
      <point x="297" y="45"/>
      <point x="285" y="57" type="curve" smooth="yes"/>
      <point x="273" y="70"/>
      <point x="273" y="91"/>
      <point x="273" y="131" type="curve" smooth="yes"/>
      <point x="273" y="651" type="line"/>
      <point x="393" y="651" type="line" smooth="yes"/>
      <point x="447" y="651"/>
      <point x="486" y="641"/>
      <point x="512" y="617" type="curve" smooth="yes"/>
      <point x="534" y="598"/>
      <point x="550" y="572"/>
      <point x="571" y="527" type="curve"/>
      <point x="581" y="524"/>
      <point x="599" y="524"/>
      <point x="610" y="527" type="curve"/>
      <point x="599" y="589"/>
      <point x="592" y="647"/>
      <point x="586" y="700" type="curve"/>
      <point x="494" y="700"/>
      <point x="329" y="699"/>
      <point x="209" y="699" type="curve" smooth="yes"/>
      <point x="127" y="699"/>
      <point x="75" y="701"/>
      <point x="29" y="701" type="curve"/>
      <point x="28" y="687"/>
      <point x="28" y="675"/>
      <point x="29" y="662" type="curve"/>
      <point x="118" y="654"/>
      <point x="122" y="653"/>
      <point x="122" y="569" type="curve" smooth="yes"/>
      <point x="122" y="118" type="line" smooth="yes"/>
      <point x="122" y="47"/>
      <point x="118" y="46"/>
      <point x="29" y="38" type="curve"/>
      <point x="28" y="24"/>
      <point x="28" y="13"/>
    </contour>
    <contour>
      <point x="445" y="220" type="curve"/>
      <point x="459" y="218"/>
      <point x="472" y="218"/>
      <point x="486" y="220" type="curve"/>
      <point x="484" y="293"/>
      <point x="484" y="330"/>
      <point x="484" y="352" type="curve" smooth="yes"/>
      <point x="484" y="372"/>
      <point x="484" y="401"/>
      <point x="486" y="482" type="curve"/>
      <point x="472" y="484"/>
      <point x="459" y="484"/>
      <point x="445" y="482" type="curve"/>
      <point x="431" y="388"/>
      <point x="411" y="379"/>
      <point x="329" y="379" type="curve" smooth="yes"/>
      <point x="253" y="379" type="line"/>
      <point x="253" y="327" type="line"/>
      <point x="338" y="327" type="line" smooth="yes"/>
      <point x="411" y="327"/>
      <point x="432" y="321"/>
    </contour>
  </outline>
</glyph>
<glyph name="G" format="2">
  <advance width="782"/>
  <unicode hex="0047"/>
  <outline>
    <contour>
      <point x="429" y="-15" type="curve" smooth="yes"/>
      <point x="532" y="-15"/>
      <point x="608" y="5"/>
      <point x="687" y="29" type="curve"/>
      <point x="587" y="71" type="line"/>
      <point x="553" y="47"/>
      <point x="511" y="35"/>
      <point x="450" y="35" type="curve" smooth="yes"/>
      <point x="283" y="35"/>
      <point x="211" y="173"/>
      <point x="211" y="350" type="curve" smooth="yes"/>
      <point x="211" y="523"/>
      <point x="278" y="662"/>
      <point x="444" y="662" type="curve" smooth="yes"/>
      <point x="546" y="662"/>
      <point x="616" y="612"/>
      <point x="643" y="483" type="curve"/>
      <point x="656" y="481"/>
      <point x="670" y="482"/>
      <point x="684" y="485" type="curve"/>
      <point x="678" y="560"/>
      <point x="675" y="622"/>
      <point x="673" y="681" type="curve"/>
      <point x="667" y="680"/>
      <point x="659" y="679"/>
      <point x="651" y="679" type="curve" smooth="yes"/>
      <point x="630" y="679"/>
      <point x="611" y="685"/>
      <point x="585" y="691" type="curve" smooth="yes"/>
      <point x="531" y="704"/>
      <point x="485" y="711"/>
      <point x="431" y="711" type="curve" smooth="yes"/>
      <point x="184" y="711"/>
      <point x="44" y="559"/>
      <point x="44" y="342" type="curve" smooth="yes"/>
      <point x="44" y="129"/>
      <point x="175" y="-15"/>
    </contour>
    <contour>
      <point x="687" y="29" type="line"/>
      <point x="683" y="60"/>
      <point x="680" y="96"/>
      <point x="680" y="147" type="curve" smooth="yes"/>
      <point x="680" y="183" type="line" smooth="yes"/>
      <point x="680" y="253"/>
      <point x="688" y="254"/>
      <point x="760" y="263" type="curve"/>
      <point x="761" y="276"/>
      <point x="761" y="288"/>
      <point x="760" y="302" type="curve"/>
      <point x="719" y="302"/>
      <point x="668" y="300"/>
      <point x="612" y="300" type="curve" smooth="yes"/>
      <point x="553" y="300"/>
      <point x="474" y="302"/>
      <point x="435" y="302" type="curve"/>
      <point x="433" y="288"/>
      <point x="433" y="276"/>
      <point x="435" y="263" type="curve"/>
      <point x="534" y="255"/>
      <point x="538" y="254"/>
      <point x="538" y="170" type="curve" smooth="yes"/>
      <point x="538" y="36" type="line"/>
    </contour>
  </outline>
</glyph>
<glyph name="H" format="2">
  <advance width="852"/>
  <unicode hex="0048"/>
  <outline>
    <contour>
      <point x="31" y="-1" type="curve"/>
      <point x="71" y="-1"/>
      <point x="138" y="1"/>
      <point x="195" y="1" type="curve" smooth="yes"/>
      <point x="253" y="1"/>
      <point x="326" y="-1"/>
      <point x="366" y="-1" type="curve"/>
      <point x="368" y="13"/>
      <point x="368" y="24"/>
      <point x="366" y="38" type="curve"/>
      <point x="278" y="46"/>
      <point x="274" y="47"/>
      <point x="274" y="122" type="curve" smooth="yes"/>
      <point x="274" y="573" type="line" smooth="yes"/>
      <point x="274" y="653"/>
      <point x="278" y="654"/>
      <point x="367" y="662" type="curve"/>
      <point x="369" y="676"/>
      <point x="369" y="687"/>
      <point x="367" y="701" type="curve"/>
      <point x="330" y="701"/>
      <point x="253" y="699"/>
      <point x="197" y="699" type="curve" smooth="yes"/>
      <point x="140" y="699"/>
      <point x="70" y="701"/>
      <point x="30" y="701" type="curve"/>
      <point x="28" y="687"/>
      <point x="28" y="675"/>
      <point x="30" y="662" type="curve"/>
      <point x="119" y="654"/>
      <point x="123" y="653"/>
      <point x="123" y="569" type="curve" smooth="yes"/>
      <point x="123" y="118" type="line" smooth="yes"/>
      <point x="123" y="47"/>
      <point x="118" y="46"/>
      <point x="31" y="38" type="curve"/>
      <point x="29" y="24"/>
      <point x="29" y="13"/>
    </contour>
    <contour>
      <point x="601" y="344" type="line"/>
      <point x="601" y="396" type="line"/>
      <point x="253" y="396" type="line"/>
      <point x="253" y="344" type="line"/>
    </contour>
    <contour>
      <point x="486" y="-1" type="curve"/>
      <point x="526" y="-1"/>
      <point x="592" y="1"/>
      <point x="650" y="1" type="curve" smooth="yes"/>
      <point x="708" y="1"/>
      <point x="780" y="-1"/>
      <point x="821" y="-1" type="curve"/>
      <point x="823" y="13"/>
      <point x="823" y="24"/>
      <point x="821" y="38" type="curve"/>
      <point x="732" y="46"/>
      <point x="728" y="47"/>
      <point x="728" y="122" type="curve" smooth="yes"/>
      <point x="728" y="573" type="line" smooth="yes"/>
      <point x="728" y="653"/>
      <point x="733" y="654"/>
      <point x="822" y="662" type="curve"/>
      <point x="823" y="676"/>
      <point x="823" y="687"/>
      <point x="822" y="701" type="curve"/>
      <point x="784" y="701"/>
      <point x="709" y="699"/>
      <point x="652" y="699" type="curve" smooth="yes"/>
      <point x="594" y="699"/>
      <point x="524" y="701"/>
      <point x="485" y="701" type="curve"/>
      <point x="483" y="687"/>
      <point x="483" y="675"/>
      <point x="485" y="662" type="curve"/>
      <point x="573" y="654"/>
      <point x="577" y="653"/>
      <point x="577" y="569" type="curve" smooth="yes"/>
      <point x="577" y="118" type="line" smooth="yes"/>
      <point x="577" y="47"/>
      <point x="573" y="46"/>
      <point x="486" y="38" type="curve"/>
      <point x="484" y="24"/>
      <point x="484" y="13"/>
    </contour>
  </outline>
</glyph>
<glyph name="I" format="2">
  <advance width="396"/>
  <unicode hex="0049"/>
  <outline>
    <contour>
      <point x="29" y="-1" type="curve"/>
      <point x="69" y="-1"/>
      <point x="136" y="1"/>
      <point x="194" y="1" type="curve" smooth="yes"/>
      <point x="253" y="1"/>
      <point x="325" y="-1"/>
      <point x="365" y="-1" type="curve"/>
      <point x="367" y="13"/>
      <point x="367" y="25"/>
      <point x="365" y="38" type="curve"/>
      <point x="276" y="46"/>
      <point x="272" y="47"/>
      <point x="272" y="122" type="curve" smooth="yes"/>
      <point x="272" y="573" type="line" smooth="yes"/>
      <point x="272" y="653"/>
      <point x="276" y="654"/>
      <point x="366" y="662" type="curve"/>
      <point x="368" y="676"/>
      <point x="368" y="687"/>
      <point x="366" y="701" type="curve"/>
      <point x="328" y="701"/>
      <point x="253" y="699"/>
      <point x="196" y="699" type="curve" smooth="yes"/>
      <point x="138" y="699"/>
      <point x="68" y="701"/>
      <point x="28" y="701" type="curve"/>
      <point x="26" y="687"/>
      <point x="26" y="675"/>
      <point x="28" y="662" type="curve"/>
      <point x="117" y="654"/>
      <point x="122" y="653"/>
      <point x="122" y="569" type="curve" smooth="yes"/>
      <point x="122" y="118" type="line" smooth="yes"/>
      <point x="122" y="47"/>
      <point x="118" y="46"/>
      <point x="29" y="38" type="curve"/>
      <point x="27" y="24"/>
      <point x="27" y="13"/>
    </contour>
  </outline>
</glyph>
<glyph name="J" format="2">
  <advance width="371"/>
  <unicode hex="004A"/>
  <outline>
    <contour>
      <point x="17" y="-242" type="curve" smooth="yes"/>
      <point x="91" y="-242"/>
      <point x="161" y="-206"/>
      <point x="209" y="-140" type="curve" smooth="yes"/>
      <point x="246" y="-88"/>
      <point x="268" y="-17"/>
      <point x="268" y="74" type="curve" smooth="yes"/>
      <point x="268" y="573" type="line" smooth="yes"/>
      <point x="268" y="653"/>
      <point x="272" y="654"/>
      <point x="361" y="662" type="curve"/>
      <point x="363" y="676"/>
      <point x="363" y="687"/>
      <point x="361" y="701" type="curve"/>
      <point x="323" y="701"/>
      <point x="250" y="699"/>
      <point x="191" y="699" type="curve" smooth="yes"/>
      <point x="133" y="699"/>
      <point x="63" y="701"/>
      <point x="24" y="701" type="curve"/>
      <point x="22" y="687"/>
      <point x="22" y="675"/>
      <point x="24" y="662" type="curve"/>
      <point x="113" y="654"/>
      <point x="117" y="653"/>
      <point x="117" y="569" type="curve" smooth="yes"/>
      <point x="117" y="26" type="line" smooth="yes"/>
      <point x="117" y="-69"/>
      <point x="121" y="-169"/>
      <point x="48" y="-194" type="curve"/>
      <point x="70" y="-197" type="line"/>
      <point x="47" y="-133"/>
      <point x="7" y="-110"/>
      <point x="-35" y="-110" type="curve" smooth="yes"/>
      <point x="-76" y="-110"/>
      <point x="-104" y="-133"/>
      <point x="-104" y="-170" type="curve" smooth="yes"/>
      <point x="-104" y="-218"/>
      <point x="-48" y="-242"/>
    </contour>
  </outline>
</glyph>
<glyph name="K" format="2">
  <advance width="735"/>
  <unicode hex="004B"/>
  <outline>
    <contour>
      <point x="29" y="-1" type="curve"/>
      <point x="69" y="-1"/>
      <point x="136" y="1"/>
      <point x="194" y="1" type="curve" smooth="yes"/>
      <point x="252" y="1"/>
      <point x="324" y="-1"/>
      <point x="364" y="-1" type="curve"/>
      <point x="366" y="13"/>
      <point x="366" y="25"/>
      <point x="364" y="38" type="curve"/>
      <point x="277" y="46"/>
      <point x="272" y="47"/>
      <point x="272" y="122" type="curve" smooth="yes"/>
      <point x="272" y="573" type="line" smooth="yes"/>
      <point x="272" y="653"/>
      <point x="276" y="654"/>
      <point x="365" y="662" type="curve"/>
      <point x="367" y="676"/>
      <point x="367" y="687"/>
      <point x="365" y="701" type="curve"/>
      <point x="327" y="701"/>
      <point x="252" y="699"/>
      <point x="196" y="699" type="curve" smooth="yes"/>
      <point x="138" y="699"/>
      <point x="68" y="701"/>
      <point x="28" y="701" type="curve"/>
      <point x="26" y="687"/>
      <point x="26" y="675"/>
      <point x="28" y="662" type="curve"/>
      <point x="117" y="654"/>
      <point x="122" y="653"/>
      <point x="122" y="569" type="curve" smooth="yes"/>
      <point x="122" y="118" type="line" smooth="yes"/>
      <point x="122" y="47"/>
      <point x="118" y="46"/>
      <point x="29" y="38" type="curve"/>
      <point x="27" y="24"/>
      <point x="27" y="13"/>
    </contour>
    <contour>
      <point x="744" y="-1" type="curve"/>
      <point x="746" y="13"/>
      <point x="746" y="25"/>
      <point x="744" y="38" type="curve"/>
      <point x="666" y="46"/>
      <point x="649" y="51"/>
      <point x="591" y="136" type="curve" smooth="yes"/>
      <point x="390" y="431" type="line"/>
      <point x="289" y="325" type="line"/>
      <point x="507" y="0" type="line"/>
      <point x="526" y="0"/>
      <point x="559" y="1"/>
      <point x="584" y="1" type="curve" smooth="yes"/>
      <point x="619" y="1"/>
      <point x="706" y="-1"/>
    </contour>
    <contour>
      <point x="332" y="349" type="line"/>
      <point x="538" y="563" type="line" smooth="yes"/>
      <point x="617" y="645"/>
      <point x="638" y="654"/>
      <point x="711" y="662" type="curve"/>
      <point x="712" y="675"/>
      <point x="712" y="687"/>
      <point x="711" y="701" type="curve"/>
      <point x="666" y="701"/>
      <point x="629" y="699"/>
      <point x="586" y="699" type="curve" smooth="yes"/>
      <point x="553" y="699"/>
      <point x="482" y="701"/>
      <point x="449" y="701" type="curve"/>
      <point x="447" y="687"/>
      <point x="447" y="676"/>
      <point x="449" y="662" type="curve"/>
      <point x="505" y="658"/>
      <point x="526" y="653"/>
      <point x="526" y="637" type="curve" smooth="yes"/>
      <point x="526" y="626"/>
      <point x="516" y="614"/>
      <point x="490" y="586" type="curve" smooth="yes"/>
      <point x="259" y="342" type="line"/>
      <point x="259" y="268" type="line"/>
    </contour>
  </outline>
</glyph>
<glyph name="L" format="2">
  <advance width="632"/>
  <unicode hex="004C"/>
  <outline>
    <contour>
      <point x="28" y="-1" type="curve"/>
      <point x="68" y="-1"/>
      <point x="138" y="1"/>
      <point x="195" y="1" type="curve" smooth="yes"/>
      <point x="324" y="1"/>
      <point x="464" y="0"/>
      <point x="594" y="0" type="curve"/>
      <point x="600" y="44"/>
      <point x="610" y="110"/>
      <point x="626" y="195" type="curve"/>
      <point x="613" y="197"/>
      <point x="602" y="197"/>
      <point x="588" y="195" type="curve"/>
      <point x="564" y="145"/>
      <point x="540" y="106"/>
      <point x="519" y="86" type="curve" smooth="yes"/>
      <point x="492" y="61"/>
      <point x="452" y="49"/>
      <point x="396" y="49" type="curve" smooth="yes"/>
      <point x="273" y="49" type="line"/>
      <point x="271" y="58"/>
      <point x="271" y="86"/>
      <point x="271" y="131" type="curve" smooth="yes"/>
      <point x="271" y="573" type="line" smooth="yes"/>
      <point x="271" y="653"/>
      <point x="275" y="654"/>
      <point x="364" y="662" type="curve"/>
      <point x="366" y="676"/>
      <point x="366" y="687"/>
      <point x="364" y="701" type="curve"/>
      <point x="326" y="701"/>
      <point x="250" y="699"/>
      <point x="194" y="699" type="curve" smooth="yes"/>
      <point x="136" y="699"/>
      <point x="67" y="701"/>
      <point x="27" y="701" type="curve"/>
      <point x="25" y="687"/>
      <point x="25" y="675"/>
      <point x="27" y="662" type="curve"/>
      <point x="115" y="654"/>
      <point x="120" y="653"/>
      <point x="120" y="569" type="curve" smooth="yes"/>
      <point x="120" y="118" type="line" smooth="yes"/>
      <point x="120" y="47"/>
      <point x="116" y="46"/>
      <point x="28" y="38" type="curve"/>
      <point x="26" y="24"/>
      <point x="26" y="13"/>
    </contour>
  </outline>
</glyph>
<glyph name="M" format="2">
  <advance width="980"/>
  <unicode hex="004D"/>
  <outline>
    <contour>
      <point x="301" y="700" type="line"/>
      <point x="273" y="699"/>
      <point x="232" y="699"/>
      <point x="188" y="699" type="curve" smooth="yes"/>
      <point x="122" y="699"/>
      <point x="76" y="701"/>
      <point x="31" y="701" type="curve"/>
      <point x="30" y="687"/>
      <point x="30" y="677"/>
      <point x="31" y="663" type="curve"/>
      <point x="128" y="654"/>
      <point x="134" y="653"/>
      <point x="131" y="583" type="curve" smooth="yes"/>
      <point x="113" y="130" type="line" smooth="yes"/>
      <point x="110" y="51"/>
      <point x="108" y="48"/>
      <point x="14" y="37" type="curve"/>
      <point x="12" y="24"/>
      <point x="12" y="13"/>
      <point x="14" y="-1" type="curve"/>
      <point x="30" y="-1"/>
      <point x="118" y="1"/>
      <point x="141" y="1" type="curve" smooth="yes"/>
      <point x="162" y="1"/>
      <point x="244" y="-1"/>
      <point x="264" y="-1" type="curve"/>
      <point x="266" y="13"/>
      <point x="266" y="23"/>
      <point x="264" y="37" type="curve"/>
      <point x="169" y="49"/>
      <point x="168" y="51"/>
      <point x="170" y="117" type="curve" smooth="yes"/>
      <point x="184" y="612" type="line"/>
      <point x="174" y="612" type="line"/>
      <point x="417" y="-4" type="line"/>
      <point x="431" y="-4"/>
      <point x="453" y="-4"/>
      <point x="465" y="1" type="curve"/>
      <point x="715" y="615" type="line"/>
      <point x="705" y="615" type="line"/>
      <point x="715" y="118" type="line" smooth="yes"/>
      <point x="716" y="47"/>
      <point x="711" y="47"/>
      <point x="620" y="38" type="curve"/>
      <point x="618" y="24"/>
      <point x="618" y="13"/>
      <point x="620" y="-1" type="curve"/>
      <point x="642" y="-1"/>
      <point x="755" y="1"/>
      <point x="791" y="1" type="curve" smooth="yes"/>
      <point x="830" y="1"/>
      <point x="940" y="-1"/>
      <point x="961" y="-1" type="curve"/>
      <point x="963" y="13"/>
      <point x="963" y="24"/>
      <point x="961" y="38" type="curve"/>
      <point x="863" y="46"/>
      <point x="864" y="47"/>
      <point x="862" y="131" type="curve" smooth="yes"/>
      <point x="851" y="583" type="line" smooth="yes"/>
      <point x="850" y="654"/>
      <point x="855" y="654"/>
      <point x="950" y="663" type="curve"/>
      <point x="952" y="677"/>
      <point x="952" y="687"/>
      <point x="950" y="701" type="curve"/>
      <point x="929" y="701"/>
      <point x="819" y="699"/>
      <point x="783" y="699" type="curve" smooth="yes"/>
      <point x="762" y="699"/>
      <point x="725" y="699"/>
      <point x="697" y="700" type="curve"/>
      <point x="485" y="186" type="line"/>
      <point x="503" y="186" type="line"/>
    </contour>
  </outline>
</glyph>
<glyph name="N" format="2">
  <advance width="786"/>
  <unicode hex="004E"/>
  <outline>
    <contour>
      <point x="607" y="-7" type="line"/>
      <point x="627" y="-8"/>
      <point x="658" y="-6"/>
      <point x="674" y="-2" type="curve"/>
      <point x="674" y="564" type="line" smooth="yes"/>
      <point x="674" y="646"/>
      <point x="680" y="650"/>
      <point x="777" y="662" type="curve"/>
      <point x="778" y="675"/>
      <point x="778" y="687"/>
      <point x="777" y="700" type="curve"/>
      <point x="738" y="700"/>
      <point x="679" y="698"/>
      <point x="643" y="698" type="curve" smooth="yes"/>
      <point x="608" y="698"/>
      <point x="546" y="700"/>
      <point x="508" y="700" type="curve"/>
      <point x="506" y="686"/>
      <point x="506" y="675"/>
      <point x="508" y="661" type="curve"/>
      <point x="562" y="657"/>
      <point x="589" y="648"/>
      <point x="603" y="633" type="curve" smooth="yes"/>
      <point x="617" y="619"/>
      <point x="617" y="594"/>
      <point x="617" y="551" type="curve" smooth="yes"/>
      <point x="617" y="198" type="line"/>
      <point x="635" y="198" type="line"/>
      <point x="241" y="700" type="line"/>
      <point x="218" y="699"/>
      <point x="184" y="699"/>
      <point x="164" y="699" type="curve" smooth="yes"/>
      <point x="118" y="699"/>
      <point x="53" y="700"/>
      <point x="13" y="701" type="curve"/>
      <point x="11" y="687"/>
      <point x="11" y="676"/>
      <point x="13" y="662" type="curve"/>
      <point x="112" y="653"/>
      <point x="119" y="651"/>
      <point x="119" y="560" type="curve" smooth="yes"/>
      <point x="119" y="125" type="line" smooth="yes"/>
      <point x="119" y="49"/>
      <point x="111" y="47"/>
      <point x="20" y="38" type="curve"/>
      <point x="18" y="24"/>
      <point x="18" y="13"/>
      <point x="20" y="-1" type="curve"/>
      <point x="60" y="-1"/>
      <point x="111" y="1"/>
      <point x="147" y="1" type="curve" smooth="yes"/>
      <point x="185" y="1"/>
      <point x="237" y="-1"/>
      <point x="277" y="-1" type="curve"/>
      <point x="278" y="13"/>
      <point x="278" y="25"/>
      <point x="277" y="38" type="curve"/>
      <point x="228" y="42"/>
      <point x="201" y="46"/>
      <point x="189" y="60" type="curve"/>
      <point x="177" y="72"/>
      <point x="176" y="95"/>
      <point x="176" y="138" type="curve" smooth="yes"/>
      <point x="176" y="556" type="line"/>
      <point x="161" y="556" type="line"/>
    </contour>
  </outline>
</glyph>
<glyph name="O" format="2">
  <advance width="813"/>
  <unicode hex="004F"/>
  <outline>
    <contour>
      <point x="400" y="-15" type="curve" smooth="yes"/>
      <point x="624" y="-15"/>
      <point x="769" y="138"/>
      <point x="769" y="354" type="curve" smooth="yes"/>
      <point x="769" y="562"/>
      <point x="632" y="711"/>
      <point x="412" y="711" type="curve" smooth="yes"/>
      <point x="188" y="711"/>
      <point x="44" y="556"/>
      <point x="44" y="342" type="curve" smooth="yes"/>
      <point x="44" y="135"/>
      <point x="177" y="-15"/>
    </contour>
    <contour>
      <point x="411" y="34" type="curve" smooth="yes"/>
      <point x="271" y="34"/>
      <point x="211" y="182"/>
      <point x="211" y="349" type="curve" smooth="yes"/>
      <point x="211" y="518"/>
      <point x="270" y="662"/>
      <point x="408" y="662" type="curve" smooth="yes"/>
      <point x="545" y="662"/>
      <point x="602" y="519"/>
      <point x="602" y="344" type="curve" smooth="yes"/>
      <point x="602" y="172"/>
      <point x="547" y="34"/>
    </contour>
  </outline>
</glyph>
<glyph name="P" format="2">
  <advance width="633"/>
  <unicode hex="0050"/>
  <outline>
    <contour>
      <point x="27" y="-1" type="curve"/>
      <point x="68" y="-1"/>
      <point x="137" y="1"/>
      <point x="195" y="1" type="curve" smooth="yes"/>
      <point x="254" y="1"/>
      <point x="324" y="-1"/>
      <point x="373" y="-1" type="curve"/>
      <point x="375" y="13"/>
      <point x="375" y="25"/>
      <point x="373" y="38" type="curve"/>
      <point x="319" y="42"/>
      <point x="295" y="45"/>
      <point x="283" y="57" type="curve" smooth="yes"/>
      <point x="271" y="70"/>
      <point x="271" y="91"/>
      <point x="271" y="131" type="curve" smooth="yes"/>
      <point x="271" y="651" type="line"/>
      <point x="288" y="654"/>
      <point x="308" y="655"/>
      <point x="324" y="655" type="curve" smooth="yes"/>
      <point x="400" y="655"/>
      <point x="446" y="601"/>
      <point x="446" y="507" type="curve" smooth="yes"/>
      <point x="446" y="411"/>
      <point x="400" y="354"/>
      <point x="324" y="354" type="curve" smooth="yes"/>
      <point x="300" y="354"/>
      <point x="276" y="358"/>
      <point x="255" y="363" type="curve"/>
      <point x="255" y="314" type="line"/>
      <point x="291" y="306"/>
      <point x="319" y="305"/>
      <point x="344" y="305" type="curve" smooth="yes"/>
      <point x="511" y="305"/>
      <point x="610" y="387"/>
      <point x="610" y="516" type="curve" smooth="yes"/>
      <point x="610" y="636"/>
      <point x="512" y="702"/>
      <point x="352" y="702" type="curve" smooth="yes"/>
      <point x="312" y="702"/>
      <point x="241" y="699"/>
      <point x="191" y="699" type="curve" smooth="yes"/>
      <point x="137" y="699"/>
      <point x="65" y="701"/>
      <point x="27" y="701" type="curve"/>
      <point x="25" y="687"/>
      <point x="25" y="675"/>
      <point x="27" y="662" type="curve"/>
      <point x="116" y="654"/>
      <point x="120" y="653"/>
      <point x="120" y="569" type="curve" smooth="yes"/>
      <point x="120" y="118" type="line" smooth="yes"/>
      <point x="120" y="47"/>
      <point x="116" y="46"/>
      <point x="27" y="38" type="curve"/>
      <point x="26" y="24"/>
      <point x="26" y="13"/>
    </contour>
  </outline>
</glyph>
<glyph name="Q" format="2">
  <advance width="805"/>
  <unicode hex="0051"/>
  <outline>
    <contour>
      <point x="673" y="-249" type="curve" smooth="yes"/>
      <point x="742" y="-249"/>
      <point x="807" y="-220"/>
      <point x="860" y="-153" type="curve"/>
      <point x="856" y="-142"/>
      <point x="849" y="-131"/>
      <point x="842" y="-123" type="curve"/>
      <point x="810" y="-141"/>
      <point x="782" y="-146"/>
      <point x="745" y="-146" type="curve" smooth="yes"/>
      <point x="679" y="-146"/>
      <point x="611" y="-125"/>
      <point x="469" y="-10" type="curve"/>
      <point x="469" y="3" type="line"/>
      <point x="454" y="-8" type="line"/>
      <point x="641" y="14"/>
      <point x="765" y="152"/>
      <point x="765" y="354" type="curve" smooth="yes"/>
      <point x="765" y="562"/>
      <point x="628" y="711"/>
      <point x="407" y="711" type="curve" smooth="yes"/>
      <point x="184" y="711"/>
      <point x="40" y="556"/>
      <point x="40" y="340" type="curve" smooth="yes"/>
      <point x="40" y="170"/>
      <point x="130" y="28"/>
      <point x="323" y="-9" type="curve" smooth="yes"/>
      <point x="373" y="-18"/>
      <point x="394" y="-21"/>
      <point x="417" y="-47" type="curve" smooth="yes"/>
      <point x="431" y="-63"/>
      <point x="441" y="-82"/>
      <point x="452" y="-100" type="curve" smooth="yes"/>
      <point x="496" y="-167"/>
      <point x="547" y="-249"/>
    </contour>
    <contour>
      <point x="406" y="34" type="curve" smooth="yes"/>
      <point x="267" y="34"/>
      <point x="207" y="182"/>
      <point x="207" y="349" type="curve" smooth="yes"/>
      <point x="207" y="518"/>
      <point x="266" y="662"/>
      <point x="403" y="662" type="curve" smooth="yes"/>
      <point x="541" y="662"/>
      <point x="598" y="519"/>
      <point x="598" y="344" type="curve" smooth="yes"/>
      <point x="598" y="172"/>
      <point x="543" y="34"/>
    </contour>
  </outline>
</glyph>
<glyph name="R" format="2">
  <advance width="711"/>
  <unicode hex="0052"/>
  <outline>
    <contour>
      <point x="27" y="-1" type="curve"/>
      <point x="67" y="-1"/>
      <point x="137" y="1"/>
      <point x="194" y="1" type="curve" smooth="yes"/>
      <point x="253" y="1"/>
      <point x="321" y="-1"/>
      <point x="369" y="-1" type="curve"/>
      <point x="371" y="13"/>
      <point x="371" y="25"/>
      <point x="369" y="38" type="curve"/>
      <point x="275" y="45"/>
      <point x="271" y="45"/>
      <point x="271" y="131" type="curve" smooth="yes"/>
      <point x="271" y="651" type="line"/>
      <point x="288" y="654"/>
      <point x="308" y="655"/>
      <point x="324" y="655" type="curve" smooth="yes"/>
      <point x="400" y="655"/>
      <point x="450" y="601"/>
      <point x="450" y="513" type="curve" smooth="yes"/>
      <point x="450" y="416"/>
      <point x="397" y="362"/>
      <point x="299" y="362" type="curve" smooth="yes"/>
      <point x="285" y="362"/>
      <point x="270" y="363"/>
      <point x="253" y="368" type="curve"/>
      <point x="253" y="316" type="line"/>
      <point x="270" y="314" type="line"/>
      <point x="291" y="310"/>
      <point x="305" y="304"/>
      <point x="327" y="271" type="curve" smooth="yes"/>
      <point x="503" y="0" type="line"/>
      <point x="524" y="0"/>
      <point x="540" y="1"/>
      <point x="574" y="1" type="curve" smooth="yes"/>
      <point x="621" y="1"/>
      <point x="691" y="-1"/>
      <point x="734" y="-1" type="curve"/>
      <point x="736" y="13"/>
      <point x="736" y="25"/>
      <point x="734" y="38" type="curve"/>
      <point x="659" y="46"/>
      <point x="644" y="48"/>
      <point x="581" y="142" type="curve" smooth="yes"/>
      <point x="475" y="299" type="line" smooth="yes"/>
      <point x="462" y="318"/>
      <point x="449" y="330"/>
      <point x="438" y="339" type="curve"/>
      <point x="438" y="354" type="line"/>
      <point x="425" y="339" type="line"/>
      <point x="554" y="365"/>
      <point x="611" y="438"/>
      <point x="611" y="519" type="curve" smooth="yes"/>
      <point x="611" y="635"/>
      <point x="512" y="702"/>
      <point x="352" y="702" type="curve" smooth="yes"/>
      <point x="312" y="702"/>
      <point x="240" y="699"/>
      <point x="191" y="699" type="curve" smooth="yes"/>
      <point x="136" y="699"/>
      <point x="64" y="701"/>
      <point x="26" y="701" type="curve"/>
      <point x="24" y="687"/>
      <point x="24" y="675"/>
      <point x="26" y="662" type="curve"/>
      <point x="115" y="654"/>
      <point x="120" y="653"/>
      <point x="120" y="569" type="curve" smooth="yes"/>
      <point x="120" y="118" type="line" smooth="yes"/>
      <point x="120" y="47"/>
      <point x="116" y="46"/>
      <point x="27" y="38" type="curve"/>
      <point x="25" y="24"/>
      <point x="25" y="13"/>
    </contour>
  </outline>
</glyph>
<glyph name="S" format="2">
  <advance width="561"/>
  <unicode hex="0053"/>
  <outline>
    <contour>
      <point x="271" y="-14" type="curve" smooth="yes"/>
      <point x="397" y="-14"/>
      <point x="524" y="59"/>
      <point x="524" y="199" type="curve" smooth="yes"/>
      <point x="524" y="335"/>
      <point x="398" y="386"/>
      <point x="312" y="423" type="curve" smooth="yes"/>
      <point x="205" y="468"/>
      <point x="167" y="503"/>
      <point x="167" y="561" type="curve" smooth="yes"/>
      <point x="167" y="624"/>
      <point x="219" y="664"/>
      <point x="294" y="664" type="curve" smooth="yes"/>
      <point x="340" y="664"/>
      <point x="373" y="651"/>
      <point x="396" y="625" type="curve" smooth="yes"/>
      <point x="419" y="599"/>
      <point x="437" y="560"/>
      <point x="453" y="506" type="curve"/>
      <point x="466" y="504"/>
      <point x="478" y="505"/>
      <point x="493" y="508" type="curve"/>
      <point x="488" y="578"/>
      <point x="485" y="640"/>
      <point x="483" y="699" type="curve"/>
      <point x="476" y="697"/>
      <point x="463" y="697"/>
      <point x="459" y="697" type="curve" smooth="yes"/>
      <point x="448" y="697"/>
      <point x="435" y="697"/>
      <point x="391" y="703" type="curve" smooth="yes"/>
      <point x="358" y="708"/>
      <point x="324" y="711"/>
      <point x="298" y="711" type="curve" smooth="yes"/>
      <point x="159" y="711"/>
      <point x="49" y="633"/>
      <point x="49" y="501" type="curve" smooth="yes"/>
      <point x="49" y="365"/>
      <point x="167" y="314"/>
      <point x="248" y="279" type="curve" smooth="yes"/>
      <point x="315" y="250"/>
      <point x="395" y="220"/>
      <point x="395" y="140" type="curve" smooth="yes"/>
      <point x="395" y="67"/>
      <point x="333" y="33"/>
      <point x="267" y="33" type="curve" smooth="yes"/>
      <point x="167" y="33"/>
      <point x="109" y="100"/>
      <point x="84" y="211" type="curve"/>
      <point x="72" y="212"/>
      <point x="58" y="212"/>
      <point x="45" y="210" type="curve"/>
      <point x="50" y="130"/>
      <point x="53" y="64"/>
      <point x="54" y="7" type="curve"/>
      <point x="63" y="7"/>
      <point x="110" y="4"/>
      <point x="156" y="-4" type="curve" smooth="yes"/>
      <point x="211" y="-14"/>
      <point x="262" y="-14"/>
    </contour>
  </outline>
</glyph>
<glyph name="U" format="2">
  <advance width="773"/>
  <unicode hex="0055"/>
  <outline>
    <contour>
      <point x="389" y="-11" type="curve" smooth="yes"/>
      <point x="574" y="-11"/>
      <point x="672" y="88"/>
      <point x="672" y="271" type="curve" smooth="yes"/>
      <point x="672" y="579" type="line" smooth="yes"/>
      <point x="672" y="652"/>
      <point x="677" y="653"/>
      <point x="767" y="662" type="curve"/>
      <point x="769" y="676"/>
      <point x="769" y="687"/>
      <point x="767" y="701" type="curve"/>
      <point x="727" y="701"/>
      <point x="673" y="699"/>
      <point x="644" y="699" type="curve" smooth="yes"/>
      <point x="613" y="699"/>
      <point x="558" y="701"/>
      <point x="521" y="701" type="curve"/>
      <point x="519" y="687"/>
      <point x="519" y="675"/>
      <point x="521" y="662" type="curve"/>
      <point x="611" y="653"/>
      <point x="616" y="653"/>
      <point x="616" y="566" type="curve" smooth="yes"/>
      <point x="616" y="285" type="line" smooth="yes"/>
      <point x="616" y="128"/>
      <point x="554" y="53"/>
      <point x="433" y="53" type="curve" smooth="yes"/>
      <point x="319" y="53"/>
      <point x="257" y="136"/>
      <point x="257" y="275" type="curve" smooth="yes"/>
      <point x="257" y="573" type="line" smooth="yes"/>
      <point x="257" y="653"/>
      <point x="261" y="654"/>
      <point x="350" y="662" type="curve"/>
      <point x="352" y="676"/>
      <point x="352" y="687"/>
      <point x="350" y="701" type="curve"/>
      <point x="312" y="701"/>
      <point x="237" y="699"/>
      <point x="180" y="699" type="curve" smooth="yes"/>
      <point x="122" y="699"/>
      <point x="53" y="701"/>
      <point x="13" y="701" type="curve"/>
      <point x="11" y="687"/>
      <point x="11" y="676"/>
      <point x="13" y="662" type="curve"/>
      <point x="102" y="654"/>
      <point x="106" y="653"/>
      <point x="106" y="569" type="curve" smooth="yes"/>
      <point x="106" y="254" type="line" smooth="yes"/>
      <point x="106" y="72"/>
      <point x="221" y="-11"/>
    </contour>
  </outline>
</glyph>
<glyph name="V" format="2">
  <advance width="694"/>
  <unicode hex="0056"/>
  <outline>
    <contour>
      <point x="310" y="-8" type="line"/>
      <point x="333" y="-9"/>
      <point x="367" y="-4"/>
      <point x="386" y="2" type="curve"/>
      <point x="607" y="556" type="line" smooth="yes"/>
      <point x="645" y="652"/>
      <point x="655" y="654"/>
      <point x="737" y="662" type="curve"/>
      <point x="739" y="675"/>
      <point x="739" y="687"/>
      <point x="737" y="701" type="curve"/>
      <point x="690" y="701"/>
      <point x="658" y="699"/>
      <point x="613" y="699" type="curve" smooth="yes"/>
      <point x="573" y="699"/>
      <point x="516" y="701"/>
      <point x="469" y="701" type="curve"/>
      <point x="467" y="687"/>
      <point x="467" y="676"/>
      <point x="469" y="662" type="curve"/>
      <point x="542" y="656"/>
      <point x="567" y="652"/>
      <point x="567" y="624" type="curve" smooth="yes"/>
      <point x="567" y="611"/>
      <point x="561" y="595"/>
      <point x="552" y="569" type="curve"/>
      <point x="391" y="152" type="line"/>
      <point x="406" y="152" type="line"/>
      <point x="242" y="587" type="line" smooth="yes"/>
      <point x="235" y="606"/>
      <point x="230" y="619"/>
      <point x="230" y="630" type="curve" smooth="yes"/>
      <point x="230" y="653"/>
      <point x="255" y="656"/>
      <point x="322" y="662" type="curve"/>
      <point x="324" y="676"/>
      <point x="324" y="687"/>
      <point x="322" y="701" type="curve"/>
      <point x="273" y="701"/>
      <point x="215" y="699"/>
      <point x="139" y="699" type="curve" smooth="yes"/>
      <point x="73" y="699"/>
      <point x="19" y="701"/>
      <point x="-28" y="701" type="curve"/>
      <point x="-30" y="687"/>
      <point x="-30" y="675"/>
      <point x="-28" y="662" type="curve"/>
      <point x="50" y="654"/>
      <point x="56" y="653"/>
      <point x="92" y="557" type="curve" smooth="yes"/>
    </contour>
  </outline>
</glyph>
<glyph name="W" format="2">
  <advance width="1036"/>
  <unicode hex="0057"/>
  <outline>
    <contour>
      <point x="645" y="-8" type="line"/>
      <point x="667" y="-8"/>
      <point x="706" y="-4"/>
      <point x="721" y="0" type="curve"/>
      <point x="937" y="554" type="line" smooth="yes"/>
      <point x="974" y="652"/>
      <point x="984" y="654"/>
      <point x="1067" y="662" type="curve"/>
      <point x="1069" y="675"/>
      <point x="1069" y="687"/>
      <point x="1067" y="701" type="curve"/>
      <point x="1020" y="701"/>
      <point x="988" y="699"/>
      <point x="943" y="699" type="curve" smooth="yes"/>
      <point x="903" y="699"/>
      <point x="848" y="701"/>
      <point x="801" y="701" type="curve"/>
      <point x="799" y="687"/>
      <point x="799" y="676"/>
      <point x="801" y="662" type="curve"/>
      <point x="872" y="656"/>
      <point x="896" y="652"/>
      <point x="896" y="625" type="curve" smooth="yes"/>
      <point x="896" y="612"/>
      <point x="891" y="596"/>
      <point x="881" y="570" type="curve" smooth="yes"/>
      <point x="728" y="156" type="line"/>
      <point x="740" y="157" type="line"/>
      <point x="602" y="587" type="line" smooth="yes"/>
      <point x="596" y="607"/>
      <point x="590" y="620"/>
      <point x="590" y="630" type="curve" smooth="yes"/>
      <point x="590" y="653"/>
      <point x="615" y="656"/>
      <point x="666" y="662" type="curve"/>
      <point x="668" y="676"/>
      <point x="668" y="687"/>
      <point x="666" y="701" type="curve"/>
      <point x="631" y="701"/>
      <point x="574" y="699"/>
      <point x="499" y="699" type="curve" smooth="yes"/>
      <point x="434" y="699"/>
      <point x="395" y="701"/>
      <point x="355" y="701" type="curve"/>
      <point x="353" y="687"/>
      <point x="354" y="675"/>
      <point x="355" y="662" type="curve"/>
      <point x="418" y="654"/>
      <point x="419" y="654"/>
      <point x="452" y="558" type="curve" smooth="yes"/>
    </contour>
    <contour>
      <point x="298" y="-7" type="line"/>
      <point x="320" y="-7"/>
      <point x="359" y="-4"/>
      <point x="374" y="1" type="curve"/>
      <point x="531" y="374" type="line"/>
      <point x="504" y="446" type="line"/>
      <point x="381" y="154" type="line"/>
      <point x="394" y="156" type="line"/>
      <point x="248" y="587" type="line" smooth="yes"/>
      <point x="241" y="607"/>
      <point x="236" y="620"/>
      <point x="236" y="631" type="curve" smooth="yes"/>
      <point x="236" y="653"/>
      <point x="260" y="656"/>
      <point x="300" y="662" type="curve"/>
      <point x="302" y="676"/>
      <point x="302" y="687"/>
      <point x="300" y="701" type="curve"/>
      <point x="266" y="701"/>
      <point x="218" y="699"/>
      <point x="143" y="699" type="curve" smooth="yes"/>
      <point x="78" y="699"/>
      <point x="23" y="701"/>
      <point x="-23" y="701" type="curve"/>
      <point x="-25" y="687"/>
      <point x="-25" y="675"/>
      <point x="-23" y="662" type="curve"/>
      <point x="56" y="654"/>
      <point x="64" y="653"/>
      <point x="98" y="558" type="curve" smooth="yes"/>
    </contour>
  </outline>
</glyph>
<glyph name="X" format="2">
  <advance width="723"/>
  <unicode hex="0058"/>
  <outline>
    <contour>
      <point x="367" y="-1" type="curve"/>
      <point x="410" y="-1"/>
      <point x="487" y="1"/>
      <point x="551" y="1" type="curve" smooth="yes"/>
      <point x="617" y="1"/>
      <point x="669" y="-1"/>
      <point x="718" y="-1" type="curve"/>
      <point x="720" y="13"/>
      <point x="720" y="25"/>
      <point x="718" y="38" type="curve"/>
      <point x="648" y="46"/>
      <point x="633" y="53"/>
      <point x="577" y="141" type="curve" smooth="yes"/>
      <point x="291" y="591" type="line" smooth="yes"/>
      <point x="277" y="612"/>
      <point x="271" y="624"/>
      <point x="271" y="634" type="curve" smooth="yes"/>
      <point x="271" y="651"/>
      <point x="290" y="657"/>
      <point x="339" y="662" type="curve"/>
      <point x="340" y="676"/>
      <point x="340" y="687"/>
      <point x="339" y="701" type="curve"/>
      <point x="297" y="701"/>
      <point x="223" y="699"/>
      <point x="166" y="699" type="curve" smooth="yes"/>
      <point x="96" y="699"/>
      <point x="39" y="701"/>
      <point x="-9" y="701" type="curve"/>
      <point x="-11" y="687"/>
      <point x="-11" y="675"/>
      <point x="-9" y="662" type="curve"/>
      <point x="60" y="654"/>
      <point x="75" y="646"/>
      <point x="131" y="559" type="curve" smooth="yes"/>
      <point x="420" y="108" type="line" smooth="yes"/>
      <point x="432" y="89"/>
      <point x="440" y="76"/>
      <point x="440" y="66" type="curve" smooth="yes"/>
      <point x="440" y="49"/>
      <point x="418" y="43"/>
      <point x="367" y="38" type="curve"/>
      <point x="365" y="24"/>
      <point x="365" y="13"/>
    </contour>
    <contour>
      <point x="136" y="148" type="line" smooth="yes"/>
      <point x="69" y="60"/>
      <point x="53" y="46"/>
      <point x="-25" y="38" type="curve"/>
      <point x="-27" y="25"/>
      <point x="-27" y="13"/>
      <point x="-25" y="-1" type="curve"/>
      <point x="5" y="-1"/>
      <point x="46" y="1"/>
      <point x="89" y="1" type="curve" smooth="yes"/>
      <point x="117" y="1"/>
      <point x="210" y="-1"/>
      <point x="237" y="-1" type="curve"/>
      <point x="239" y="13"/>
      <point x="239" y="24"/>
      <point x="237" y="38" type="curve"/>
      <point x="185" y="44"/>
      <point x="159" y="50"/>
      <point x="159" y="69" type="curve" smooth="yes"/>
      <point x="159" y="79"/>
      <point x="166" y="93"/>
      <point x="181" y="112" type="curve" smooth="yes"/>
      <point x="320" y="296" type="line"/>
      <point x="289" y="345" type="line"/>
    </contour>
    <contour>
      <point x="545" y="552" type="line" smooth="yes"/>
      <point x="614" y="641"/>
      <point x="629" y="654"/>
      <point x="706" y="662" type="curve"/>
      <point x="708" y="675"/>
      <point x="708" y="687"/>
      <point x="706" y="701" type="curve"/>
      <point x="683" y="701"/>
      <point x="636" y="699"/>
      <point x="593" y="699" type="curve" smooth="yes"/>
      <point x="565" y="699"/>
      <point x="478" y="701"/>
      <point x="450" y="701" type="curve"/>
      <point x="448" y="687"/>
      <point x="448" y="676"/>
      <point x="450" y="662" type="curve"/>
      <point x="499" y="655"/>
      <point x="524" y="650"/>
      <point x="524" y="631" type="curve" smooth="yes"/>
      <point x="524" y="621"/>
      <point x="517" y="608"/>
      <point x="503" y="589" type="curve" smooth="yes"/>
      <point x="377" y="423" type="line"/>
      <point x="407" y="375" type="line"/>
    </contour>
  </outline>
</glyph>
<glyph name="Y" format="2">
  <advance width="639"/>
  <unicode hex="0059"/>
  <outline>
    <contour>
      <point x="370" y="257" type="line"/>
      <point x="538" y="556" type="line" smooth="yes"/>
      <point x="589" y="646"/>
      <point x="592" y="654"/>
      <point x="674" y="662" type="curve"/>
      <point x="675" y="675"/>
      <point x="675" y="687"/>
      <point x="674" y="701" type="curve"/>
      <point x="629" y="701"/>
      <point x="591" y="699"/>
      <point x="548" y="699" type="curve" smooth="yes"/>
      <point x="508" y="699"/>
      <point x="463" y="701"/>
      <point x="414" y="701" type="curve"/>
      <point x="412" y="687"/>
      <point x="412" y="676"/>
      <point x="414" y="662" type="curve"/>
      <point x="480" y="655"/>
      <point x="508" y="650"/>
      <point x="508" y="627" type="curve" smooth="yes"/>
      <point x="508" y="614"/>
      <point x="500" y="601"/>
      <point x="490" y="582" type="curve" smooth="yes"/>
      <point x="360" y="340" type="line"/>
      <point x="374" y="340" type="line"/>
      <point x="247" y="587" type="line" smooth="yes"/>
      <point x="237" y="607"/>
      <point x="229" y="620"/>
      <point x="229" y="633" type="curve" smooth="yes"/>
      <point x="229" y="653"/>
      <point x="250" y="656"/>
      <point x="297" y="662" type="curve"/>
      <point x="299" y="676"/>
      <point x="299" y="687"/>
      <point x="297" y="701" type="curve"/>
      <point x="262" y="701"/>
      <point x="211" y="699"/>
      <point x="141" y="699" type="curve" smooth="yes"/>
      <point x="69" y="699"/>
      <point x="20" y="701"/>
      <point x="-28" y="701" type="curve"/>
      <point x="-29" y="687"/>
      <point x="-29" y="675"/>
      <point x="-28" y="662" type="curve"/>
      <point x="47" y="654"/>
      <point x="46" y="650"/>
      <point x="95" y="558" type="curve" smooth="yes"/>
      <point x="257" y="257" type="line"/>
    </contour>
    <contour>
      <point x="148" y="-1" type="curve"/>
      <point x="189" y="-1"/>
      <point x="258" y="1"/>
      <point x="315" y="1" type="curve" smooth="yes"/>
      <point x="374" y="1"/>
      <point x="445" y="-1"/>
      <point x="487" y="-1" type="curve"/>
      <point x="489" y="13"/>
      <point x="489" y="25"/>
      <point x="487" y="38" type="curve"/>
      <point x="394" y="46"/>
      <point x="392" y="48"/>
      <point x="392" y="131" type="curve" smooth="yes"/>
      <point x="392" y="306" type="line"/>
      <point x="241" y="306" type="line"/>
      <point x="241" y="118" type="line" smooth="yes"/>
      <point x="241" y="47"/>
      <point x="237" y="46"/>
      <point x="148" y="38" type="curve"/>
      <point x="146" y="24"/>
      <point x="146" y="13"/>
    </contour>
  </outline>
</glyph>
<glyph name="Z" format="2">
  <advance width="658"/>
  <unicode hex="005A"/>
  <outline>
    <contour>
      <point x="619" y="679" type="line"/>
      <point x="619" y="687"/>
      <point x="617" y="694"/>
      <point x="615" y="700" type="curve"/>
      <point x="580" y="700"/>
      <point x="525" y="697"/>
      <point x="364" y="697" type="curve" smooth="yes"/>
      <point x="259" y="697"/>
      <point x="166" y="697"/>
      <point x="79" y="702" type="curve"/>
      <point x="73" y="638"/>
      <point x="65" y="576"/>
      <point x="54" y="510" type="curve"/>
      <point x="68" y="508"/>
      <point x="81" y="508"/>
      <point x="95" y="510" type="curve"/>
      <point x="110" y="558"/>
      <point x="130" y="595"/>
      <point x="151" y="615" type="curve" smooth="yes"/>
      <point x="176" y="639"/>
      <point x="211" y="650"/>
      <point x="263" y="650" type="curve" smooth="yes"/>
      <point x="448" y="650" type="line"/>
      <point x="436" y="670" type="line"/>
      <point x="22" y="19" type="line"/>
      <point x="22" y="13"/>
      <point x="23" y="6"/>
      <point x="26" y="-1" type="curve"/>
      <point x="69" y="-1"/>
      <point x="115" y="1"/>
      <point x="280" y="1" type="curve" smooth="yes"/>
      <point x="479" y="1"/>
      <point x="579" y="0"/>
      <point x="599" y="0" type="curve"/>
      <point x="604" y="56"/>
      <point x="616" y="125"/>
      <point x="631" y="208" type="curve"/>
      <point x="618" y="210"/>
      <point x="606" y="210"/>
      <point x="593" y="208" type="curve"/>
      <point x="571" y="156"/>
      <point x="547" y="114"/>
      <point x="527" y="93" type="curve" smooth="yes"/>
      <point x="498" y="63"/>
      <point x="455" y="50"/>
      <point x="390" y="50" type="curve" smooth="yes"/>
      <point x="193" y="50" type="line"/>
      <point x="206" y="31" type="line"/>
    </contour>
  </outline>
</glyph>
<glyph name="bracketleft" format="2">
  <advance width="412"/>
  <unicode hex="005B"/>
  <outline>
    <contour>
      <point x="342" y="-133" type="line"/>
      <point x="199" y="-133" type="line"/>
      <point x="199" y="703" type="line"/>
      <point x="342" y="703" type="line"/>
      <point x="342" y="753" type="line"/>
      <point x="89" y="753" type="line"/>
      <point x="89" y="-183" type="line"/>
      <point x="342" y="-183" type="line"/>
    </contour>
  </outline>
</glyph>
<glyph name="backslash" format="2">
  <advance width="386"/>
  <unicode hex="005C"/>
  <outline>
    <contour>
      <point x="413" y="-177" type="line"/>
      <point x="86" y="748" type="line"/>
      <point x="13" y="748" type="line"/>
      <point x="341" y="-177" type="line"/>
    </contour>
  </outline>
</glyph>
<glyph name="bracketright" format="2">
  <advance width="420"/>
  <unicode hex="005D"/>
  <outline>
    <contour>
      <point x="327" y="-183" type="line"/>
      <point x="327" y="753" type="line"/>
      <point x="74" y="753" type="line"/>
      <point x="74" y="703" type="line"/>
      <point x="217" y="703" type="line"/>
      <point x="217" y="-133" type="line"/>
      <point x="74" y="-133" type="line"/>
      <point x="74" y="-183" type="line"/>
    </contour>
  </outline>
</glyph>
<glyph name="asciicircum" format="2">
  <advance width="567"/>
  <unicode hex="005E"/>
  <outline>
    <contour>
      <point x="64" y="349" type="line"/>
      <point x="77" y="340"/>
      <point x="99" y="330"/>
      <point x="113" y="325" type="curve"/>
      <point x="296" y="659" type="line"/>
      <point x="270" y="659" type="line"/>
      <point x="454" y="326" type="line"/>
      <point x="468" y="331"/>
      <point x="489" y="341"/>
      <point x="503" y="349" type="curve"/>
      <point x="305" y="711" type="line"/>
      <point x="294" y="712"/>
      <point x="273" y="712"/>
      <point x="262" y="711" type="curve"/>
    </contour>
  </outline>
</glyph>
<glyph name="underscore" format="2">
  <advance width="394"/>
  <unicode hex="005F"/>
  <outline>
    <contour>
      <point x="-35" y="-137" type="line"/>
      <point x="429" y="-137" type="line"/>
      <point x="429" y="-84" type="line"/>
      <point x="-35" y="-84" type="line"/>
    </contour>
  </outline>
</glyph>
<glyph name="a" format="2">
  <advance width="520"/>
  <unicode hex="0061"/>
  <outline>
    <contour>
      <point x="396" y="-11" type="curve" smooth="yes"/>
      <point x="443" y="-11"/>
      <point x="490" y="6"/>
      <point x="523" y="42" type="curve"/>
      <point x="522" y="54"/>
      <point x="519" y="62"/>
      <point x="513" y="71" type="curve"/>
      <point x="488" y="63"/>
      <point x="471" y="59"/>
      <point x="458" y="59" type="curve" smooth="yes"/>
      <point x="438" y="59"/>
      <point x="430" y="70"/>
      <point x="430" y="91" type="curve"/>
      <point x="431" y="156"/>
      <point x="435" y="309"/>
      <point x="435" y="365" type="curve" smooth="yes"/>
      <point x="435" y="456"/>
      <point x="367" y="499"/>
      <point x="286" y="499" type="curve" smooth="yes"/>
      <point x="184" y="499"/>
      <point x="43" y="442"/>
      <point x="43" y="374" type="curve" smooth="yes"/>
      <point x="43" y="344"/>
      <point x="64" y="325"/>
      <point x="96" y="325" type="curve" smooth="yes"/>
      <point x="147" y="325"/>
      <point x="190" y="392"/>
      <point x="186" y="450" type="curve"/>
      <point x="178" y="435" type="line"/>
      <point x="188" y="440"/>
      <point x="203" y="444"/>
      <point x="222" y="444" type="curve" smooth="yes"/>
      <point x="263" y="444"/>
      <point x="290" y="419"/>
      <point x="290" y="376" type="curve" smooth="yes"/>
      <point x="290" y="319"/>
      <point x="289" y="280"/>
      <point x="289" y="242" type="curve"/>
      <point x="287" y="72" type="line"/>
      <point x="285" y="64" type="line"/>
      <point x="295" y="14"/>
      <point x="332" y="-11"/>
    </contour>
    <contour>
      <point x="154" y="-12" type="curve" smooth="yes"/>
      <point x="215" y="-12"/>
      <point x="259" y="9"/>
      <point x="300" y="60" type="curve"/>
      <point x="301" y="85" type="line"/>
      <point x="271" y="71"/>
      <point x="254" y="64"/>
      <point x="233" y="64" type="curve" smooth="yes"/>
      <point x="203" y="64"/>
      <point x="177" y="86"/>
      <point x="177" y="126" type="curve" smooth="yes"/>
      <point x="177" y="184"/>
      <point x="219" y="216"/>
      <point x="311" y="233" type="curve"/>
      <point x="309" y="276" type="line"/>
      <point x="120" y="252"/>
      <point x="27" y="199"/>
      <point x="27" y="102" type="curve" smooth="yes"/>
      <point x="27" y="30"/>
      <point x="81" y="-12"/>
    </contour>
  </outline>
</glyph>
<glyph name="b" format="2">
  <advance width="606"/>
  <unicode hex="0062"/>
  <outline>
    <contour>
      <point x="306" y="-12" type="curve" smooth="yes"/>
      <point x="441" y="-12"/>
      <point x="572" y="91"/>
      <point x="572" y="277" type="curve" smooth="yes"/>
      <point x="572" y="395"/>
      <point x="502" y="499"/>
      <point x="376" y="499" type="curve" smooth="yes"/>
      <point x="314" y="499"/>
      <point x="256" y="474"/>
      <point x="206" y="407" type="curve"/>
      <point x="209" y="351" type="line"/>
      <point x="234" y="397"/>
      <point x="272" y="414"/>
      <point x="310" y="414" type="curve" smooth="yes"/>
      <point x="386" y="414"/>
      <point x="424" y="332"/>
      <point x="424" y="224" type="curve" smooth="yes"/>
      <point x="424" y="118"/>
      <point x="386" y="36"/>
      <point x="313" y="36" type="curve" smooth="yes"/>
      <point x="276" y="36"/>
      <point x="244" y="56"/>
      <point x="215" y="96" type="curve"/>
      <point x="126" y="46" type="line"/>
      <point x="182" y="8"/>
      <point x="238" y="-12"/>
    </contour>
    <contour>
      <point x="109" y="-7" type="curve"/>
      <point x="125" y="9"/>
      <point x="152" y="28"/>
      <point x="163" y="41" type="curve"/>
      <point x="223" y="63" type="line"/>
      <point x="223" y="392" type="line"/>
      <point x="224" y="410" type="line"/>
      <point x="224" y="644" type="line" smooth="yes"/>
      <point x="224" y="682"/>
      <point x="224" y="718"/>
      <point x="226" y="752" type="curve"/>
      <point x="204" y="760" type="line"/>
      <point x="136" y="738"/>
      <point x="71" y="723"/>
      <point x="-6" y="714" type="curve"/>
      <point x="-8" y="700"/>
      <point x="-8" y="693"/>
      <point x="-6" y="680" type="curve"/>
      <point x="34" y="676"/>
      <point x="58" y="671"/>
      <point x="69" y="657" type="curve" smooth="yes"/>
      <point x="79" y="643"/>
      <point x="80" y="620"/>
      <point x="80" y="589" type="curve" smooth="yes"/>
      <point x="80" y="114" type="line" smooth="yes"/>
      <point x="80" y="60"/>
      <point x="80" y="21"/>
      <point x="78" y="-3" type="curve"/>
      <point x="85" y="-5"/>
      <point x="100" y="-7"/>
    </contour>
  </outline>
</glyph>
<glyph name="c" format="2">
  <advance width="498"/>
  <unicode hex="0063"/>
  <outline>
    <contour>
      <point x="274" y="-12" type="curve" smooth="yes"/>
      <point x="357" y="-12"/>
      <point x="433" y="23"/>
      <point x="480" y="83" type="curve"/>
      <point x="476" y="94"/>
      <point x="469" y="102"/>
      <point x="461" y="110" type="curve"/>
      <point x="420" y="80"/>
      <point x="377" y="70"/>
      <point x="338" y="70" type="curve" smooth="yes"/>
      <point x="233" y="70"/>
      <point x="177" y="164"/>
      <point x="177" y="273" type="curve" smooth="yes"/>
      <point x="177" y="390"/>
      <point x="227" y="455"/>
      <point x="292" y="455" type="curve" smooth="yes"/>
      <point x="314" y="455"/>
      <point x="330" y="451"/>
      <point x="342" y="444" type="curve"/>
      <point x="335" y="457" type="line"/>
      <point x="333" y="378"/>
      <point x="367" y="334"/>
      <point x="415" y="334" type="curve" smooth="yes"/>
      <point x="449" y="334"/>
      <point x="472" y="356"/>
      <point x="472" y="392" type="curve" smooth="yes"/>
      <point x="472" y="455"/>
      <point x="396" y="499"/>
      <point x="299" y="499" type="curve" smooth="yes"/>
      <point x="150" y="499"/>
      <point x="33" y="388"/>
      <point x="33" y="235" type="curve" smooth="yes"/>
      <point x="33" y="97"/>
      <point x="121" y="-12"/>
    </contour>
  </outline>
</glyph>
<glyph name="d" format="2">
  <advance width="608"/>
  <unicode hex="0064"/>
  <outline>
    <contour>
      <point x="408" y="-13" type="line"/>
      <point x="483" y="5"/>
      <point x="526" y="11"/>
      <point x="594" y="20" type="curve"/>
      <point x="596" y="33"/>
      <point x="596" y="42"/>
      <point x="594" y="54" type="curve"/>
      <point x="522" y="65"/>
      <point x="522" y="75"/>
      <point x="522" y="151" type="curve" smooth="yes"/>
      <point x="522" y="644" type="line" smooth="yes"/>
      <point x="522" y="682"/>
      <point x="522" y="718"/>
      <point x="524" y="752" type="curve"/>
      <point x="502" y="760" type="line"/>
      <point x="434" y="738"/>
      <point x="369" y="723"/>
      <point x="292" y="714" type="curve"/>
      <point x="290" y="700"/>
      <point x="290" y="693"/>
      <point x="292" y="680" type="curve"/>
      <point x="331" y="676"/>
      <point x="354" y="671"/>
      <point x="365" y="658" type="curve" smooth="yes"/>
      <point x="377" y="644"/>
      <point x="378" y="621"/>
      <point x="378" y="589" type="curve" smooth="yes"/>
      <point x="378" y="468" type="line"/>
      <point x="379" y="429" type="line"/>
      <point x="379" y="80" type="line"/>
      <point x="386" y="-5" type="line"/>
    </contour>
    <contour>
      <point x="232" y="-12" type="curve" smooth="yes"/>
      <point x="303" y="-12"/>
      <point x="350" y="22"/>
      <point x="391" y="75" type="curve"/>
      <point x="389" y="138" type="line"/>
      <point x="372" y="98"/>
      <point x="341" y="70"/>
      <point x="296" y="70" type="curve" smooth="yes"/>
      <point x="216" y="70"/>
      <point x="178" y="155"/>
      <point x="178" y="269" type="curve" smooth="yes"/>
      <point x="178" y="376"/>
      <point x="213" y="449"/>
      <point x="288" y="449" type="curve" smooth="yes"/>
      <point x="330" y="449"/>
      <point x="365" y="424"/>
      <point x="389" y="381" type="curve"/>
      <point x="398" y="482" type="line"/>
      <point x="371" y="493"/>
      <point x="332" y="499"/>
      <point x="295" y="499" type="curve" smooth="yes"/>
      <point x="157" y="499"/>
      <point x="30" y="401"/>
      <point x="30" y="221" type="curve" smooth="yes"/>
      <point x="30" y="94"/>
      <point x="106" y="-12"/>
    </contour>
  </outline>
</glyph>
<glyph name="e" format="2">
  <advance width="520"/>
  <unicode hex="0065"/>
  <outline>
    <contour>
      <point x="274" y="-12" type="curve" smooth="yes"/>
      <point x="360" y="-12"/>
      <point x="437" y="23"/>
      <point x="485" y="85" type="curve"/>
      <point x="479" y="96"/>
      <point x="473" y="104"/>
      <point x="465" y="112" type="curve"/>
      <point x="425" y="81"/>
      <point x="380" y="71"/>
      <point x="341" y="71" type="curve" smooth="yes"/>
      <point x="233" y="71"/>
      <point x="176" y="164"/>
      <point x="176" y="278" type="curve" smooth="yes"/>
      <point x="176" y="398"/>
      <point x="208" y="455"/>
      <point x="264" y="455" type="curve" smooth="yes"/>
      <point x="308" y="455"/>
      <point x="331" y="408"/>
      <point x="331" y="343" type="curve" smooth="yes"/>
      <point x="331" y="331"/>
      <point x="330" y="321"/>
      <point x="327" y="305" type="curve"/>
      <point x="353" y="321" type="line"/>
      <point x="163" y="316" type="line"/>
      <point x="163" y="273" type="line"/>
      <point x="479" y="271" type="line"/>
      <point x="480" y="279"/>
      <point x="481" y="290"/>
      <point x="481" y="303" type="curve" smooth="yes"/>
      <point x="481" y="414"/>
      <point x="403" y="499"/>
      <point x="277" y="499" type="curve" smooth="yes"/>
      <point x="128" y="499"/>
      <point x="33" y="379"/>
      <point x="33" y="235" type="curve" smooth="yes"/>
      <point x="33" y="97"/>
      <point x="119" y="-12"/>
    </contour>
  </outline>
</glyph>
<glyph name="f" format="2">
  <advance width="361"/>
  <unicode hex="0066"/>
  <outline>
    <contour>
      <point x="19" y="-1" type="curve"/>
      <point x="64" y="-1"/>
      <point x="91" y="1"/>
      <point x="167" y="1" type="curve" smooth="yes"/>
      <point x="243" y="1"/>
      <point x="296" y="-1"/>
      <point x="340" y="-1" type="curve"/>
      <point x="342" y="14"/>
      <point x="342" y="23"/>
      <point x="340" y="37" type="curve"/>
      <point x="260" y="41"/>
      <point x="243" y="43"/>
      <point x="243" y="121" type="curve" smooth="yes"/>
      <point x="243" y="573" type="line" smooth="yes"/>
      <point x="243" y="667"/>
      <point x="267" y="705"/>
      <point x="318" y="705" type="curve" smooth="yes"/>
      <point x="333" y="705"/>
      <point x="343" y="701"/>
      <point x="355" y="696" type="curve"/>
      <point x="344" y="712" type="line"/>
      <point x="346" y="652"/>
      <point x="379" y="610"/>
      <point x="427" y="610" type="curve" smooth="yes"/>
      <point x="463" y="610"/>
      <point x="486" y="631"/>
      <point x="486" y="666" type="curve" smooth="yes"/>
      <point x="486" y="726"/>
      <point x="410" y="755"/>
      <point x="338" y="755" type="curve" smooth="yes"/>
      <point x="282" y="755"/>
      <point x="222" y="734"/>
      <point x="174" y="692" type="curve" smooth="yes"/>
      <point x="111" y="636"/>
      <point x="101" y="570"/>
      <point x="98" y="516" type="curve" smooth="yes"/>
      <point x="96" y="477"/>
      <point x="88" y="472"/>
      <point x="12" y="461" type="curve"/>
      <point x="10" y="450"/>
      <point x="10" y="440"/>
      <point x="12" y="427" type="curve"/>
      <point x="97" y="427" type="line"/>
      <point x="97" y="111" type="line" smooth="yes"/>
      <point x="97" y="45"/>
      <point x="90" y="41"/>
      <point x="19" y="37" type="curve"/>
      <point x="17" y="23"/>
      <point x="17" y="13"/>
    </contour>
    <contour>
      <point x="367" y="427" type="line"/>
      <point x="369" y="444"/>
      <point x="369" y="465"/>
      <point x="367" y="480" type="curve"/>
      <point x="231" y="480" type="line"/>
      <point x="231" y="427" type="line"/>
    </contour>
  </outline>
</glyph>
<glyph name="g" format="2">
  <advance width="569"/>
  <unicode hex="0067"/>
  <outline>
    <contour>
      <point x="238" y="-255" type="curve" smooth="yes"/>
      <point x="390" y="-255"/>
      <point x="535" y="-184"/>
      <point x="535" y="-53" type="curve" smooth="yes"/>
      <point x="535" y="43"/>
      <point x="463" y="93"/>
      <point x="337" y="93" type="curve" smooth="yes"/>
      <point x="318" y="93"/>
      <point x="247" y="92"/>
      <point x="205" y="92" type="curve" smooth="yes"/>
      <point x="168" y="92"/>
      <point x="152" y="100"/>
      <point x="152" y="123" type="curve" smooth="yes"/>
      <point x="152" y="144"/>
      <point x="163" y="158"/>
      <point x="186" y="175" type="curve"/>
      <point x="147" y="191" type="line"/>
      <point x="87" y="150"/>
      <point x="52" y="106"/>
      <point x="52" y="58" type="curve" smooth="yes"/>
      <point x="52" y="0"/>
      <point x="98" y="-44"/>
      <point x="202" y="-44" type="curve" smooth="yes"/>
      <point x="227" y="-44"/>
      <point x="288" y="-43"/>
      <point x="309" y="-43" type="curve" smooth="yes"/>
      <point x="408" y="-43"/>
      <point x="433" y="-70"/>
      <point x="433" y="-110" type="curve" smooth="yes"/>
      <point x="433" y="-176"/>
      <point x="349" y="-203"/>
      <point x="277" y="-203" type="curve" smooth="yes"/>
      <point x="206" y="-203"/>
      <point x="136" y="-175"/>
      <point x="136" y="-107" type="curve" smooth="yes"/>
      <point x="136" y="-73"/>
      <point x="145" y="-50"/>
      <point x="168" y="-29" type="curve"/>
      <point x="133" y="-22" type="line"/>
      <point x="76" y="-51"/>
      <point x="23" y="-80"/>
      <point x="23" y="-139" type="curve" smooth="yes"/>
      <point x="23" y="-212"/>
      <point x="100" y="-255"/>
    </contour>
    <contour>
      <point x="263" y="150" type="curve" smooth="yes"/>
      <point x="388" y="150"/>
      <point x="480" y="214"/>
      <point x="480" y="327" type="curve" smooth="yes"/>
      <point x="480" y="429"/>
      <point x="402" y="499"/>
      <point x="273" y="499" type="curve" smooth="yes"/>
      <point x="146" y="499"/>
      <point x="48" y="430"/>
      <point x="48" y="319" type="curve" smooth="yes"/>
      <point x="48" y="214"/>
      <point x="138" y="150"/>
    </contour>
    <contour>
      <point x="265" y="193" type="curve" smooth="yes"/>
      <point x="219" y="193"/>
      <point x="192" y="243"/>
      <point x="192" y="329" type="curve" smooth="yes"/>
      <point x="192" y="414"/>
      <point x="218" y="456"/>
      <point x="262" y="456" type="curve" smooth="yes"/>
      <point x="308" y="456"/>
      <point x="335" y="408"/>
      <point x="335" y="323" type="curve" smooth="yes"/>
      <point x="335" y="238"/>
      <point x="308" y="193"/>
    </contour>
    <contour>
      <point x="531" y="395" type="curve" smooth="yes"/>
      <point x="559" y="395"/>
      <point x="584" y="417"/>
      <point x="584" y="448" type="curve" smooth="yes"/>
      <point x="584" y="479"/>
      <point x="560" y="499"/>
      <point x="523" y="499" type="curve" smooth="yes"/>
      <point x="483" y="499"/>
      <point x="440" y="479"/>
      <point x="405" y="449" type="curve"/>
      <point x="431" y="421" type="line"/>
      <point x="447" y="433"/>
      <point x="459" y="441"/>
      <point x="479" y="445" type="curve"/>
      <point x="484" y="413"/>
      <point x="507" y="395"/>
    </contour>
  </outline>
</glyph>
<glyph name="h" format="2">
  <advance width="633"/>
  <unicode hex="0068"/>
  <outline>
    <contour>
      <point x="10" y="-1" type="curve"/>
      <point x="50" y="-1"/>
      <point x="94" y="1"/>
      <point x="160" y="1" type="curve" smooth="yes"/>
      <point x="227" y="1"/>
      <point x="272" y="-1"/>
      <point x="296" y="-1" type="curve"/>
      <point x="298" y="13"/>
      <point x="298" y="24"/>
      <point x="296" y="37" type="curve"/>
      <point x="252" y="41"/>
      <point x="233" y="47"/>
      <point x="233" y="107" type="curve" smooth="yes"/>
      <point x="233" y="644" type="line" smooth="yes"/>
      <point x="233" y="682"/>
      <point x="233" y="718"/>
      <point x="235" y="752" type="curve"/>
      <point x="214" y="760" type="line"/>
      <point x="144" y="737"/>
      <point x="80" y="723"/>
      <point x="3" y="714" type="curve"/>
      <point x="1" y="700"/>
      <point x="1" y="693"/>
      <point x="3" y="680" type="curve"/>
      <point x="44" y="675"/>
      <point x="67" y="670"/>
      <point x="78" y="656" type="curve" smooth="yes"/>
      <point x="88" y="643"/>
      <point x="88" y="620"/>
      <point x="88" y="583" type="curve" smooth="yes"/>
      <point x="88" y="104" type="line" smooth="yes"/>
      <point x="88" y="48"/>
      <point x="71" y="41"/>
      <point x="10" y="37" type="curve"/>
      <point x="8" y="24"/>
      <point x="8" y="13"/>
    </contour>
    <contour>
      <point x="342" y="-1" type="curve"/>
      <point x="377" y="-1"/>
      <point x="408" y="1"/>
      <point x="473" y="1" type="curve" smooth="yes"/>
      <point x="544" y="1"/>
      <point x="585" y="-1"/>
      <point x="627" y="-1" type="curve"/>
      <point x="629" y="13"/>
      <point x="629" y="24"/>
      <point x="627" y="37" type="curve"/>
      <point x="564" y="41"/>
      <point x="550" y="47"/>
      <point x="550" y="107" type="curve" smooth="yes"/>
      <point x="550" y="339" type="line" smooth="yes"/>
      <point x="550" y="436"/>
      <point x="506" y="499"/>
      <point x="409" y="499" type="curve" smooth="yes"/>
      <point x="349" y="499"/>
      <point x="274" y="472"/>
      <point x="207" y="394" type="curve"/>
      <point x="208" y="350" type="line"/>
      <point x="251" y="397"/>
      <point x="289" y="416"/>
      <point x="330" y="416" type="curve" smooth="yes"/>
      <point x="381" y="416"/>
      <point x="405" y="386"/>
      <point x="405" y="320" type="curve" smooth="yes"/>
      <point x="405" y="111" type="line" smooth="yes"/>
      <point x="405" y="46"/>
      <point x="391" y="41"/>
      <point x="342" y="37" type="curve"/>
      <point x="340" y="24"/>
      <point x="340" y="13"/>
    </contour>
  </outline>
</glyph>
<glyph name="i" format="2">
  <advance width="330"/>
  <unicode hex="0069"/>
  <outline>
    <contour>
      <point x="18" y="-1" type="curve"/>
      <point x="59" y="-1"/>
      <point x="104" y="1"/>
      <point x="168" y="1" type="curve" smooth="yes"/>
      <point x="236" y="1"/>
      <point x="282" y="-1"/>
      <point x="317" y="-1" type="curve"/>
      <point x="319" y="13"/>
      <point x="319" y="24"/>
      <point x="317" y="37" type="curve"/>
      <point x="260" y="41"/>
      <point x="240" y="46"/>
      <point x="240" y="114" type="curve" smooth="yes"/>
      <point x="240" y="388" type="line" smooth="yes"/>
      <point x="240" y="420"/>
      <point x="241" y="453"/>
      <point x="242" y="495" type="curve"/>
      <point x="220" y="503" type="line"/>
      <point x="160" y="483"/>
      <point x="93" y="467"/>
      <point x="17" y="457" type="curve"/>
      <point x="15" y="444"/>
      <point x="15" y="436"/>
      <point x="17" y="424" type="curve"/>
      <point x="96" y="414"/>
      <point x="96" y="405"/>
      <point x="96" y="327" type="curve" smooth="yes"/>
      <point x="96" y="104" type="line" smooth="yes"/>
      <point x="96" y="48"/>
      <point x="80" y="41"/>
      <point x="18" y="37" type="curve"/>
      <point x="16" y="24"/>
      <point x="16" y="13"/>
    </contour>
    <contour>
      <point x="162" y="582" type="curve" smooth="yes"/>
      <point x="214" y="582"/>
      <point x="248" y="622"/>
      <point x="248" y="665" type="curve" smooth="yes"/>
      <point x="248" y="713"/>
      <point x="211" y="749"/>
      <point x="164" y="749" type="curve" smooth="yes"/>
      <point x="116" y="749"/>
      <point x="79" y="713"/>
      <point x="79" y="664" type="curve" smooth="yes"/>
      <point x="79" y="619"/>
      <point x="114" y="582"/>
    </contour>
  </outline>
</glyph>
<glyph name="j" format="2">
  <advance width="309"/>
  <unicode hex="006A"/>
  <outline>
    <contour>
      <point x="0" y="-255" type="curve" smooth="yes"/>
      <point x="71" y="-255"/>
      <point x="124" y="-228"/>
      <point x="167" y="-182" type="curve" smooth="yes"/>
      <point x="219" y="-129"/>
      <point x="242" y="-54"/>
      <point x="242" y="51" type="curve" smooth="yes"/>
      <point x="242" y="145"/>
      <point x="240" y="313"/>
      <point x="240" y="387" type="curve" smooth="yes"/>
      <point x="240" y="421"/>
      <point x="241" y="455"/>
      <point x="242" y="495" type="curve"/>
      <point x="220" y="503" type="line"/>
      <point x="159" y="482"/>
      <point x="93" y="467"/>
      <point x="18" y="457" type="curve"/>
      <point x="16" y="444"/>
      <point x="16" y="436"/>
      <point x="18" y="424" type="curve"/>
      <point x="96" y="414"/>
      <point x="97" y="405"/>
      <point x="97" y="327" type="curve" smooth="yes"/>
      <point x="97" y="256"/>
      <point x="97" y="74"/>
      <point x="97" y="-21" type="curve" smooth="yes"/>
      <point x="97" y="-85"/>
      <point x="97" y="-195"/>
      <point x="42" y="-206" type="curve"/>
      <point x="64" y="-212" type="line"/>
      <point x="47" y="-164"/>
      <point x="10" y="-140"/>
      <point x="-28" y="-140" type="curve" smooth="yes"/>
      <point x="-72" y="-140"/>
      <point x="-94" y="-166"/>
      <point x="-94" y="-193" type="curve" smooth="yes"/>
      <point x="-94" y="-225"/>
      <point x="-62" y="-255"/>
    </contour>
    <contour>
      <point x="163" y="582" type="curve" smooth="yes"/>
      <point x="215" y="582"/>
      <point x="250" y="622"/>
      <point x="250" y="665" type="curve" smooth="yes"/>
      <point x="250" y="713"/>
      <point x="212" y="749"/>
      <point x="165" y="749" type="curve" smooth="yes"/>
      <point x="117" y="749"/>
      <point x="80" y="713"/>
      <point x="80" y="664" type="curve" smooth="yes"/>
      <point x="80" y="619"/>
      <point x="115" y="582"/>
    </contour>
  </outline>
</glyph>
<glyph name="k" format="2">
  <advance width="606"/>
  <unicode hex="006B"/>
  <outline>
    <contour>
      <point x="14" y="-1" type="curve"/>
      <point x="54" y="-1"/>
      <point x="100" y="1"/>
      <point x="164" y="1" type="curve" smooth="yes"/>
      <point x="230" y="1"/>
      <point x="274" y="-1"/>
      <point x="305" y="-1" type="curve"/>
      <point x="307" y="13"/>
      <point x="307" y="24"/>
      <point x="305" y="37" type="curve"/>
      <point x="254" y="41"/>
      <point x="237" y="47"/>
      <point x="237" y="107" type="curve" smooth="yes"/>
      <point x="237" y="644" type="line" smooth="yes"/>
      <point x="237" y="682"/>
      <point x="237" y="718"/>
      <point x="239" y="752" type="curve"/>
      <point x="218" y="760" type="line"/>
      <point x="149" y="738"/>
      <point x="84" y="723"/>
      <point x="7" y="714" type="curve"/>
      <point x="6" y="701"/>
      <point x="6" y="693"/>
      <point x="7" y="680" type="curve"/>
      <point x="82" y="671"/>
      <point x="92" y="662"/>
      <point x="92" y="589" type="curve" smooth="yes"/>
      <point x="92" y="104" type="line" smooth="yes"/>
      <point x="92" y="48"/>
      <point x="75" y="41"/>
      <point x="14" y="37" type="curve"/>
      <point x="13" y="25"/>
      <point x="13" y="11"/>
    </contour>
    <contour>
      <point x="387" y="-1" type="curve"/>
      <point x="406" y="1"/>
      <point x="439" y="1"/>
      <point x="457" y="1" type="curve" smooth="yes"/>
      <point x="552" y="1"/>
      <point x="586" y="-1"/>
      <point x="604" y="-1" type="curve"/>
      <point x="605" y="13"/>
      <point x="605" y="25"/>
      <point x="604" y="39" type="curve"/>
      <point x="551" y="43"/>
      <point x="534" y="56"/>
      <point x="494" y="116" type="curve" smooth="yes"/>
      <point x="355" y="323" type="line"/>
      <point x="350" y="293" type="line"/>
      <point x="412" y="357" type="line" smooth="yes"/>
      <point x="460" y="406"/>
      <point x="503" y="442"/>
      <point x="576" y="444" type="curve"/>
      <point x="578" y="459"/>
      <point x="578" y="469"/>
      <point x="576" y="482" type="curve"/>
      <point x="553" y="482"/>
      <point x="486" y="481"/>
      <point x="462" y="481" type="curve" smooth="yes"/>
      <point x="422" y="481"/>
      <point x="372" y="483"/>
      <point x="345" y="483" type="curve"/>
      <point x="343" y="471"/>
      <point x="343" y="458"/>
      <point x="345" y="445" type="curve"/>
      <point x="376" y="444"/>
      <point x="397" y="440"/>
      <point x="397" y="426" type="curve" smooth="yes"/>
      <point x="397" y="413"/>
      <point x="377" y="391"/>
      <point x="350" y="363" type="curve" smooth="yes"/>
      <point x="310" y="321"/>
      <point x="285" y="302"/>
      <point x="274" y="294" type="curve" smooth="yes"/>
      <point x="261" y="284"/>
      <point x="250" y="278"/>
      <point x="233" y="278" type="curve" smooth="yes"/>
      <point x="228" y="278"/>
      <point x="223" y="278"/>
      <point x="218" y="279" type="curve"/>
      <point x="218" y="231" type="line"/>
      <point x="223" y="232"/>
      <point x="228" y="232"/>
      <point x="234" y="232" type="curve" smooth="yes"/>
      <point x="248" y="232"/>
      <point x="259" y="221"/>
      <point x="273" y="200" type="curve" smooth="yes"/>
      <point x="306" y="151"/>
      <point x="353" y="71"/>
      <point x="361" y="58" type="curve" smooth="yes"/>
      <point x="368" y="45"/>
      <point x="387" y="13"/>
    </contour>
  </outline>
</glyph>
<glyph name="l" format="2">
  <advance width="319"/>
  <unicode hex="006C"/>
  <outline>
    <contour>
      <point x="10" y="-1" type="curve"/>
      <point x="52" y="-1"/>
      <point x="94" y="1"/>
      <point x="160" y="1" type="curve" smooth="yes"/>
      <point x="229" y="1"/>
      <point x="275" y="-1"/>
      <point x="310" y="-1" type="curve"/>
      <point x="312" y="13"/>
      <point x="312" y="24"/>
      <point x="310" y="37" type="curve"/>
      <point x="254" y="41"/>
      <point x="233" y="46"/>
      <point x="233" y="107" type="curve" smooth="yes"/>
      <point x="233" y="644" type="line" smooth="yes"/>
      <point x="233" y="682"/>
      <point x="233" y="718"/>
      <point x="235" y="752" type="curve"/>
      <point x="214" y="760" type="line"/>
      <point x="145" y="738"/>
      <point x="80" y="723"/>
      <point x="3" y="714" type="curve"/>
      <point x="1" y="700"/>
      <point x="1" y="693"/>
      <point x="3" y="680" type="curve"/>
      <point x="78" y="671"/>
      <point x="88" y="662"/>
      <point x="88" y="589" type="curve" smooth="yes"/>
      <point x="88" y="104" type="line" smooth="yes"/>
      <point x="88" y="48"/>
      <point x="73" y="41"/>
      <point x="10" y="37" type="curve"/>
      <point x="8" y="24"/>
      <point x="8" y="13"/>
    </contour>
  </outline>
</glyph>
<glyph name="m" format="2">
  <advance width="914"/>
  <unicode hex="006D"/>
  <outline>
    <contour>
      <point x="631" y="-1" type="curve"/>
      <point x="659" y="-1"/>
      <point x="689" y="1"/>
      <point x="758" y="1" type="curve" smooth="yes"/>
      <point x="825" y="1"/>
      <point x="866" y="-1"/>
      <point x="908" y="-1" type="curve"/>
      <point x="910" y="13"/>
      <point x="910" y="23"/>
      <point x="908" y="37" type="curve"/>
      <point x="846" y="41"/>
      <point x="831" y="47"/>
      <point x="831" y="107" type="curve" smooth="yes"/>
      <point x="831" y="339" type="line" smooth="yes"/>
      <point x="831" y="436"/>
      <point x="789" y="499"/>
      <point x="697" y="499" type="curve" smooth="yes"/>
      <point x="639" y="499"/>
      <point x="574" y="474"/>
      <point x="512" y="410" type="curve"/>
      <point x="514" y="361" type="line"/>
      <point x="549" y="399"/>
      <point x="586" y="416"/>
      <point x="622" y="416" type="curve" smooth="yes"/>
      <point x="668" y="416"/>
      <point x="687" y="384"/>
      <point x="687" y="325" type="curve" smooth="yes"/>
      <point x="687" y="111" type="line" smooth="yes"/>
      <point x="687" y="46"/>
      <point x="673" y="41"/>
      <point x="631" y="37" type="curve"/>
      <point x="629" y="23"/>
      <point x="629" y="13"/>
    </contour>
    <contour>
      <point x="17" y="-1" type="curve"/>
      <point x="59" y="-1"/>
      <point x="101" y="1"/>
      <point x="167" y="1" type="curve" smooth="yes"/>
      <point x="236" y="1"/>
      <point x="267" y="-1"/>
      <point x="296" y="-1" type="curve"/>
      <point x="298" y="13"/>
      <point x="298" y="23"/>
      <point x="296" y="37" type="curve"/>
      <point x="253" y="41"/>
      <point x="239" y="46"/>
      <point x="239" y="114" type="curve" smooth="yes"/>
      <point x="239" y="389" type="line"/>
      <point x="235" y="409" type="line"/>
      <point x="235" y="495" type="line"/>
      <point x="213" y="503" type="line"/>
      <point x="152" y="482"/>
      <point x="92" y="467"/>
      <point x="15" y="457" type="curve"/>
      <point x="13" y="445"/>
      <point x="13" y="436"/>
      <point x="15" y="424" type="curve"/>
      <point x="91" y="414"/>
      <point x="95" y="405"/>
      <point x="95" y="327" type="curve" smooth="yes"/>
      <point x="95" y="104" type="line" smooth="yes"/>
      <point x="95" y="48"/>
      <point x="80" y="41"/>
      <point x="17" y="37" type="curve"/>
      <point x="15" y="23"/>
      <point x="15" y="13"/>
    </contour>
    <contour>
      <point x="336" y="-1" type="curve"/>
      <point x="363" y="-1"/>
      <point x="394" y="1"/>
      <point x="462" y="1" type="curve" smooth="yes"/>
      <point x="529" y="1"/>
      <point x="563" y="-1"/>
      <point x="594" y="-1" type="curve"/>
      <point x="596" y="13"/>
      <point x="596" y="23"/>
      <point x="594" y="37" type="curve"/>
      <point x="545" y="41"/>
      <point x="535" y="47"/>
      <point x="535" y="107" type="curve" smooth="yes"/>
      <point x="535" y="339" type="line" smooth="yes"/>
      <point x="535" y="429"/>
      <point x="499" y="499"/>
      <point x="402" y="499" type="curve" smooth="yes"/>
      <point x="342" y="499"/>
      <point x="281" y="476"/>
      <point x="219" y="404" type="curve"/>
      <point x="219" y="360" type="line"/>
      <point x="254" y="399"/>
      <point x="291" y="416"/>
      <point x="326" y="416" type="curve" smooth="yes"/>
      <point x="372" y="416"/>
      <point x="391" y="384"/>
      <point x="391" y="325" type="curve" smooth="yes"/>
      <point x="391" y="111" type="line" smooth="yes"/>
      <point x="391" y="46"/>
      <point x="377" y="41"/>
      <point x="336" y="37" type="curve"/>
      <point x="334" y="23"/>
      <point x="334" y="13"/>
    </contour>
  </outline>
</glyph>
<glyph name="n" format="2">
  <advance width="646"/>
  <unicode hex="006E"/>
  <outline>
    <contour>
      <point x="351" y="-1" type="curve"/>
      <point x="386" y="-1"/>
      <point x="417" y="1"/>
      <point x="482" y="1" type="curve" smooth="yes"/>
      <point x="553" y="1"/>
      <point x="594" y="-1"/>
      <point x="636" y="-1" type="curve"/>
      <point x="637" y="14"/>
      <point x="637" y="23"/>
      <point x="636" y="37" type="curve"/>
      <point x="573" y="41"/>
      <point x="559" y="47"/>
      <point x="559" y="107" type="curve" smooth="yes"/>
      <point x="559" y="339" type="line" smooth="yes"/>
      <point x="559" y="436"/>
      <point x="515" y="499"/>
      <point x="418" y="499" type="curve" smooth="yes"/>
      <point x="357" y="499"/>
      <point x="285" y="476"/>
      <point x="218" y="402" type="curve"/>
      <point x="219" y="353" type="line"/>
      <point x="261" y="398"/>
      <point x="299" y="416"/>
      <point x="339" y="416" type="curve" smooth="yes"/>
      <point x="390" y="416"/>
      <point x="414" y="386"/>
      <point x="414" y="320" type="curve" smooth="yes"/>
      <point x="414" y="111" type="line" smooth="yes"/>
      <point x="414" y="46"/>
      <point x="400" y="41"/>
      <point x="351" y="37" type="curve"/>
      <point x="348" y="22"/>
      <point x="348" y="13"/>
    </contour>
    <contour>
      <point x="19" y="-1" type="curve"/>
      <point x="61" y="-1"/>
      <point x="104" y="1"/>
      <point x="173" y="1" type="curve" smooth="yes"/>
      <point x="236" y="1"/>
      <point x="269" y="-1"/>
      <point x="305" y="-1" type="curve"/>
      <point x="307" y="13"/>
      <point x="307" y="22"/>
      <point x="305" y="37" type="curve"/>
      <point x="255" y="41"/>
      <point x="241" y="46"/>
      <point x="241" y="114" type="curve" smooth="yes"/>
      <point x="241" y="390" type="line"/>
      <point x="237" y="408" type="line"/>
      <point x="237" y="495" type="line"/>
      <point x="215" y="503" type="line"/>
      <point x="152" y="483"/>
      <point x="90" y="467"/>
      <point x="17" y="457" type="curve"/>
      <point x="15" y="444"/>
      <point x="15" y="436"/>
      <point x="17" y="424" type="curve"/>
      <point x="93" y="414"/>
      <point x="97" y="405"/>
      <point x="97" y="327" type="curve" smooth="yes"/>
      <point x="97" y="104" type="line" smooth="yes"/>
      <point x="97" y="48"/>
      <point x="82" y="41"/>
      <point x="19" y="37" type="curve"/>
      <point x="17" y="22"/>
      <point x="17" y="13"/>
    </contour>
  </outline>
</glyph>
<glyph name="o" format="2">
  <advance width="579"/>
  <unicode hex="006F"/>
  <outline>
    <contour>
      <point x="285" y="-12" type="curve" smooth="yes"/>
      <point x="449" y="-12"/>
      <point x="549" y="98"/>
      <point x="549" y="249" type="curve" smooth="yes"/>
      <point x="549" y="394"/>
      <point x="453" y="499"/>
      <point x="294" y="499" type="curve" smooth="yes"/>
      <point x="132" y="499"/>
      <point x="30" y="396"/>
      <point x="30" y="238" type="curve" smooth="yes"/>
      <point x="30" y="89"/>
      <point x="125" y="-12"/>
    </contour>
    <contour>
      <point x="290" y="32" type="curve" smooth="yes"/>
      <point x="218" y="32"/>
      <point x="186" y="110"/>
      <point x="186" y="250" type="curve" smooth="yes"/>
      <point x="186" y="384"/>
      <point x="220" y="455"/>
      <point x="289" y="455" type="curve" smooth="yes"/>
      <point x="359" y="455"/>
      <point x="393" y="376"/>
      <point x="393" y="237" type="curve" smooth="yes"/>
      <point x="393" y="106"/>
      <point x="358" y="32"/>
    </contour>
  </outline>
</glyph>
<glyph name="p" format="2">
  <advance width="612"/>
  <unicode hex="0070"/>
  <outline>
    <contour>
      <point x="13" y="-246" type="curve"/>
      <point x="55" y="-246"/>
      <point x="97" y="-244"/>
      <point x="164" y="-244" type="curve" smooth="yes"/>
      <point x="234" y="-244"/>
      <point x="295" y="-246"/>
      <point x="339" y="-246" type="curve"/>
      <point x="341" y="-232"/>
      <point x="341" y="-221"/>
      <point x="339" y="-208" type="curve"/>
      <point x="263" y="-204"/>
      <point x="235" y="-199"/>
      <point x="235" y="-129" type="curve" smooth="yes"/>
      <point x="235" y="26" type="line"/>
      <point x="234" y="49" type="line"/>
      <point x="234" y="409" type="line" smooth="yes"/>
      <point x="234" y="437"/>
      <point x="235" y="463"/>
      <point x="235" y="495" type="curve"/>
      <point x="215" y="503" type="line"/>
      <point x="149" y="482"/>
      <point x="83" y="467"/>
      <point x="12" y="457" type="curve"/>
      <point x="10" y="445"/>
      <point x="10" y="435"/>
      <point x="12" y="424" type="curve"/>
      <point x="87" y="414"/>
      <point x="91" y="405"/>
      <point x="91" y="327" type="curve" smooth="yes"/>
      <point x="91" y="-140" type="line" smooth="yes"/>
      <point x="91" y="-197"/>
      <point x="76" y="-204"/>
      <point x="13" y="-208" type="curve"/>
      <point x="12" y="-221"/>
      <point x="12" y="-232"/>
    </contour>
    <contour>
      <point x="319" y="-12" type="curve" smooth="yes"/>
      <point x="453" y="-12"/>
      <point x="583" y="91"/>
      <point x="583" y="278" type="curve" smooth="yes"/>
      <point x="583" y="396"/>
      <point x="514" y="499"/>
      <point x="388" y="499" type="curve" smooth="yes"/>
      <point x="325" y="499"/>
      <point x="268" y="470"/>
      <point x="220" y="408" type="curve"/>
      <point x="222" y="350" type="line"/>
      <point x="248" y="396"/>
      <point x="285" y="414"/>
      <point x="322" y="414" type="curve" smooth="yes"/>
      <point x="398" y="414"/>
      <point x="435" y="331"/>
      <point x="435" y="223" type="curve" smooth="yes"/>
      <point x="435" y="118"/>
      <point x="397" y="36"/>
      <point x="325" y="36" type="curve" smooth="yes"/>
      <point x="287" y="36"/>
      <point x="254" y="56"/>
      <point x="227" y="99" type="curve"/>
      <point x="153" y="38" type="line"/>
      <point x="203" y="5"/>
      <point x="254" y="-12"/>
    </contour>
  </outline>
</glyph>
<glyph name="q" format="2">
  <advance width="602"/>
  <unicode hex="0071"/>
  <outline>
    <contour>
      <point x="234" y="-12" type="curve" smooth="yes"/>
      <point x="303" y="-12"/>
      <point x="353" y="19"/>
      <point x="393" y="71" type="curve"/>
      <point x="391" y="132" type="line"/>
      <point x="376" y="95"/>
      <point x="342" y="70"/>
      <point x="300" y="70" type="curve" smooth="yes"/>
      <point x="218" y="70"/>
      <point x="181" y="155"/>
      <point x="181" y="268" type="curve" smooth="yes"/>
      <point x="181" y="376"/>
      <point x="218" y="449"/>
      <point x="291" y="449" type="curve" smooth="yes"/>
      <point x="333" y="449"/>
      <point x="368" y="424"/>
      <point x="392" y="379" type="curve"/>
      <point x="442" y="463" type="line"/>
      <point x="395" y="490"/>
      <point x="354" y="499"/>
      <point x="299" y="499" type="curve" smooth="yes"/>
      <point x="160" y="499"/>
      <point x="33" y="402"/>
      <point x="33" y="221" type="curve" smooth="yes"/>
      <point x="33" y="95"/>
      <point x="105" y="-12"/>
    </contour>
    <contour>
      <point x="292" y="-246" type="curve"/>
      <point x="336" y="-246"/>
      <point x="381" y="-244"/>
      <point x="451" y="-244" type="curve" smooth="yes"/>
      <point x="518" y="-244"/>
      <point x="561" y="-246"/>
      <point x="603" y="-246" type="curve"/>
      <point x="605" y="-231"/>
      <point x="605" y="-222"/>
      <point x="603" y="-208" type="curve"/>
      <point x="540" y="-204"/>
      <point x="525" y="-197"/>
      <point x="525" y="-138" type="curve" smooth="yes"/>
      <point x="525" y="370" type="line" smooth="yes"/>
      <point x="525" y="422"/>
      <point x="526" y="462"/>
      <point x="527" y="489" type="curve"/>
      <point x="521" y="493"/>
      <point x="513" y="496"/>
      <point x="503" y="497" type="curve"/>
      <point x="460" y="477"/>
      <point x="419" y="462"/>
      <point x="382" y="452" type="curve"/>
      <point x="382" y="92" type="line"/>
      <point x="381" y="68" type="line"/>
      <point x="381" y="-134" type="line" smooth="yes"/>
      <point x="381" y="-198"/>
      <point x="353" y="-204"/>
      <point x="292" y="-208" type="curve"/>
      <point x="290" y="-222"/>
      <point x="290" y="-231"/>
    </contour>
  </outline>
</glyph>
<glyph name="r" format="2">
  <advance width="467"/>
  <unicode hex="0072"/>
  <outline>
    <contour>
      <point x="17" y="-1" type="curve"/>
      <point x="60" y="-1"/>
      <point x="101" y="1"/>
      <point x="171" y="1" type="curve" smooth="yes"/>
      <point x="236" y="1"/>
      <point x="295" y="-1"/>
      <point x="341" y="-1" type="curve"/>
      <point x="342" y="14"/>
      <point x="342" y="23"/>
      <point x="341" y="37" type="curve"/>
      <point x="255" y="40"/>
      <point x="239" y="49"/>
      <point x="239" y="109" type="curve" smooth="yes"/>
      <point x="239" y="300" type="line"/>
      <point x="236" y="383" type="line"/>
      <point x="236" y="495" type="line"/>
      <point x="214" y="503" type="line"/>
      <point x="148" y="482"/>
      <point x="87" y="467"/>
      <point x="15" y="457" type="curve"/>
      <point x="13" y="445"/>
      <point x="13" y="436"/>
      <point x="15" y="424" type="curve"/>
      <point x="91" y="414"/>
      <point x="95" y="405"/>
      <point x="95" y="327" type="curve" smooth="yes"/>
      <point x="95" y="104" type="line" smooth="yes"/>
      <point x="95" y="48"/>
      <point x="80" y="41"/>
      <point x="17" y="37" type="curve"/>
      <point x="15" y="23"/>
      <point x="15" y="13"/>
    </contour>
    <contour>
      <point x="239" y="300" type="line"/>
      <point x="239" y="358"/>
      <point x="280" y="401"/>
      <point x="321" y="407" type="curve"/>
      <point x="334" y="371"/>
      <point x="363" y="355"/>
      <point x="397" y="355" type="curve" smooth="yes"/>
      <point x="435" y="355"/>
      <point x="470" y="380"/>
      <point x="470" y="425" type="curve" smooth="yes"/>
      <point x="470" y="464"/>
      <point x="444" y="501"/>
      <point x="386" y="501" type="curve" smooth="yes"/>
      <point x="334" y="501"/>
      <point x="276" y="467"/>
      <point x="225" y="378" type="curve"/>
    </contour>
  </outline>
</glyph>
<glyph name="s" format="2">
  <advance width="446"/>
  <unicode hex="0073"/>
  <outline>
    <contour>
      <point x="203" y="-12" type="curve" smooth="yes"/>
      <point x="322" y="-12"/>
      <point x="416" y="33"/>
      <point x="416" y="146" type="curve" smooth="yes"/>
      <point x="416" y="254"/>
      <point x="309" y="290"/>
      <point x="235" y="320" type="curve" smooth="yes"/>
      <point x="186" y="340"/>
      <point x="160" y="358"/>
      <point x="160" y="394" type="curve" smooth="yes"/>
      <point x="160" y="428"/>
      <point x="193" y="453"/>
      <point x="244" y="453" type="curve" smooth="yes"/>
      <point x="306" y="453"/>
      <point x="338" y="416"/>
      <point x="355" y="347" type="curve"/>
      <point x="370" y="345"/>
      <point x="381" y="346"/>
      <point x="395" y="348" type="curve"/>
      <point x="391" y="397"/>
      <point x="390" y="440"/>
      <point x="390" y="490" type="curve"/>
      <point x="352" y="486"/>
      <point x="294" y="499"/>
      <point x="243" y="499" type="curve" smooth="yes"/>
      <point x="139" y="499"/>
      <point x="39" y="448"/>
      <point x="39" y="344" type="curve" smooth="yes"/>
      <point x="39" y="253"/>
      <point x="112" y="214"/>
      <point x="188" y="182" type="curve" smooth="yes"/>
      <point x="245" y="158"/>
      <point x="293" y="144"/>
      <point x="293" y="96" type="curve" smooth="yes"/>
      <point x="293" y="52"/>
      <point x="262" y="34"/>
      <point x="213" y="34" type="curve" smooth="yes"/>
      <point x="138" y="34"/>
      <point x="95" y="78"/>
      <point x="74" y="158" type="curve"/>
      <point x="63" y="160"/>
      <point x="50" y="159"/>
      <point x="36" y="157" type="curve"/>
      <point x="40" y="96"/>
      <point x="44" y="45"/>
      <point x="44" y="4" type="curve"/>
      <point x="87" y="4"/>
      <point x="152" y="-12"/>
    </contour>
  </outline>
</glyph>
<glyph name="t" format="2">
  <advance width="391"/>
  <unicode hex="0074"/>
  <outline>
    <contour>
      <point x="242" y="-12" type="curve" smooth="yes"/>
      <point x="296" y="-12"/>
      <point x="349" y="5"/>
      <point x="382" y="34" type="curve"/>
      <point x="381" y="48"/>
      <point x="377" y="61"/>
      <point x="369" y="71" type="curve"/>
      <point x="347" y="58"/>
      <point x="325" y="52"/>
      <point x="304" y="52" type="curve" smooth="yes"/>
      <point x="256" y="52"/>
      <point x="227" y="80"/>
      <point x="227" y="154" type="curve" smooth="yes"/>
      <point x="227" y="306"/>
      <point x="230" y="479"/>
      <point x="233" y="602" type="curve"/>
      <point x="223" y="604"/>
      <point x="207" y="606"/>
      <point x="196" y="605" type="curve"/>
      <point x="149" y="535"/>
      <point x="101" y="493"/>
      <point x="10" y="461" type="curve"/>
      <point x="8" y="453"/>
      <point x="8" y="437"/>
      <point x="10" y="427" type="curve"/>
      <point x="86" y="427" type="line"/>
      <point x="85" y="332"/>
      <point x="82" y="229"/>
      <point x="82" y="140" type="curve" smooth="yes"/>
      <point x="82" y="40"/>
      <point x="139" y="-12"/>
    </contour>
    <contour>
      <point x="375" y="427" type="line"/>
      <point x="377" y="448"/>
      <point x="377" y="463"/>
      <point x="375" y="480" type="curve"/>
      <point x="217" y="480" type="line"/>
      <point x="217" y="427" type="line"/>
    </contour>
  </outline>
</glyph>
<glyph name="u" format="2">
  <advance width="618"/>
  <unicode hex="0075"/>
  <outline>
    <contour>
      <point x="223" y="-12" type="curve" smooth="yes"/>
      <point x="281" y="-12"/>
      <point x="344" y="11"/>
      <point x="405" y="74" type="curve"/>
      <point x="404" y="125" type="line"/>
      <point x="371" y="90"/>
      <point x="339" y="71"/>
      <point x="301" y="71" type="curve" smooth="yes"/>
      <point x="248" y="71"/>
      <point x="225" y="103"/>
      <point x="225" y="169" type="curve" smooth="yes"/>
      <point x="225" y="386" type="line" smooth="yes"/>
      <point x="225" y="421"/>
      <point x="225" y="456"/>
      <point x="227" y="494" type="curve"/>
      <point x="206" y="502" type="line"/>
      <point x="140" y="484"/>
      <point x="80" y="470"/>
      <point x="3" y="460" type="curve"/>
      <point x="0" y="447"/>
      <point x="0" y="440"/>
      <point x="3" y="427" type="curve"/>
      <point x="79" y="417"/>
      <point x="83" y="408"/>
      <point x="83" y="330" type="curve" smooth="yes"/>
      <point x="83" y="143" type="line" smooth="yes"/>
      <point x="83" y="46"/>
      <point x="127" y="-12"/>
    </contour>
    <contour>
      <point x="417" y="-9" type="line"/>
      <point x="480" y="7"/>
      <point x="537" y="12"/>
      <point x="603" y="19" type="curve"/>
      <point x="604" y="33"/>
      <point x="604" y="42"/>
      <point x="603" y="54" type="curve"/>
      <point x="533" y="64"/>
      <point x="532" y="69"/>
      <point x="532" y="135" type="curve" smooth="yes"/>
      <point x="532" y="386" type="line" smooth="yes"/>
      <point x="532" y="421"/>
      <point x="533" y="456"/>
      <point x="534" y="494" type="curve"/>
      <point x="513" y="502" type="line"/>
      <point x="448" y="484"/>
      <point x="390" y="470"/>
      <point x="319" y="460" type="curve"/>
      <point x="317" y="447"/>
      <point x="317" y="440"/>
      <point x="319" y="427" type="curve"/>
      <point x="388" y="417"/>
      <point x="388" y="408"/>
      <point x="388" y="330" type="curve" smooth="yes"/>
      <point x="388" y="98" type="line"/>
      <point x="395" y="79" type="line"/>
      <point x="396" y="-1" type="line"/>
    </contour>
  </outline>
</glyph>
<glyph name="v" format="2">
  <advance width="535"/>
  <unicode hex="0076"/>
  <outline>
    <contour>
      <point x="307" y="5" type="line"/>
      <point x="469" y="381" type="line" smooth="yes"/>
      <point x="486" y="421"/>
      <point x="502" y="442"/>
      <point x="558" y="446" type="curve"/>
      <point x="560" y="459"/>
      <point x="560" y="470"/>
      <point x="558" y="484" type="curve"/>
      <point x="509" y="482"/>
      <point x="489" y="482"/>
      <point x="469" y="482" type="curve" smooth="yes"/>
      <point x="425" y="482"/>
      <point x="396" y="484"/>
      <point x="362" y="484" type="curve"/>
      <point x="360" y="470"/>
      <point x="360" y="460"/>
      <point x="362" y="446" type="curve"/>
      <point x="407" y="442"/>
      <point x="424" y="436"/>
      <point x="424" y="417" type="curve" smooth="yes"/>
      <point x="424" y="407"/>
      <point x="420" y="392"/>
      <point x="412" y="373" type="curve" smooth="yes"/>
      <point x="375" y="284"/>
      <point x="335" y="189"/>
      <point x="308" y="126" type="curve"/>
      <point x="325" y="128" type="line"/>
      <point x="306" y="174"/>
      <point x="238" y="350"/>
      <point x="226" y="378" type="curve" smooth="yes"/>
      <point x="222" y="389"/>
      <point x="216" y="407"/>
      <point x="216" y="418" type="curve" smooth="yes"/>
      <point x="216" y="439"/>
      <point x="232" y="443"/>
      <point x="278" y="446" type="curve"/>
      <point x="280" y="460"/>
      <point x="280" y="470"/>
      <point x="278" y="484" type="curve"/>
      <point x="247" y="484"/>
      <point x="192" y="482"/>
      <point x="127" y="482" type="curve" smooth="yes"/>
      <point x="63" y="482"/>
      <point x="18" y="484"/>
      <point x="-20" y="484" type="curve"/>
      <point x="-22" y="469"/>
      <point x="-22" y="459"/>
      <point x="-20" y="446" type="curve"/>
      <point x="35" y="439"/>
      <point x="48" y="429"/>
      <point x="65" y="386" type="curve" smooth="yes"/>
      <point x="231" y="-6" type="line"/>
    </contour>
  </outline>
</glyph>
<glyph name="w" format="2">
  <advance width="817"/>
  <unicode hex="0077"/>
  <outline>
    <contour>
      <point x="590" y="4" type="line"/>
      <point x="749" y="381" type="line" smooth="yes"/>
      <point x="766" y="421"/>
      <point x="782" y="442"/>
      <point x="837" y="446" type="curve"/>
      <point x="839" y="459"/>
      <point x="839" y="468"/>
      <point x="837" y="484" type="curve"/>
      <point x="794" y="482"/>
      <point x="772" y="482"/>
      <point x="748" y="482" type="curve" smooth="yes"/>
      <point x="705" y="482"/>
      <point x="674" y="484"/>
      <point x="648" y="484" type="curve"/>
      <point x="647" y="468"/>
      <point x="647" y="459"/>
      <point x="648" y="446" type="curve"/>
      <point x="688" y="441"/>
      <point x="704" y="434"/>
      <point x="704" y="413" type="curve" smooth="yes"/>
      <point x="704" y="406"/>
      <point x="701" y="392"/>
      <point x="694" y="373" type="curve" smooth="yes"/>
      <point x="661" y="291"/>
      <point x="628" y="210"/>
      <point x="593" y="128" type="curve"/>
      <point x="614" y="128" type="line"/>
      <point x="588" y="195"/>
      <point x="542" y="331"/>
      <point x="526" y="377" type="curve" smooth="yes"/>
      <point x="521" y="391"/>
      <point x="516" y="408"/>
      <point x="516" y="418" type="curve" smooth="yes"/>
      <point x="516" y="439"/>
      <point x="526" y="443"/>
      <point x="565" y="446" type="curve"/>
      <point x="567" y="459"/>
      <point x="567" y="468"/>
      <point x="565" y="484" type="curve"/>
      <point x="541" y="484"/>
      <point x="493" y="482"/>
      <point x="436" y="482" type="curve" smooth="yes"/>
      <point x="373" y="482"/>
      <point x="338" y="484"/>
      <point x="307" y="484" type="curve"/>
      <point x="305" y="468"/>
      <point x="305" y="458"/>
      <point x="307" y="446" type="curve"/>
      <point x="352" y="439"/>
      <point x="357" y="429"/>
      <point x="373" y="386" type="curve" smooth="yes"/>
      <point x="515" y="-6" type="line"/>
    </contour>
    <contour>
      <point x="299" y="4" type="line"/>
      <point x="341" y="103"/>
      <point x="383" y="198"/>
      <point x="424" y="295" type="curve"/>
      <point x="400" y="354" type="line"/>
      <point x="302" y="125" type="line"/>
      <point x="321" y="129" type="line"/>
      <point x="289" y="213"/>
      <point x="258" y="297"/>
      <point x="228" y="377" type="curve" smooth="yes"/>
      <point x="223" y="391"/>
      <point x="218" y="408"/>
      <point x="218" y="419" type="curve" smooth="yes"/>
      <point x="218" y="437"/>
      <point x="228" y="443"/>
      <point x="263" y="446" type="curve"/>
      <point x="265" y="459"/>
      <point x="265" y="468"/>
      <point x="263" y="484" type="curve"/>
      <point x="240" y="484"/>
      <point x="194" y="482"/>
      <point x="129" y="482" type="curve" smooth="yes"/>
      <point x="68" y="482"/>
      <point x="22" y="484"/>
      <point x="-16" y="484" type="curve"/>
      <point x="-18" y="468"/>
      <point x="-18" y="458"/>
      <point x="-16" y="446" type="curve"/>
      <point x="39" y="439"/>
      <point x="53" y="429"/>
      <point x="70" y="386" type="curve" smooth="yes"/>
      <point x="223" y="-6" type="line"/>
    </contour>
  </outline>
</glyph>
<glyph name="x" format="2">
  <advance width="568"/>
  <unicode hex="0078"/>
  <outline>
    <contour>
      <point x="269" y="-1" type="curve"/>
      <point x="293" y="-1"/>
      <point x="343" y="1"/>
      <point x="417" y="1" type="curve" smooth="yes"/>
      <point x="482" y="1"/>
      <point x="529" y="-1"/>
      <point x="568" y="-1" type="curve"/>
      <point x="570" y="14"/>
      <point x="570" y="23"/>
      <point x="568" y="37" type="curve"/>
      <point x="512" y="44"/>
      <point x="504" y="59"/>
      <point x="478" y="96" type="curve" smooth="yes"/>
      <point x="431" y="164"/>
      <point x="392" y="219"/>
      <point x="351" y="277" type="curve"/>
      <point x="327" y="313"/>
      <point x="302" y="349"/>
      <point x="278" y="385" type="curve" smooth="yes"/>
      <point x="271" y="396"/>
      <point x="258" y="413"/>
      <point x="258" y="422" type="curve" smooth="yes"/>
      <point x="258" y="440"/>
      <point x="277" y="443"/>
      <point x="314" y="446" type="curve"/>
      <point x="316" y="460"/>
      <point x="316" y="470"/>
      <point x="314" y="484" type="curve"/>
      <point x="290" y="484"/>
      <point x="236" y="482"/>
      <point x="164" y="482" type="curve" smooth="yes"/>
      <point x="99" y="482"/>
      <point x="55" y="484"/>
      <point x="17" y="484" type="curve"/>
      <point x="15" y="470"/>
      <point x="15" y="460"/>
      <point x="17" y="446" type="curve"/>
      <point x="73" y="439"/>
      <point x="81" y="422"/>
      <point x="106" y="387" type="curve" smooth="yes"/>
      <point x="147" y="327"/>
      <point x="189" y="267"/>
      <point x="227" y="211" type="curve" smooth="yes"/>
      <point x="254" y="172"/>
      <point x="281" y="136"/>
      <point x="304" y="100" type="curve" smooth="yes"/>
      <point x="312" y="88"/>
      <point x="326" y="71"/>
      <point x="326" y="59" type="curve" smooth="yes"/>
      <point x="326" y="44"/>
      <point x="307" y="40"/>
      <point x="269" y="37" type="curve"/>
      <point x="267" y="23"/>
      <point x="267" y="13"/>
    </contour>
    <contour>
      <point x="7" y="-1" type="curve"/>
      <point x="38" y="-1"/>
      <point x="67" y="1"/>
      <point x="102" y="1" type="curve" smooth="yes"/>
      <point x="134" y="1"/>
      <point x="173" y="-1"/>
      <point x="205" y="-1" type="curve"/>
      <point x="207" y="13"/>
      <point x="207" y="23"/>
      <point x="205" y="37" type="curve"/>
      <point x="165" y="41"/>
      <point x="151" y="45"/>
      <point x="151" y="57" type="curve" smooth="yes"/>
      <point x="151" y="62"/>
      <point x="153" y="68"/>
      <point x="158" y="74" type="curve" smooth="yes"/>
      <point x="183" y="109"/>
      <point x="218" y="151"/>
      <point x="253" y="195" type="curve"/>
      <point x="223" y="237" type="line"/>
      <point x="112" y="100" type="line" smooth="yes"/>
      <point x="77" y="56"/>
      <point x="61" y="44"/>
      <point x="7" y="37" type="curve"/>
      <point x="5" y="23"/>
      <point x="5" y="14"/>
    </contour>
    <contour>
      <point x="351" y="256" type="line"/>
      <point x="394" y="313"/>
      <point x="432" y="354"/>
      <point x="453" y="381" type="curve" smooth="yes"/>
      <point x="487" y="423"/>
      <point x="503" y="439"/>
      <point x="555" y="446" type="curve"/>
      <point x="557" y="461"/>
      <point x="557" y="471"/>
      <point x="555" y="484" type="curve"/>
      <point x="523" y="484"/>
      <point x="497" y="482"/>
      <point x="462" y="482" type="curve" smooth="yes"/>
      <point x="431" y="482"/>
      <point x="393" y="484"/>
      <point x="361" y="484" type="curve"/>
      <point x="359" y="470"/>
      <point x="359" y="460"/>
      <point x="361" y="446" type="curve"/>
      <point x="400" y="442"/>
      <point x="414" y="437"/>
      <point x="414" y="425" type="curve" smooth="yes"/>
      <point x="414" y="418"/>
      <point x="412" y="412"/>
      <point x="407" y="405" type="curve" smooth="yes"/>
      <point x="383" y="371"/>
      <point x="354" y="337"/>
      <point x="318" y="293" type="curve"/>
    </contour>
  </outline>
</glyph>
<glyph name="y" format="2">
  <advance width="531"/>
  <unicode hex="0079"/>
  <outline>
    <contour>
      <point x="118" y="-255" type="curve" smooth="yes"/>
      <point x="158" y="-255"/>
      <point x="193" y="-233"/>
      <point x="222" y="-175" type="curve" smooth="yes"/>
      <point x="249" y="-121"/>
      <point x="281" y="-50"/>
      <point x="301" y="-5" type="curve" smooth="yes"/>
      <point x="467" y="380" type="line" smooth="yes"/>
      <point x="484" y="420"/>
      <point x="499" y="442"/>
      <point x="555" y="446" type="curve"/>
      <point x="557" y="459"/>
      <point x="557" y="470"/>
      <point x="555" y="484" type="curve"/>
      <point x="513" y="482"/>
      <point x="486" y="482"/>
      <point x="464" y="482" type="curve" smooth="yes"/>
      <point x="421" y="482"/>
      <point x="392" y="484"/>
      <point x="358" y="484" type="curve"/>
      <point x="357" y="470"/>
      <point x="357" y="459"/>
      <point x="358" y="446" type="curve"/>
      <point x="405" y="442"/>
      <point x="421" y="435"/>
      <point x="421" y="416" type="curve" smooth="yes"/>
      <point x="421" y="406"/>
      <point x="418" y="392"/>
      <point x="410" y="372" type="curve" smooth="yes"/>
      <point x="368" y="270"/>
      <point x="333" y="196"/>
      <point x="286" y="87" type="curve" smooth="yes"/>
      <point x="240" y="-21"/>
      <point x="217" y="-71"/>
      <point x="194" y="-119" type="curve"/>
      <point x="209" y="-111" type="line"/>
      <point x="105" y="-108"/>
      <point x="56" y="-157"/>
      <point x="56" y="-199" type="curve" smooth="yes"/>
      <point x="56" y="-230"/>
      <point x="76" y="-255"/>
    </contour>
    <contour>
      <point x="320" y="130" type="line"/>
      <point x="297" y="188"/>
      <point x="243" y="325"/>
      <point x="224" y="376" type="curve" smooth="yes"/>
      <point x="219" y="390"/>
      <point x="214" y="407"/>
      <point x="214" y="417" type="curve" smooth="yes"/>
      <point x="214" y="438"/>
      <point x="230" y="443"/>
      <point x="276" y="446" type="curve"/>
      <point x="278" y="459"/>
      <point x="278" y="470"/>
      <point x="276" y="484" type="curve"/>
      <point x="245" y="484"/>
      <point x="189" y="482"/>
      <point x="125" y="482" type="curve" smooth="yes"/>
      <point x="63" y="482"/>
      <point x="18" y="484"/>
      <point x="-17" y="484" type="curve"/>
      <point x="-19" y="469"/>
      <point x="-19" y="458"/>
      <point x="-17" y="446" type="curve"/>
      <point x="34" y="439"/>
      <point x="48" y="428"/>
      <point x="65" y="385" type="curve" smooth="yes"/>
      <point x="127" y="235"/>
      <point x="199" y="68"/>
      <point x="247" y="-44" type="curve"/>
    </contour>
  </outline>
</glyph>
<glyph name="z" format="2">
  <advance width="517"/>
  <unicode hex="007A"/>
  <outline>
    <contour>
      <point x="462" y="-1" type="curve"/>
      <point x="472" y="51"/>
      <point x="484" y="104"/>
      <point x="497" y="156" type="curve"/>
      <point x="488" y="160"/>
      <point x="473" y="162"/>
      <point x="463" y="162" type="curve"/>
      <point x="406" y="60"/>
      <point x="397" y="47"/>
      <point x="308" y="47" type="curve" smooth="yes"/>
      <point x="196" y="47" type="line"/>
      <point x="206" y="35" type="line"/>
      <point x="487" y="459" type="line"/>
      <point x="487" y="466"/>
      <point x="482" y="478"/>
      <point x="478" y="484" type="curve"/>
      <point x="424" y="482"/>
      <point x="325" y="481"/>
      <point x="266" y="481" type="curve" smooth="yes"/>
      <point x="186" y="481"/>
      <point x="117" y="483"/>
      <point x="60" y="486" type="curve"/>
      <point x="58" y="447"/>
      <point x="50" y="398"/>
      <point x="41" y="337" type="curve"/>
      <point x="52" y="334"/>
      <point x="64" y="333"/>
      <point x="77" y="334" type="curve"/>
      <point x="112" y="421"/>
      <point x="120" y="436"/>
      <point x="220" y="436" type="curve" smooth="yes"/>
      <point x="314" y="436" type="line"/>
      <point x="305" y="449" type="line"/>
      <point x="22" y="25" type="line"/>
      <point x="22" y="18"/>
      <point x="26" y="6"/>
      <point x="29" y="0" type="curve"/>
      <point x="86" y="1"/>
      <point x="173" y="1"/>
      <point x="215" y="1" type="curve" smooth="yes"/>
      <point x="322" y="1" type="line" smooth="yes"/>
      <point x="357" y="1"/>
      <point x="403" y="1"/>
    </contour>
  </outline>
</glyph>
<glyph name="braceleft" format="2">
  <advance width="399"/>
  <unicode hex="007B"/>
  <outline>
    <contour>
      <point x="327" y="-150" type="line"/>
      <point x="264" y="-150"/>
      <point x="239" y="-127"/>
      <point x="239" y="-59" type="curve" smooth="yes"/>
      <point x="239" y="146" type="line" smooth="yes"/>
      <point x="239" y="225"/>
      <point x="200" y="270"/>
      <point x="110" y="284" type="curve"/>
      <point x="110" y="288" type="line"/>
      <point x="200" y="302"/>
      <point x="239" y="347"/>
      <point x="239" y="425" type="curve" smooth="yes"/>
      <point x="239" y="630" type="line" smooth="yes"/>
      <point x="239" y="696"/>
      <point x="264" y="719"/>
      <point x="327" y="719" type="curve"/>
      <point x="327" y="761" type="line"/>
      <point x="180" y="761"/>
      <point x="117" y="718"/>
      <point x="117" y="583" type="curve" smooth="yes"/>
      <point x="117" y="401" type="line" smooth="yes"/>
      <point x="117" y="331"/>
      <point x="97" y="314"/>
      <point x="36" y="304" type="curve"/>
      <point x="36" y="268" type="line"/>
      <point x="97" y="258"/>
      <point x="117" y="241"/>
      <point x="117" y="171" type="curve" smooth="yes"/>
      <point x="117" y="-12" type="line" smooth="yes"/>
      <point x="117" y="-149"/>
      <point x="180" y="-191"/>
      <point x="327" y="-191" type="curve"/>
    </contour>
  </outline>
</glyph>
<glyph name="bar" format="2">
  <advance width="302"/>
  <unicode hex="007C"/>
  <outline>
    <contour>
      <point x="181" y="790" type="line"/>
      <point x="121" y="790" type="line"/>
      <point x="121" y="-262" type="line"/>
      <point x="181" y="-262" type="line"/>
    </contour>
  </outline>
</glyph>
<glyph name="braceright" format="2">
  <advance width="406"/>
  <unicode hex="007D"/>
  <outline>
    <contour>
      <point x="74" y="-191" type="line"/>
      <point x="220" y="-191"/>
      <point x="283" y="-149"/>
      <point x="283" y="-12" type="curve" smooth="yes"/>
      <point x="283" y="171" type="line" smooth="yes"/>
      <point x="283" y="241"/>
      <point x="303" y="258"/>
      <point x="365" y="268" type="curve"/>
      <point x="365" y="304" type="line"/>
      <point x="303" y="314"/>
      <point x="283" y="331"/>
      <point x="283" y="401" type="curve" smooth="yes"/>
      <point x="283" y="583" type="line" smooth="yes"/>
      <point x="283" y="718"/>
      <point x="220" y="761"/>
      <point x="74" y="761" type="curve"/>
      <point x="74" y="719" type="line"/>
      <point x="137" y="719"/>
      <point x="162" y="696"/>
      <point x="162" y="630" type="curve" smooth="yes"/>
      <point x="162" y="425" type="line" smooth="yes"/>
      <point x="162" y="347"/>
      <point x="200" y="302"/>
      <point x="291" y="288" type="curve"/>
      <point x="291" y="284" type="line"/>
      <point x="200" y="270"/>
      <point x="162" y="225"/>
      <point x="162" y="146" type="curve" smooth="yes"/>
      <point x="162" y="-59" type="line" smooth="yes"/>
      <point x="162" y="-127"/>
      <point x="137" y="-150"/>
      <point x="74" y="-150" type="curve"/>
    </contour>
  </outline>
</glyph>
<glyph name="asciitilde" format="2">
  <advance width="568"/>
  <unicode hex="007E"/>
  <outline>
    <contour>
      <point x="408" y="194" type="curve" smooth="yes"/>
      <point x="446" y="194"/>
      <point x="484" y="204"/>
      <point x="522" y="234" type="curve"/>
      <point x="524" y="252"/>
      <point x="524" y="273"/>
      <point x="522" y="291" type="curve"/>
      <point x="484" y="260"/>
      <point x="446" y="251"/>
      <point x="408" y="251" type="curve" smooth="yes"/>
      <point x="378" y="251"/>
      <point x="348" y="258"/>
      <point x="284" y="281" type="curve" smooth="yes"/>
      <point x="243" y="296"/>
      <point x="201" y="311"/>
      <point x="159" y="311" type="curve" smooth="yes"/>
      <point x="120" y="311"/>
      <point x="83" y="301"/>
      <point x="45" y="270" type="curve"/>
      <point x="42" y="252"/>
      <point x="42" y="233"/>
      <point x="45" y="214" type="curve"/>
      <point x="83" y="244"/>
      <point x="120" y="253"/>
      <point x="159" y="253" type="curve" smooth="yes"/>
      <point x="198" y="253"/>
      <point x="239" y="239"/>
      <point x="285" y="222" type="curve" smooth="yes"/>
      <point x="322" y="209"/>
      <point x="365" y="194"/>
    </contour>
  </outline>
</glyph>
<glyph name="exclamdown" format="2">
  <advance width="348"/>
  <unicode hex="00A1"/>
  <outline>
    <contour>
      <point x="162" y="-244" type="curve" smooth="yes"/>
      <point x="218" y="-244"/>
      <point x="254" y="-215"/>
      <point x="254" y="-169" type="curve"/>
      <point x="186" y="255" type="line"/>
      <point x="175" y="256"/>
      <point x="150" y="256"/>
      <point x="139" y="255" type="curve"/>
      <point x="70" y="-168" type="line"/>
      <point x="70" y="-214"/>
      <point x="106" y="-244"/>
    </contour>
    <contour>
      <point x="161" y="316" type="curve" smooth="yes"/>
      <point x="214" y="316"/>
      <point x="249" y="356"/>
      <point x="249" y="402" type="curve" smooth="yes"/>
      <point x="249" y="451"/>
      <point x="211" y="488"/>
      <point x="162" y="488" type="curve" smooth="yes"/>
      <point x="112" y="488"/>
      <point x="75" y="451"/>
      <point x="75" y="401" type="curve" smooth="yes"/>
      <point x="75" y="354"/>
      <point x="111" y="316"/>
    </contour>
  </outline>
</glyph>
<glyph name="cent" format="2">
  <advance width="539"/>
  <unicode hex="00A2"/>
  <outline>
    <contour>
      <point x="299" y="-12" type="curve" smooth="yes"/>
      <point x="382" y="-12"/>
      <point x="466" y="24"/>
      <point x="513" y="85" type="curve"/>
      <point x="507" y="95"/>
      <point x="501" y="103"/>
      <point x="492" y="111" type="curve"/>
      <point x="450" y="80"/>
      <point x="399" y="69"/>
      <point x="360" y="69" type="curve" smooth="yes"/>
      <point x="252" y="69"/>
      <point x="184" y="150"/>
      <point x="184" y="273" type="curve" smooth="yes"/>
      <point x="184" y="410"/>
      <point x="238" y="470"/>
      <point x="317" y="470" type="curve" smooth="yes"/>
      <point x="350" y="470"/>
      <point x="374" y="464"/>
      <point x="394" y="450" type="curve"/>
      <point x="376" y="476" type="line"/>
      <point x="374" y="392"/>
      <point x="408" y="354"/>
      <point x="451" y="354" type="curve" smooth="yes"/>
      <point x="480" y="354"/>
      <point x="504" y="375"/>
      <point x="504" y="407" type="curve" smooth="yes"/>
      <point x="504" y="470"/>
      <point x="421" y="514"/>
      <point x="323" y="514" type="curve" smooth="yes"/>
      <point x="153" y="514"/>
      <point x="41" y="398"/>
      <point x="41" y="235" type="curve" smooth="yes"/>
      <point x="41" y="88"/>
      <point x="140" y="-12"/>
    </contour>
    <contour>
      <point x="306" y="-104" type="curve" smooth="yes"/>
      <point x="316" y="-104"/>
      <point x="323" y="-104"/>
      <point x="331" y="-103" type="curve"/>
      <point x="331" y="601" type="line"/>
      <point x="316" y="603"/>
      <point x="296" y="603"/>
      <point x="281" y="601" type="curve"/>
      <point x="281" y="-103" type="line"/>
      <point x="288" y="-104"/>
      <point x="299" y="-104"/>
    </contour>
  </outline>
</glyph>
<glyph name="sterling" format="2">
  <advance width="557"/>
  <unicode hex="00A3"/>
  <outline>
    <contour>
      <point x="485" y="-1" type="curve"/>
      <point x="495" y="52"/>
      <point x="511" y="136"/>
      <point x="527" y="188" type="curve"/>
      <point x="516" y="192"/>
      <point x="501" y="194"/>
      <point x="490" y="194" type="curve"/>
      <point x="448" y="116"/>
      <point x="440" y="113"/>
      <point x="388" y="111" type="curve"/>
      <point x="363" y="111"/>
      <point x="284" y="108"/>
      <point x="162" y="109" type="curve"/>
      <point x="160" y="112" type="line"/>
      <point x="214" y="162"/>
      <point x="248" y="213"/>
      <point x="249" y="279" type="curve" smooth="yes"/>
      <point x="250" y="368"/>
      <point x="219" y="393"/>
      <point x="219" y="470" type="curve" smooth="yes"/>
      <point x="219" y="543"/>
      <point x="255" y="584"/>
      <point x="313" y="584" type="curve" smooth="yes"/>
      <point x="336" y="584"/>
      <point x="354" y="578"/>
      <point x="373" y="566" type="curve"/>
      <point x="360" y="587" type="line"/>
      <point x="355" y="524"/>
      <point x="391" y="476"/>
      <point x="438" y="476" type="curve" smooth="yes"/>
      <point x="473" y="476"/>
      <point x="494" y="499"/>
      <point x="494" y="530" type="curve" smooth="yes"/>
      <point x="494" y="576"/>
      <point x="434" y="630"/>
      <point x="326" y="630" type="curve" smooth="yes"/>
      <point x="216" y="630"/>
      <point x="79" y="572"/>
      <point x="79" y="443" type="curve" smooth="yes"/>
      <point x="79" y="367"/>
      <point x="117" y="310"/>
      <point x="117" y="223" type="curve" smooth="yes"/>
      <point x="117" y="168"/>
      <point x="108" y="98"/>
      <point x="21" y="35" type="curve"/>
      <point x="21" y="25"/>
      <point x="22" y="10"/>
      <point x="25" y="0" type="curve"/>
      <point x="65" y="1"/>
      <point x="125" y="1"/>
      <point x="202" y="1" type="curve" smooth="yes"/>
      <point x="283" y="1"/>
      <point x="402" y="1"/>
    </contour>
    <contour>
      <point x="413" y="257" type="line"/>
      <point x="415" y="274"/>
      <point x="415" y="294"/>
      <point x="413" y="308" type="curve"/>
      <point x="35" y="308" type="line"/>
      <point x="33" y="294"/>
      <point x="33" y="274"/>
      <point x="35" y="257" type="curve"/>
    </contour>
  </outline>
</glyph>
<glyph name="currency" format="2">
  <advance width="597"/>
  <unicode hex="00A4"/>
  <outline>
    <contour>
      <point x="298" y="93" type="curve" smooth="yes"/>
      <point x="416" y="93"/>
      <point x="515" y="186"/>
      <point x="515" y="312" type="curve" smooth="yes"/>
      <point x="515" y="441"/>
      <point x="417" y="530"/>
      <point x="298" y="530" type="curve" smooth="yes"/>
      <point x="181" y="530"/>
      <point x="81" y="443"/>
      <point x="81" y="312" type="curve" smooth="yes"/>
      <point x="81" y="191"/>
      <point x="176" y="93"/>
    </contour>
    <contour>
      <point x="177" y="148" type="line"/>
      <point x="134" y="186" type="line"/>
      <point x="67" y="126" type="line"/>
      <point x="80" y="110"/>
      <point x="97" y="93"/>
      <point x="112" y="80" type="curve"/>
    </contour>
    <contour>
      <point x="298" y="149" type="curve" smooth="yes"/>
      <point x="213" y="149"/>
      <point x="144" y="216"/>
      <point x="144" y="312" type="curve" smooth="yes"/>
      <point x="144" y="407"/>
      <point x="213" y="474"/>
      <point x="298" y="474" type="curve" smooth="yes"/>
      <point x="384" y="474"/>
      <point x="452" y="406"/>
      <point x="452" y="312" type="curve" smooth="yes"/>
      <point x="452" y="217"/>
      <point x="384" y="149"/>
    </contour>
    <contour>
      <point x="175" y="476" type="line"/>
      <point x="112" y="543" type="line"/>
      <point x="97" y="529"/>
      <point x="79" y="511"/>
      <point x="67" y="498" type="curve"/>
      <point x="132" y="436" type="line"/>
    </contour>
    <contour>
      <point x="486" y="80" type="line"/>
      <point x="501" y="94"/>
      <point x="518" y="111"/>
      <point x="530" y="125" type="curve"/>
      <point x="463" y="189" type="line"/>
      <point x="423" y="146" type="line"/>
    </contour>
    <contour>
      <point x="530" y="498" type="line"/>
      <point x="517" y="513"/>
      <point x="500" y="531"/>
      <point x="486" y="543" type="curve"/>
      <point x="421" y="475" type="line"/>
      <point x="466" y="437" type="line"/>
    </contour>
  </outline>
</glyph>
<glyph name="yen" format="2">
  <advance width="560"/>
  <unicode hex="00A5"/>
  <outline>
    <contour>
      <point x="332" y="270" type="line"/>
      <point x="448" y="469" type="line" smooth="yes"/>
      <point x="504" y="565"/>
      <point x="513" y="573"/>
      <point x="588" y="584" type="curve"/>
      <point x="589" y="598"/>
      <point x="589" y="607"/>
      <point x="588" y="622" type="curve"/>
      <point x="546" y="622"/>
      <point x="516" y="620"/>
      <point x="474" y="620" type="curve" smooth="yes"/>
      <point x="438" y="620"/>
      <point x="402" y="622"/>
      <point x="347" y="622" type="curve"/>
      <point x="345" y="608"/>
      <point x="345" y="599"/>
      <point x="347" y="584" type="curve"/>
      <point x="397" y="578"/>
      <point x="426" y="574"/>
      <point x="426" y="552" type="curve" smooth="yes"/>
      <point x="426" y="539"/>
      <point x="419" y="525"/>
      <point x="406" y="501" type="curve" smooth="yes"/>
      <point x="313" y="331" type="line"/>
      <point x="326" y="331" type="line"/>
      <point x="235" y="504" type="line" smooth="yes"/>
      <point x="222" y="530"/>
      <point x="212" y="546"/>
      <point x="212" y="557" type="curve" smooth="yes"/>
      <point x="212" y="574"/>
      <point x="234" y="581"/>
      <point x="278" y="584" type="curve"/>
      <point x="280" y="597"/>
      <point x="280" y="608"/>
      <point x="278" y="622" type="curve"/>
      <point x="231" y="622"/>
      <point x="177" y="620"/>
      <point x="139" y="620" type="curve" smooth="yes"/>
      <point x="90" y="620"/>
      <point x="25" y="622"/>
      <point x="-19" y="622" type="curve"/>
      <point x="-21" y="607"/>
      <point x="-21" y="599"/>
      <point x="-19" y="584" type="curve"/>
      <point x="42" y="574"/>
      <point x="45" y="569"/>
      <point x="78" y="509" type="curve" smooth="yes"/>
      <point x="213" y="266" type="line"/>
    </contour>
    <contour>
      <point x="105" y="-1" type="curve"/>
      <point x="150" y="-1"/>
      <point x="194" y="1"/>
      <point x="280" y="1" type="curve" smooth="yes"/>
      <point x="354" y="1"/>
      <point x="411" y="-1"/>
      <point x="448" y="-1" type="curve"/>
      <point x="449" y="14"/>
      <point x="449" y="22"/>
      <point x="448" y="37" type="curve"/>
      <point x="348" y="46"/>
      <point x="345" y="47"/>
      <point x="345" y="133" type="curve" smooth="yes"/>
      <point x="345" y="287" type="line"/>
      <point x="207" y="287" type="line"/>
      <point x="207" y="120" type="line" smooth="yes"/>
      <point x="207" y="46"/>
      <point x="203" y="46"/>
      <point x="105" y="37" type="curve"/>
      <point x="104" y="22"/>
      <point x="104" y="14"/>
    </contour>
    <contour>
      <point x="488" y="149" type="line"/>
      <point x="490" y="164"/>
      <point x="490" y="185"/>
      <point x="488" y="200" type="curve"/>
      <point x="63" y="200" type="line"/>
      <point x="62" y="185"/>
      <point x="62" y="164"/>
      <point x="63" y="149" type="curve"/>
    </contour>
    <contour>
      <point x="488" y="264" type="line"/>
      <point x="490" y="279"/>
      <point x="490" y="302"/>
      <point x="488" y="316" type="curve"/>
      <point x="63" y="316" type="line"/>
      <point x="62" y="302"/>
      <point x="62" y="279"/>
      <point x="63" y="264" type="curve"/>
    </contour>
  </outline>
</glyph>
<glyph name="brokenbar" format="2">
  <advance width="297"/>
  <unicode hex="00A6"/>
  <outline>
    <contour>
      <point x="116" y="-183" type="line"/>
      <point x="181" y="-183" type="line"/>
      <point x="181" y="199" type="line"/>
      <point x="116" y="199" type="line"/>
    </contour>
    <contour>
      <point x="181" y="711" type="line"/>
      <point x="116" y="711" type="line"/>
      <point x="116" y="329" type="line"/>
      <point x="181" y="329" type="line"/>
    </contour>
  </outline>
</glyph>
<glyph name="section" format="2">
  <advance width="557"/>
  <unicode hex="00A7"/>
  <outline>
    <contour>
      <point x="391" y="-88" type="line"/>
      <point x="395" y="53"/>
      <point x="315" y="142"/>
      <point x="241" y="226" type="curve" smooth="yes"/>
      <point x="173" y="305"/>
      <point x="126" y="380"/>
      <point x="126" y="465" type="curve" smooth="yes"/>
      <point x="126" y="584"/>
      <point x="191" y="669"/>
      <point x="296" y="669" type="curve" smooth="yes"/>
      <point x="308" y="669"/>
      <point x="318" y="667"/>
      <point x="331" y="662" type="curve"/>
      <point x="321" y="676" type="line"/>
      <point x="324" y="611"/>
      <point x="358" y="570"/>
      <point x="402" y="570" type="curve" smooth="yes"/>
      <point x="436" y="570"/>
      <point x="459" y="590"/>
      <point x="459" y="619" type="curve" smooth="yes"/>
      <point x="459" y="679"/>
      <point x="383" y="711"/>
      <point x="306" y="711" type="curve" smooth="yes"/>
      <point x="142" y="711"/>
      <point x="43" y="574"/>
      <point x="43" y="421" type="curve" smooth="yes"/>
      <point x="43" y="238"/>
      <point x="144" y="147"/>
      <point x="228" y="63" type="curve" smooth="yes"/>
      <point x="290" y="1"/>
      <point x="348" y="-50"/>
      <point x="363" y="-123" type="curve"/>
    </contour>
    <contour>
      <point x="235" y="-200" type="curve" smooth="yes"/>
      <point x="396" y="-200"/>
      <point x="493" y="-62"/>
      <point x="493" y="98" type="curve" smooth="yes"/>
      <point x="493" y="268"/>
      <point x="392" y="359"/>
      <point x="310" y="440" type="curve" smooth="yes"/>
      <point x="248" y="502"/>
      <point x="192" y="550"/>
      <point x="175" y="629" type="curve"/>
      <point x="149" y="591" type="line"/>
      <point x="148" y="454"/>
      <point x="222" y="366"/>
      <point x="292" y="285" type="curve" smooth="yes"/>
      <point x="362" y="204"/>
      <point x="416" y="132"/>
      <point x="416" y="46" type="curve" smooth="yes"/>
      <point x="416" y="-71"/>
      <point x="352" y="-158"/>
      <point x="242" y="-158" type="curve" smooth="yes"/>
      <point x="229" y="-158"/>
      <point x="218" y="-155"/>
      <point x="204" y="-150" type="curve"/>
      <point x="217" y="-165" type="line"/>
      <point x="213" y="-100"/>
      <point x="180" y="-59"/>
      <point x="136" y="-59" type="curve" smooth="yes"/>
      <point x="101" y="-59"/>
      <point x="79" y="-80"/>
      <point x="79" y="-109" type="curve" smooth="yes"/>
      <point x="79" y="-168"/>
      <point x="154" y="-200"/>
    </contour>
  </outline>
</glyph>
<glyph name="copyright" format="2">
  <advance width="1051"/>
  <unicode hex="00A9"/>
  <outline>
    <contour>
      <point x="982" y="317" type="curve" smooth="yes"/>
      <point x="982" y="582"/>
      <point x="792" y="771"/>
      <point x="526" y="771" type="curve" smooth="yes"/>
      <point x="258" y="771"/>
      <point x="69" y="582"/>
      <point x="69" y="317" type="curve" smooth="yes"/>
      <point x="69" y="50"/>
      <point x="258" y="-140"/>
      <point x="526" y="-140" type="curve" smooth="yes"/>
      <point x="792" y="-140"/>
      <point x="982" y="49"/>
    </contour>
    <contour>
      <point x="918" y="317" type="curve" smooth="yes"/>
      <point x="918" y="78"/>
      <point x="764" y="-85"/>
      <point x="526" y="-85" type="curve" smooth="yes"/>
      <point x="288" y="-85"/>
      <point x="132" y="78"/>
      <point x="132" y="317" type="curve" smooth="yes"/>
      <point x="132" y="553"/>
      <point x="289" y="717"/>
      <point x="526" y="717" type="curve" smooth="yes"/>
      <point x="764" y="717"/>
      <point x="918" y="553"/>
    </contour>
    <contour>
      <point x="737" y="228" type="curve"/>
      <point x="726" y="230"/>
      <point x="707" y="230"/>
      <point x="697" y="229" type="curve"/>
      <point x="677" y="134"/>
      <point x="633" y="97"/>
      <point x="560" y="97" type="curve" smooth="yes"/>
      <point x="457" y="97"/>
      <point x="404" y="197"/>
      <point x="404" y="318" type="curve" smooth="yes"/>
      <point x="404" y="433"/>
      <point x="453" y="536"/>
      <point x="553" y="536" type="curve" smooth="yes"/>
      <point x="624" y="536"/>
      <point x="675" y="497"/>
      <point x="694" y="404" type="curve"/>
      <point x="704" y="404"/>
      <point x="723" y="404"/>
      <point x="733" y="406" type="curve"/>
      <point x="729" y="460"/>
      <point x="726" y="511"/>
      <point x="726" y="557" type="curve"/>
      <point x="719" y="555"/>
      <point x="712" y="555"/>
      <point x="705" y="555" type="curve" smooth="yes"/>
      <point x="694" y="555"/>
      <point x="673" y="558"/>
      <point x="642" y="566" type="curve" smooth="yes"/>
      <point x="611" y="575"/>
      <point x="578" y="580"/>
      <point x="536" y="580" type="curve" smooth="yes"/>
      <point x="370" y="580"/>
      <point x="256" y="468"/>
      <point x="256" y="313" type="curve" smooth="yes"/>
      <point x="256" y="151"/>
      <point x="368" y="53"/>
      <point x="538" y="53" type="curve" smooth="yes"/>
      <point x="575" y="53"/>
      <point x="601" y="55"/>
      <point x="625" y="60" type="curve" smooth="yes"/>
      <point x="649" y="66"/>
      <point x="682" y="76"/>
      <point x="724" y="92" type="curve"/>
      <point x="728" y="139"/>
      <point x="732" y="184"/>
    </contour>
  </outline>
</glyph>
<glyph name="ordfeminine" format="2">
  <advance width="398"/>
  <unicode hex="00AA"/>
  <outline>
    <contour>
      <point x="293" y="299" type="curve" smooth="yes"/>
      <point x="327" y="299"/>
      <point x="360" y="312"/>
      <point x="385" y="342" type="curve"/>
      <point x="383" y="349"/>
      <point x="381" y="355"/>
      <point x="376" y="362" type="curve"/>
      <point x="359" y="356"/>
      <point x="345" y="353"/>
      <point x="336" y="353" type="curve" smooth="yes"/>
      <point x="322" y="353"/>
      <point x="315" y="361"/>
      <point x="315" y="379" type="curve" smooth="yes"/>
      <point x="315" y="391"/>
      <point x="318" y="527"/>
      <point x="318" y="545" type="curve" smooth="yes"/>
      <point x="318" y="603"/>
      <point x="275" y="630"/>
      <point x="213" y="630" type="curve" smooth="yes"/>
      <point x="138" y="630"/>
      <point x="51" y="590"/>
      <point x="51" y="543" type="curve" smooth="yes"/>
      <point x="51" y="522"/>
      <point x="69" y="509"/>
      <point x="89" y="509" type="curve" smooth="yes"/>
      <point x="128" y="509"/>
      <point x="156" y="555"/>
      <point x="149" y="603" type="curve"/>
      <point x="137" y="577" type="line"/>
      <point x="143" y="586"/>
      <point x="155" y="590"/>
      <point x="170" y="590" type="curve" smooth="yes"/>
      <point x="198" y="590"/>
      <point x="215" y="578"/>
      <point x="215" y="552" type="curve" smooth="yes"/>
      <point x="215" y="506"/>
      <point x="214" y="495"/>
      <point x="214" y="470" type="curve"/>
      <point x="212" y="357" type="line"/>
      <point x="225" y="320"/>
      <point x="248" y="299"/>
    </contour>
    <contour>
      <point x="353" y="198" type="line"/>
      <point x="355" y="213"/>
      <point x="355" y="226"/>
      <point x="353" y="242" type="curve"/>
      <point x="51" y="242" type="line"/>
      <point x="49" y="226"/>
      <point x="49" y="213"/>
      <point x="51" y="198" type="curve"/>
    </contour>
    <contour>
      <point x="123" y="298" type="curve" smooth="yes"/>
      <point x="164" y="298"/>
      <point x="198" y="315"/>
      <point x="227" y="350" type="curve"/>
      <point x="228" y="376" type="line"/>
      <point x="204" y="361"/>
      <point x="191" y="355"/>
      <point x="177" y="355" type="curve" smooth="yes"/>
      <point x="156" y="355"/>
      <point x="142" y="367"/>
      <point x="142" y="393" type="curve" smooth="yes"/>
      <point x="142" y="436"/>
      <point x="181" y="452"/>
      <point x="228" y="457" type="curve"/>
      <point x="229" y="491" type="line"/>
      <point x="104" y="478"/>
      <point x="36" y="440"/>
      <point x="36" y="373" type="curve" smooth="yes"/>
      <point x="36" y="328"/>
      <point x="68" y="298"/>
    </contour>
  </outline>
</glyph>
<glyph name="guillemotleft" format="2">
  <advance width="506"/>
  <unicode hex="00AB"/>
  <outline>
    <contour>
      <point x="152" y="243" type="line"/>
      <point x="196" y="286"/>
      <point x="241" y="337"/>
      <point x="283" y="406" type="curve"/>
      <point x="278" y="414"/>
      <point x="264" y="426"/>
      <point x="256" y="432" type="curve"/>
      <point x="174" y="366"/>
      <point x="112" y="316"/>
      <point x="27" y="269" type="curve"/>
      <point x="25" y="261"/>
      <point x="24" y="252"/>
      <point x="24" y="240" type="curve" smooth="yes"/>
      <point x="24" y="230"/>
      <point x="24" y="225"/>
      <point x="25" y="221" type="curve"/>
      <point x="107" y="174"/>
      <point x="171" y="127"/>
      <point x="251" y="59" type="curve"/>
      <point x="259" y="65"/>
      <point x="273" y="76"/>
      <point x="278" y="84" type="curve"/>
      <point x="234" y="155"/>
      <point x="196" y="208"/>
      <point x="152" y="255" type="curve"/>
    </contour>
    <contour>
      <point x="348" y="242" type="line"/>
      <point x="390" y="285"/>
      <point x="435" y="335"/>
      <point x="477" y="404" type="curve"/>
      <point x="472" y="412"/>
      <point x="457" y="424"/>
      <point x="449" y="430" type="curve"/>
      <point x="368" y="364"/>
      <point x="313" y="316"/>
      <point x="228" y="268" type="curve"/>
      <point x="227" y="260"/>
      <point x="226" y="252"/>
      <point x="226" y="240" type="curve" smooth="yes"/>
      <point x="226" y="230"/>
      <point x="226" y="225"/>
      <point x="227" y="221" type="curve"/>
      <point x="308" y="175"/>
      <point x="365" y="128"/>
      <point x="444" y="61" type="curve"/>
      <point x="452" y="66"/>
      <point x="466" y="78"/>
      <point x="471" y="85" type="curve"/>
      <point x="428" y="156"/>
      <point x="390" y="208"/>
      <point x="348" y="254" type="curve"/>
    </contour>
  </outline>
</glyph>
<glyph name="logicalnot" format="2">
  <advance width="570"/>
  <unicode hex="00AC"/>
  <outline>
    <contour>
      <point x="44" y="346" type="line"/>
      <point x="42" y="329"/>
      <point x="42" y="300"/>
      <point x="44" y="283" type="curve"/>
      <point x="458" y="283" type="line"/>
      <point x="458" y="80" type="line"/>
      <point x="473" y="79"/>
      <point x="505" y="79"/>
      <point x="520" y="80" type="curve"/>
      <point x="520" y="346" type="line"/>
    </contour>
  </outline>
</glyph>
<glyph name="registered" format="2">
  <advance width="575"/>
  <unicode hex="00AE"/>
  <outline>
    <contour>
      <point x="289" y="290" type="curve" smooth="yes"/>
      <point x="429" y="290"/>
      <point x="529" y="388"/>
      <point x="529" y="530" type="curve" smooth="yes"/>
      <point x="529" y="672"/>
      <point x="429" y="769"/>
      <point x="289" y="769" type="curve" smooth="yes"/>
      <point x="145" y="769"/>
      <point x="46" y="672"/>
      <point x="46" y="530" type="curve" smooth="yes"/>
      <point x="46" y="388"/>
      <point x="145" y="290"/>
    </contour>
    <contour>
      <point x="289" y="327" type="curve" smooth="yes"/>
      <point x="169" y="327"/>
      <point x="89" y="406"/>
      <point x="89" y="530" type="curve" smooth="yes"/>
      <point x="89" y="651"/>
      <point x="169" y="732"/>
      <point x="289" y="732" type="curve" smooth="yes"/>
      <point x="407" y="732"/>
      <point x="487" y="651"/>
      <point x="487" y="530" type="curve" smooth="yes"/>
      <point x="487" y="406"/>
      <point x="407" y="327"/>
    </contour>
    <contour>
      <point x="258" y="520" type="line"/>
      <point x="271" y="518"/>
      <point x="273" y="515"/>
      <point x="283" y="499" type="curve" smooth="yes"/>
      <point x="342" y="400" type="line"/>
      <point x="350" y="401"/>
      <point x="361" y="401"/>
      <point x="378" y="401" type="curve" smooth="yes"/>
      <point x="401" y="401"/>
      <point x="432" y="400"/>
      <point x="440" y="400" type="curve"/>
      <point x="441" y="406"/>
      <point x="441" y="419"/>
      <point x="440" y="424" type="curve"/>
      <point x="412" y="427"/>
      <point x="407" y="425"/>
      <point x="378" y="472" type="curve" smooth="yes"/>
      <point x="357" y="505" type="line" smooth="yes"/>
      <point x="350" y="517"/>
      <point x="343" y="525"/>
      <point x="327" y="530" type="curve"/>
      <point x="334" y="522" type="line"/>
      <point x="334" y="530" type="line"/>
      <point x="376" y="542"/>
      <point x="400" y="569"/>
      <point x="400" y="602" type="curve" smooth="yes"/>
      <point x="400" y="647"/>
      <point x="357" y="672"/>
      <point x="292" y="672" type="curve" smooth="yes"/>
      <point x="282" y="672"/>
      <point x="256" y="671"/>
      <point x="225" y="671" type="curve" smooth="yes"/>
      <point x="190" y="671"/>
      <point x="178" y="672"/>
      <point x="152" y="672" type="curve"/>
      <point x="150" y="667"/>
      <point x="150" y="654"/>
      <point x="152" y="648" type="curve"/>
      <point x="191" y="645"/>
      <point x="191" y="644"/>
      <point x="191" y="602" type="curve" smooth="yes"/>
      <point x="191" y="464" type="line" smooth="yes"/>
      <point x="191" y="429"/>
      <point x="191" y="428"/>
      <point x="152" y="424" type="curve"/>
      <point x="150" y="419"/>
      <point x="150" y="406"/>
      <point x="152" y="400" type="curve"/>
      <point x="173" y="400"/>
      <point x="209" y="401"/>
      <point x="221" y="401" type="curve" smooth="yes"/>
      <point x="238" y="401"/>
      <point x="271" y="400"/>
      <point x="293" y="400" type="curve"/>
      <point x="294" y="406"/>
      <point x="294" y="419"/>
      <point x="293" y="424" type="curve"/>
      <point x="262" y="428"/>
      <point x="259" y="429"/>
      <point x="259" y="462" type="curve" smooth="yes"/>
      <point x="259" y="658" type="line"/>
      <point x="242" y="642" type="line"/>
      <point x="257" y="644"/>
      <point x="269" y="644"/>
      <point x="277" y="644" type="curve" smooth="yes"/>
      <point x="308" y="644"/>
      <point x="324" y="627"/>
      <point x="324" y="595" type="curve" smooth="yes"/>
      <point x="324" y="564"/>
      <point x="305" y="545"/>
      <point x="276" y="545" type="curve" smooth="yes"/>
      <point x="266" y="545"/>
      <point x="258" y="545"/>
      <point x="245" y="547" type="curve"/>
      <point x="245" y="521" type="line"/>
    </contour>
  </outline>
</glyph>
<glyph name="degree" format="2">
  <advance width="463"/>
  <unicode hex="00B0"/>
  <outline>
    <contour>
      <point x="46" y="449" type="curve" smooth="yes"/>
      <point x="46" y="344"/>
      <point x="129" y="263"/>
      <point x="231" y="263" type="curve" smooth="yes"/>
      <point x="333" y="263"/>
      <point x="417" y="345"/>
      <point x="417" y="449" type="curve" smooth="yes"/>
      <point x="417" y="554"/>
      <point x="333" y="634"/>
      <point x="231" y="634" type="curve" smooth="yes"/>
      <point x="129" y="634"/>
      <point x="46" y="554"/>
    </contour>
    <contour>
      <point x="109" y="449" type="curve" smooth="yes"/>
      <point x="109" y="522"/>
      <point x="162" y="576"/>
      <point x="231" y="576" type="curve" smooth="yes"/>
      <point x="301" y="576"/>
      <point x="354" y="522"/>
      <point x="354" y="449" type="curve" smooth="yes"/>
      <point x="354" y="375"/>
      <point x="301" y="321"/>
      <point x="231" y="321" type="curve" smooth="yes"/>
      <point x="162" y="321"/>
      <point x="109" y="376"/>
    </contour>
  </outline>
</glyph>
<glyph name="plusminus" format="2">
  <advance width="565"/>
  <unicode hex="00B1"/>
  <outline>
    <contour>
      <point x="521" y="257" type="line"/>
      <point x="522" y="273"/>
      <point x="522" y="302"/>
      <point x="521" y="320" type="curve"/>
      <point x="44" y="320" type="line"/>
      <point x="42" y="302"/>
      <point x="42" y="273"/>
      <point x="44" y="257" type="curve"/>
    </contour>
    <contour>
      <point x="521" y="0" type="line"/>
      <point x="522" y="17"/>
      <point x="522" y="46"/>
      <point x="521" y="63" type="curve"/>
      <point x="44" y="63" type="line"/>
      <point x="42" y="46"/>
      <point x="42" y="17"/>
      <point x="44" y="0" type="curve"/>
    </contour>
    <contour>
      <point x="251" y="110" type="line"/>
      <point x="266" y="109"/>
      <point x="298" y="109"/>
      <point x="314" y="110" type="curve"/>
      <point x="314" y="477" type="line"/>
      <point x="298" y="478"/>
      <point x="266" y="478"/>
      <point x="251" y="477" type="curve"/>
    </contour>
  </outline>
</glyph>
<glyph name="twosuperior" format="2">
  <advance width="389"/>
  <unicode hex="00B2"/>
  <outline>
    <contour>
      <point x="325" y="333" type="curve"/>
      <point x="333" y="379"/>
      <point x="347" y="437"/>
      <point x="359" y="488" type="curve"/>
      <point x="351" y="492"/>
      <point x="336" y="494"/>
      <point x="328" y="493" type="curve"/>
      <point x="298" y="431"/>
      <point x="287" y="424"/>
      <point x="250" y="424" type="curve" smooth="yes"/>
      <point x="241" y="424"/>
      <point x="177" y="423"/>
      <point x="114" y="423" type="curve"/>
      <point x="114" y="410" type="line"/>
      <point x="231" y="506"/>
      <point x="327" y="578"/>
      <point x="327" y="671" type="curve" smooth="yes"/>
      <point x="327" y="748"/>
      <point x="263" y="788"/>
      <point x="188" y="788" type="curve" smooth="yes"/>
      <point x="121" y="788"/>
      <point x="69" y="762"/>
      <point x="28" y="712" type="curve"/>
      <point x="33" y="701"/>
      <point x="39" y="693"/>
      <point x="47" y="685" type="curve"/>
      <point x="73" y="709"/>
      <point x="102" y="722"/>
      <point x="135" y="722" type="curve" smooth="yes"/>
      <point x="173" y="722"/>
      <point x="207" y="695"/>
      <point x="207" y="642" type="curve" smooth="yes"/>
      <point x="207" y="576"/>
      <point x="169" y="498"/>
      <point x="12" y="362" type="curve"/>
      <point x="12" y="352"/>
      <point x="13" y="344"/>
      <point x="16" y="334" type="curve"/>
      <point x="36" y="335"/>
      <point x="72" y="335"/>
      <point x="131" y="335" type="curve" smooth="yes"/>
      <point x="194" y="335"/>
      <point x="267" y="335"/>
    </contour>
  </outline>
</glyph>
